<svg width="1187" height="134" viewBox="0 0 1187 134" fill="none" xmlns="http://www.w3.org/2000/svg">
<path fill-rule="evenodd" clip-rule="evenodd" d="M1077.5 5.99999L913 67L1077.5 128L1037.34 79L1184.5 79L1184.5 55L1037.34 55L1077.5 5.99999Z" fill="black"/>
<path d="M913 67L912.131 64.6559L905.81 67L912.131 69.344L913 67ZM1077.5 5.99999L1079.43 7.58481L1085.28 0.44717L1076.63 3.65596L1077.5 5.99999ZM1077.5 128L1076.63 130.344L1085.28 133.553L1079.43 126.415L1077.5 128ZM1037.34 79L1037.34 76.5L1032.05 76.5L1035.4 80.5848L1037.34 79ZM1184.5 79L1184.5 81.5L1187 81.5L1187 79L1184.5 79ZM1184.5 55L1187 55L1187 52.5L1184.5 52.5L1184.5 55ZM1037.34 55L1035.4 53.4152L1032.05 57.5L1037.34 57.5L1037.34 55ZM913.869 69.344L1078.37 8.34402L1076.63 3.65596L912.131 64.6559L913.869 69.344ZM1078.37 125.656L913.869 64.6559L912.131 69.344L1076.63 130.344L1078.37 125.656ZM1035.4 80.5848L1075.57 129.585L1079.43 126.415L1039.27 77.4152L1035.4 80.5848ZM1184.5 76.5L1037.34 76.5L1037.34 81.5L1184.5 81.5L1184.5 76.5ZM1182 55L1182 79L1187 79L1187 55L1182 55ZM1037.34 57.5L1184.5 57.5L1184.5 52.5L1037.34 52.5L1037.34 57.5ZM1075.57 4.41517L1035.4 53.4152L1039.27 56.5848L1079.43 7.58481L1075.57 4.41517Z" fill="white"/>
<path fill-rule="evenodd" clip-rule="evenodd" d="M172.5 5.99999L8.00001 67L172.5 128L132.336 79L279.5 79L279.5 55L132.336 55L172.5 5.99999Z" fill="black"/>
<path d="M8.00001 67L7.13079 64.6559L0.809601 67L7.13079 69.344L8.00001 67ZM172.5 5.99999L174.433 7.58481L180.284 0.44717L171.631 3.65596L172.5 5.99999ZM172.5 128L171.631 130.344L180.284 133.553L174.433 126.415L172.5 128ZM132.336 79L132.336 76.5L127.054 76.5L130.403 80.5848L132.336 79ZM279.5 79L279.5 81.5L282 81.5L282 79L279.5 79ZM279.5 55L282 55L282 52.5L279.5 52.5L279.5 55ZM132.336 55L130.403 53.4152L127.054 57.5L132.336 57.5L132.336 55ZM8.86922 69.344L173.369 8.34402L171.631 3.65596L7.13079 64.6559L8.86922 69.344ZM173.369 125.656L8.86922 64.6559L7.13079 69.344L171.631 130.344L173.369 125.656ZM130.403 80.5848L170.567 129.585L174.433 126.415L134.27 77.4152L130.403 80.5848ZM279.5 76.5L132.336 76.5L132.336 81.5L279.5 81.5L279.5 76.5ZM277 55L277 79L282 79L282 55L277 55ZM132.336 57.5L279.5 57.5L279.5 52.5L132.336 52.5L132.336 57.5ZM170.567 4.41517L130.403 53.4152L134.27 56.5848L174.433 7.58481L170.567 4.41517Z" fill="white"/>
<path fill-rule="evenodd" clip-rule="evenodd" d="M776 5.99999L611.5 67L776 128L735.836 79L883 79L883 55L735.836 55L776 5.99999Z" fill="black"/>
<path d="M611.5 67L610.631 64.6559L604.31 67L610.631 69.344L611.5 67ZM776 5.99999L777.933 7.58481L783.784 0.44717L775.131 3.65596L776 5.99999ZM776 128L775.131 130.344L783.784 133.553L777.933 126.415L776 128ZM735.836 79L735.836 76.5L730.554 76.5L733.903 80.5848L735.836 79ZM883 79L883 81.5L885.5 81.5L885.5 79L883 79ZM883 55L885.5 55L885.5 52.5L883 52.5L883 55ZM735.836 55L733.903 53.4152L730.554 57.5L735.836 57.5L735.836 55ZM612.369 69.344L776.869 8.34402L775.131 3.65596L610.631 64.6559L612.369 69.344ZM776.869 125.656L612.369 64.6559L610.631 69.344L775.131 130.344L776.869 125.656ZM733.903 80.5848L774.067 129.585L777.933 126.415L737.77 77.4152L733.903 80.5848ZM883 76.5L735.836 76.5L735.836 81.5L883 81.5L883 76.5ZM880.5 55L880.5 79L885.5 79L885.5 55L880.5 55ZM735.836 57.5L883 57.5L883 52.5L735.836 52.5L735.836 57.5ZM774.067 4.41517L733.903 53.4152L737.77 56.5848L777.933 7.58481L774.067 4.41517Z" fill="white"/>
<path fill-rule="evenodd" clip-rule="evenodd" d="M474.5 5.99999L310 67L474.5 128L434.336 79L581.5 79L581.5 55L434.336 55L474.5 5.99999Z" fill="black"/>
<path d="M310 67L309.131 64.6559L302.81 67L309.131 69.344L310 67ZM474.5 5.99999L476.433 7.58481L482.284 0.44717L473.631 3.65596L474.5 5.99999ZM474.5 128L473.631 130.344L482.284 133.553L476.433 126.415L474.5 128ZM434.336 79L434.336 76.5L429.054 76.5L432.403 80.5848L434.336 79ZM581.5 79L581.5 81.5L584 81.5L584 79L581.5 79ZM581.5 55L584 55L584 52.5L581.5 52.5L581.5 55ZM434.336 55L432.403 53.4152L429.054 57.5L434.336 57.5L434.336 55ZM310.869 69.344L475.369 8.34402L473.631 3.65596L309.131 64.6559L310.869 69.344ZM475.369 125.656L310.869 64.6559L309.131 69.344L473.631 130.344L475.369 125.656ZM432.403 80.5848L472.567 129.585L476.433 126.415L436.27 77.4152L432.403 80.5848ZM581.5 76.5L434.336 76.5L434.336 81.5L581.5 81.5L581.5 76.5ZM579 55L579 79L584 79L584 55L579 55ZM434.336 57.5L581.5 57.5L581.5 52.5L434.336 52.5L434.336 57.5ZM472.567 4.41517L432.403 53.4152L436.27 56.5848L476.433 7.58481L472.567 4.41517Z" fill="white"/>
</svg>
