<svg width="1187" height="134" viewBox="0 0 1187 134" fill="none" xmlns="http://www.w3.org/2000/svg">
<path fill-rule="evenodd" clip-rule="evenodd" d="M110 128L274.5 67L110 6.00002L150.164 55L2.99999 55L2.99999 79L150.164 79L110 128Z" fill="black"/>
<path d="M274.5 67L275.369 69.3441L281.69 67L275.369 64.656L274.5 67ZM110 128L108.066 126.415L102.216 133.553L110.869 130.344L110 128ZM110 6.00002L110.869 3.65599L102.216 0.447196L108.067 7.58484L110 6.00002ZM150.164 55L150.164 57.5L155.446 57.5L152.097 53.4152L150.164 55ZM2.99999 55L2.99999 52.5L0.499992 52.5L0.499991 55L2.99999 55ZM2.99999 79L0.499987 79L0.499987 81.5L2.99999 81.5L2.99999 79ZM150.164 79L152.097 80.5848L155.446 76.5L150.164 76.5L150.164 79ZM273.631 64.656L109.131 125.656L110.869 130.344L275.369 69.3441L273.631 64.656ZM109.131 8.34405L273.631 69.3441L275.369 64.656L110.869 3.65599L109.131 8.34405ZM152.097 53.4152L111.933 4.4152L108.067 7.58484L148.23 56.5848L152.097 53.4152ZM2.99999 57.5L150.164 57.5L150.164 52.5L2.99999 52.5L2.99999 57.5ZM5.49999 79L5.49999 55L0.499991 55L0.499987 79L5.49999 79ZM150.164 76.5L2.99999 76.5L2.99999 81.5L150.164 81.5L150.164 76.5ZM111.933 129.585L152.097 80.5848L148.23 77.4152L108.066 126.415L111.933 129.585Z" fill="white"/>
<path fill-rule="evenodd" clip-rule="evenodd" d="M1015 128L1179.5 67.0002L1015 6.00014L1055.16 55.0001L908 55.0001L908 79.0001L1055.16 79.0001L1015 128Z" fill="black"/>
<path d="M1179.5 67.0002L1180.37 69.3442L1186.69 67.0002L1180.37 64.6561L1179.5 67.0002ZM1015 128L1013.07 126.415L1007.22 133.553L1015.87 130.344L1015 128ZM1015 6.00014L1015.87 3.65611L1007.22 0.447318L1013.07 7.58496L1015 6.00014ZM1055.16 55.0001L1055.16 57.5001L1060.45 57.5001L1057.1 53.4153L1055.16 55.0001ZM908 55.0001L908 52.5001L905.5 52.5001L905.5 55.0001L908 55.0001ZM908 79.0001L905.5 79.0001L905.5 81.5001L908 81.5001L908 79.0001ZM1055.16 79.0001L1057.1 80.585L1060.45 76.5001L1055.16 76.5001L1055.16 79.0001ZM1178.63 64.6561L1014.13 125.656L1015.87 130.344L1180.37 69.3442L1178.63 64.6561ZM1014.13 8.34417L1178.63 69.3442L1180.37 64.6561L1015.87 3.65611L1014.13 8.34417ZM1057.1 53.4153L1016.93 4.41532L1013.07 7.58496L1053.23 56.585L1057.1 53.4153ZM908 57.5001L1055.16 57.5001L1055.16 52.5001L908 52.5001L908 57.5001ZM910.5 79.0001L910.5 55.0001L905.5 55.0001L905.5 79.0001L910.5 79.0001ZM1055.16 76.5001L908 76.5001L908 81.5001L1055.16 81.5001L1055.16 76.5001ZM1016.93 129.585L1057.1 80.585L1053.23 77.4153L1013.07 126.415L1016.93 129.585Z" fill="white"/>
<path fill-rule="evenodd" clip-rule="evenodd" d="M411.5 128L576 67L411.5 6.00002L451.664 55L304.5 55L304.5 79L451.664 79L411.5 128Z" fill="black"/>
<path d="M576 67L576.869 69.3441L583.19 67L576.869 64.656L576 67ZM411.5 128L409.566 126.415L403.716 133.553L412.369 130.344L411.5 128ZM411.5 6.00002L412.369 3.65599L403.716 0.447196L409.567 7.58484L411.5 6.00002ZM451.664 55L451.664 57.5L456.946 57.5L453.597 53.4152L451.664 55ZM304.5 55L304.5 52.5L302 52.5L302 55L304.5 55ZM304.5 79L302 79L302 81.5L304.5 81.5L304.5 79ZM451.664 79L453.597 80.5848L456.946 76.5L451.664 76.5L451.664 79ZM575.131 64.656L410.631 125.656L412.369 130.344L576.869 69.3441L575.131 64.656ZM410.631 8.34405L575.131 69.3441L576.869 64.656L412.369 3.65599L410.631 8.34405ZM453.597 53.4152L413.433 4.4152L409.567 7.58484L449.73 56.5848L453.597 53.4152ZM304.5 57.5L451.664 57.5L451.664 52.5L304.5 52.5L304.5 57.5ZM307 79L307 55L302 55L302 79L307 79ZM451.664 76.5L304.5 76.5L304.5 81.5L451.664 81.5L451.664 76.5ZM413.433 129.585L453.597 80.5848L449.73 77.4152L409.566 126.415L413.433 129.585Z" fill="white"/>
<path fill-rule="evenodd" clip-rule="evenodd" d="M713 128L877.5 67L713 6.00002L753.164 55L606 55L606 79L753.164 79L713 128Z" fill="black"/>
<path d="M877.5 67L878.369 69.3441L884.69 67L878.369 64.656L877.5 67ZM713 128L711.066 126.415L705.216 133.553L713.869 130.344L713 128ZM713 6.00002L713.869 3.65599L705.216 0.447196L711.067 7.58484L713 6.00002ZM753.164 55L753.164 57.5L758.446 57.5L755.097 53.4152L753.164 55ZM606 55L606 52.5L603.5 52.5L603.5 55L606 55ZM606 79L603.5 79L603.5 81.5L606 81.5L606 79ZM753.164 79L755.097 80.5848L758.446 76.5L753.164 76.5L753.164 79ZM876.631 64.656L712.131 125.656L713.869 130.344L878.369 69.3441L876.631 64.656ZM712.131 8.34405L876.631 69.3441L878.369 64.656L713.869 3.65599L712.131 8.34405ZM755.097 53.4152L714.933 4.4152L711.067 7.58484L751.23 56.5848L755.097 53.4152ZM606 57.5L753.164 57.5L753.164 52.5L606 52.5L606 57.5ZM608.5 79L608.5 55L603.5 55L603.5 79L608.5 79ZM753.164 76.5L606 76.5L606 81.5L753.164 81.5L753.164 76.5ZM714.933 129.585L755.097 80.5848L751.23 77.4152L711.066 126.415L714.933 129.585Z" fill="white"/>
</svg>
