<svg width="800" height="460" viewBox="0 0 800 460" fill="none" xmlns="http://www.w3.org/2000/svg">
<mask id="mask0_573_252" style="mask-type:alpha" maskUnits="userSpaceOnUse" x="0" y="0" width="800" height="460">
<path d="M2 2H798V458H2V2Z" fill="black" stroke="black" stroke-width="4"/>
</mask>
<g mask="url(#mask0_573_252)">
<rect width="800" height="460" fill="black"/>
<path d="M248.129 394.804L249.485 396.608L251.418 395.443C314.789 357.244 413.313 318.752 512.204 288.666C611.093 258.58 710.054 236.987 774.24 232.47L776.565 232.306V229.976V226.676V224.343L774.237 224.182C708.811 219.664 608.61 197.865 509.411 167.882C410.204 137.897 312.308 99.818 251.425 62.8629L249.489 61.688L248.129 63.4982L243.171 70.0973L242.401 71.1212L242.783 72.3438C257.929 120.882 294.359 181.466 326.664 217.177L27.1615 197.785L24.5 197.613V200.28V256.372V259.025L27.1481 258.868L326.703 241.089C295.196 275.966 259.506 335.085 242.794 385.922L242.387 387.162L243.171 388.205L248.129 394.804Z" fill="black" stroke="white" stroke-width="5"/>
</g>
</svg>
