<svg width="800" height="500" viewBox="0 0 800 500" fill="none" xmlns="http://www.w3.org/2000/svg">
<mask id="mask0_573_252" style="mask-type:alpha" maskUnits="userSpaceOnUse" x="0" y="0" width="800" height="500">
<path d="M2 2H798V498H2V2Z" fill="black" stroke="black" stroke-width="4"/>
</mask>
<g mask="url(#mask0_573_252)">
<rect width="800" height="500" fill="black"/>
<path d="M248.129 414.804L249.485 416.608L251.418 415.443C314.789 377.244 413.313 338.752 512.204 308.666C611.093 278.58 710.054 256.987 774.24 252.47L776.565 252.306V249.976V246.676V244.343L774.237 244.182C708.811 239.664 608.61 217.865 509.411 187.882C410.204 157.897 312.308 119.818 251.425 82.8629L249.489 81.688L248.129 83.4982L243.171 90.0973L242.401 91.1212L242.783 92.3438C257.929 140.882 294.359 201.466 326.664 237.177L27.1615 217.785L24.5 217.613V220.28V276.372V279.025L27.1481 278.868L326.703 261.089C295.196 295.966 259.506 355.085 242.794 405.922L242.387 407.162L243.171 408.205L248.129 414.804Z" fill="black" stroke="white" stroke-width="5"/>
</g>
</svg>
