<svg width="735" height="450" viewBox="0 0 735 450" fill="none" xmlns="http://www.w3.org/2000/svg">
<rect width="735" height="450" fill="#BCBCBC"/>
<rect width="735" height="450" fill="#BCBCBC"/>
<circle cx="422" cy="302" r="8" fill="black"/>
<circle cx="576" cy="157" r="8" fill="black"/>
<circle cx="538" cy="369" r="8" fill="black"/>
<circle cx="83" cy="378" r="8" fill="black"/>
<circle cx="667" cy="76" r="8" fill="black"/>
<circle cx="379" cy="87" r="8" fill="black"/>
<circle cx="108" cy="160" r="8" fill="black"/>
<circle cx="157" cy="85" r="8" fill="black"/>
<circle cx="212" cy="302" r="8" fill="black"/>
<path d="M254 378H83" stroke="black" stroke-width="6"/>
<path d="M241.075 392.5L240.625 391.9C242.2 387.1 245.65 381.475 248.575 378.4L220.825 380.05V374.95L248.575 376.75C245.575 373.6 242.05 367.825 240.625 363.25L241.075 362.65C252.175 369.4 276.7 376.525 288.625 377.35V377.65C276.925 378.475 252.625 385.525 241.075 392.5Z" fill="black"/>
<path d="M321.045 129.452L155.872 85.1941" stroke="black" stroke-width="6"/>
<path d="M304.808 140.113L304.528 139.417C307.292 135.188 312.08 130.648 315.702 128.434L288.47 122.846L289.79 117.92L316.129 126.841C314.046 123.022 312.136 116.531 311.944 111.743L312.534 111.28C321.508 120.673 343.354 133.903 354.659 137.786L354.581 138.076C343.066 135.844 317.77 136.365 304.808 140.113Z" fill="black"/>
<path d="M622.399 223.275L536.899 371.365" stroke="black" stroke-width="6"/>
<path d="M628.494 241.718L627.75 241.808C624.38 238.044 621.234 232.244 620.033 228.173L607.587 253.03L603.17 250.48L618.604 227.348C614.376 228.371 607.613 228.536 602.938 227.483L602.643 226.793C614.039 220.555 632.472 202.879 639.149 192.964L639.409 193.114C634.273 203.659 628.229 228.228 628.494 241.718Z" fill="black"/>
<path d="M497.614 206.392L376.699 85.4766" stroke="black" stroke-width="6"/>
<path d="M478.222 207.506L478.328 206.763C482.835 204.483 489.252 202.945 493.495 202.839L472.706 184.383L476.312 180.777L494.662 201.672C494.768 197.323 496.359 190.747 498.586 186.505L499.329 186.398C502.405 199.02 514.708 221.4 522.557 230.416L522.345 230.628C513.489 222.938 491.321 210.741 478.222 207.506Z" fill="black"/>
<path d="M285.188 228.054L214.478 298.765" stroke="black" stroke-width="6"/>
<path d="M286.302 247.446L285.56 247.34C283.279 242.832 281.741 236.415 281.635 232.173L263.18 252.962L259.573 249.355L280.469 231.006C276.12 230.9 269.544 229.309 265.301 227.082L265.195 226.339C277.817 223.263 300.197 210.96 309.212 203.111L309.425 203.323C301.735 212.179 289.537 234.347 286.302 247.446Z" fill="black"/>
<path d="M372.874 388.603L422.874 302" stroke="black" stroke-width="6"/>
<path d="M366.779 370.159L367.524 370.069C370.893 373.833 374.04 379.634 375.24 383.704L387.686 358.847L392.103 361.397L376.669 384.529C380.897 383.506 387.661 383.341 392.335 384.394L392.63 385.084C381.234 391.322 362.801 408.999 356.125 418.914L355.865 418.764C361 408.219 367.045 383.649 366.779 370.159Z" fill="black"/>
<path d="M85.0967 256.592L108.563 159.385" stroke="black" stroke-width="6"/>
<path d="M74.0342 240.626L74.723 240.329C79.0194 242.986 83.6778 247.66 85.9805 251.225L90.8884 223.863L95.846 225.059L87.5844 251.612C91.3505 249.435 97.7914 247.364 102.573 247.052L103.051 247.63C93.8844 256.836 81.2034 279.005 77.6031 290.403L77.3115 290.333C79.255 278.766 78.1041 253.49 74.0342 240.626Z" fill="black"/>
<path d="M505.054 85.2757L575.764 155.986" stroke="black" stroke-width="6"/>
<path d="M524.446 84.162L524.34 84.9044C519.832 87.1849 513.415 88.7228 509.173 88.8289L529.962 107.284L526.356 110.891L508.006 89.9956C507.9 94.3443 506.309 100.92 504.082 105.163L503.339 105.269C500.263 92.6473 487.96 70.2673 480.111 61.2517L480.323 61.0396C489.179 68.7294 511.347 80.927 524.446 84.162Z" fill="black"/>
<path d="M667 135L667 75" stroke="black" stroke-width="6"/>
<path d="M652.5 122.075L653.1 121.625C657.9 123.2 663.525 126.65 666.6 129.575L664.95 101.825L670.05 101.825L668.25 129.575C671.4 126.575 677.175 123.05 681.75 121.625L682.35 122.075C675.6 133.175 668.475 157.7 667.65 169.625L667.35 169.625C666.525 157.925 659.475 133.625 652.5 122.075Z" fill="black"/>
</svg>
