<svg width="450" height="450" viewBox="0 0 450 450" fill="none" xmlns="http://www.w3.org/2000/svg">
<mask id="mask0_708_238" style="mask-type:alpha" maskUnits="userSpaceOnUse" x="0" y="0" width="450" height="450">
<rect width="450" height="450" fill="white"/>
</mask>
<g mask="url(#mask0_708_238)">
<path d="M141.468 127.464C167.601 100.708 199.735 87.3448 238.063 87.3448C262.711 87.3448 284.935 92.9553 304.805 104.132C324.723 115.336 340.733 130.569 352.868 149.862L354.472 152.412L357.016 150.797L387.067 131.716L389.626 130.092L387.975 127.55C371.804 102.646 350.606 83.0655 324.415 68.8362C298.193 54.2711 269.39 47 238.063 47C188.319 47 146.054 64.1528 111.452 98.4319L111.452 98.4319L111.442 98.4419C77.1494 132.734 60 175.006 60 225.063C60 275.12 77.1494 317.392 111.442 351.684L111.452 351.694C146.054 385.973 188.319 403.126 238.063 403.126C269.383 403.126 298.182 396.017 324.403 381.774L324.415 381.767L324.428 381.76C350.611 367.214 371.805 347.478 387.975 322.576L389.626 320.034L387.067 318.409L357.016 299.329L354.472 297.714L352.868 300.264C340.733 319.557 324.723 334.79 304.805 345.994C284.935 357.171 262.711 362.781 238.063 362.781C199.727 362.781 167.591 349.57 141.462 323.133C115.649 296.695 102.73 264.073 102.73 225.063C102.73 186.375 115.647 153.907 141.468 127.464ZM141.468 127.464L139.335 125.381L141.468 127.464Z" fill="#BCBCBC" stroke="#BCBCBC" stroke-width="6"/>
</g>
</svg>
