<svg width="106" height="361" viewBox="0 0 106 361" fill="none" xmlns="http://www.w3.org/2000/svg">
<path fill-rule="evenodd" clip-rule="evenodd" d="M14.8335 305.805L14.8314 305.797C4.89534 271.537 0 229.634 0 180.223C0 130.812 4.89534 88.9094 14.8314 54.6494L14.8335 54.6422L14.8356 54.6349C19.8227 37.5999 25.5015 24.2782 32.0605 15.0933C38.63 5.89368 46.7433 0 56.5281 0C69.0331 0 78.7207 9.9741 86.3407 24.5609C94.1716 39.2375 100.324 59.0396 104.967 83.6936L105.32 85.5649L87.9213 123.654L84.4945 104.87C80.969 85.545 76.3792 70.6793 70.8832 60.0197C65.2238 49.0431 60.1865 46.1801 56.5281 46.1801C53.6503 46.1801 50.0419 47.8244 45.8558 53.821C41.6653 59.824 37.5837 69.2896 33.8014 82.6416C26.3808 108.845 22.6013 141.328 22.6013 180.223C22.6013 219.435 26.381 252.073 33.7988 278.27C37.5784 291.456 41.655 300.796 45.8369 306.717C50.0088 312.624 53.6181 314.267 56.5281 314.267C60.1865 314.267 65.2238 311.404 70.8832 300.427C76.3792 289.767 80.969 274.902 84.4945 255.577L87.9213 236.793L105.32 274.882L104.967 276.753C100.321 301.424 94.168 321.367 86.3538 336.335L86.3409 336.36L86.3278 336.385C78.6747 350.719 68.9715 360.447 56.5281 360.447C46.7433 360.447 38.63 354.553 32.0605 345.353C25.5015 336.168 19.8227 322.847 14.8356 305.812L14.8335 305.805ZM28.0286 279.915C20.4104 253.014 16.6013 219.784 16.6013 180.223C16.6013 140.98 20.4104 107.907 28.0286 81.0063C35.7386 53.7888 45.2384 40.1801 56.5281 40.1801C63.7792 40.1801 70.3418 45.8768 76.2161 57.2701C81.0499 66.6453 85.1068 78.8063 88.3868 93.753C89.0929 96.9706 89.7629 100.317 90.397 103.793L99.0708 84.804C94.4815 60.4349 88.4695 41.2878 81.0349 27.3626C73.6002 13.1209 65.4313 6 56.5281 6C42.3931 6 30.415 22.7736 20.5939 56.3207C10.8646 89.8678 6 131.169 6 180.223C6 229.278 10.8646 270.579 20.5939 304.126C30.415 337.673 42.3931 354.447 56.5281 354.447C65.4313 354.447 73.6002 347.484 81.0349 333.559C88.4695 319.317 94.4815 300.012 99.0708 275.643L90.397 256.654C89.7629 260.129 89.0929 263.476 88.3868 266.694C85.1068 281.64 81.0499 293.801 76.2161 303.177C70.3418 314.57 63.7792 320.267 56.5281 320.267C45.2384 320.267 35.7386 306.816 28.0286 279.915Z" fill="black"/>
</svg>
