<svg width="106" height="420" viewBox="0 0 106 420" fill="none" xmlns="http://www.w3.org/2000/svg">
<path fill-rule="evenodd" clip-rule="evenodd" d="M83.8463 419.312V349.053H21.9129V419.312H0V302.873H6.71982C7.18678 302.095 7.81788 300.656 8.47514 298.264L8.48638 298.223L8.49819 298.182C10.0266 292.912 11.4775 281.083 12.6783 261.974L12.679 261.963L12.6797 261.952C13.952 242.837 14.594 217.194 14.594 184.971V0H93.7812V302.873H105.759V419.312H83.8463ZM15.9129 343.053H89.8463V413.312H99.7592V308.873H87.7812V6H20.594V184.971C20.594 217.252 19.9514 243.045 18.6664 262.35C17.4732 281.339 16.0047 293.84 14.2607 299.853C12.6086 305.867 10.4975 308.873 7.9275 308.873H6V413.312H15.9129V343.053ZM37.0575 46.18V192.091C37.0575 242.758 35.3225 279.803 31.7355 302.873H71.3176V46.18H37.0575ZM31.0575 192.091C31.0575 243.533 29.2589 280.461 25.6616 302.873C25.3196 305.004 24.9612 307.004 24.5866 308.873H77.3176V40.18H31.0575V192.091Z" fill="black"/>
</svg>
