<svg width="320" height="320" viewBox="0 0 320 320" fill="none" xmlns="http://www.w3.org/2000/svg">
<circle cx="160" cy="160" r="157.5" fill="white" stroke="black" stroke-width="5"/>
<path d="M92 286V41H169.449C192.039 41 209.903 47.0963 223.041 59.2887C236.18 71.4812 242.749 86.3192 242.749 103.803C242.749 127.728 233.414 145.096 214.743 155.908C244.248 165.8 259 185.354 259 214.57C259 235.505 251.278 252.643 235.834 265.986C220.621 279.329 200.337 286 174.981 286H92ZM118.277 262.19H177.747C195.727 262.19 209.442 258.049 218.892 249.768C228.343 241.486 233.068 230.444 233.068 216.641C233.068 202.838 228.343 191.796 218.892 183.514C209.672 175.002 196.072 170.746 178.093 170.746H118.277V262.19ZM118.277 147.972H171.178C185.469 147.972 196.649 144.176 204.716 136.584C212.784 128.763 216.818 118.756 216.818 106.563C216.818 95.061 212.669 85.284 204.371 77.2324C196.303 68.9507 185.239 64.8098 171.178 64.8098H118.277V147.972Z" fill="#BCBCBC"/>
<path d="M34 91L279 91L279 168.449C279 191.039 272.904 208.903 260.711 222.041C248.519 235.18 233.681 241.749 216.197 241.749C192.272 241.749 174.904 232.414 164.092 213.743C154.2 243.248 134.646 258 105.43 258C84.4953 258 67.3568 250.278 54.0141 234.834C40.6713 219.621 34 199.337 34 173.981L34 91ZM57.8099 117.277L57.8099 176.747C57.8099 194.727 61.9507 208.442 70.2324 217.892C78.5141 227.343 89.5563 232.068 103.359 232.068C117.162 232.068 128.204 227.343 136.486 217.892C144.998 208.672 149.254 195.072 149.254 177.093L149.254 117.277L57.8099 117.277ZM172.028 117.277L172.028 170.178C172.028 184.469 175.824 195.649 183.416 203.716C191.237 211.784 201.244 215.818 213.437 215.818C224.939 215.818 234.716 211.669 242.768 203.371C251.049 195.303 255.19 184.239 255.19 170.178L255.19 117.277L172.028 117.277Z" fill="#BCBCBC"/>
<path d="M69.3991 96V71.86H77.3211C79.4971 71.86 81.2425 72.4833 82.5571 73.73C83.8718 74.9767 84.5291 76.484 84.5291 78.252C84.5291 80.4733 83.6678 82.1167 81.9451 83.182C84.7331 84.202 86.1271 86.1287 86.1271 88.962C86.1271 91.002 85.3791 92.6907 83.8831 94.028C82.4098 95.3427 80.4605 96 78.0351 96H69.3991ZM72.5611 93.144H78.1711C79.7578 93.144 80.9591 92.7813 81.7751 92.056C82.6138 91.308 83.0331 90.3107 83.0331 89.064C83.0331 87.84 82.6138 86.854 81.7751 86.106C80.9591 85.3353 79.7691 84.95 78.2051 84.95H72.5611V93.144ZM72.5611 82.23H77.3211C78.5905 82.23 79.5878 81.89 80.3131 81.21C81.0611 80.5073 81.4351 79.6007 81.4351 78.49C81.4351 77.4247 81.0611 76.5293 80.3131 75.804C79.5651 75.0787 78.5678 74.716 77.3211 74.716H72.5611V82.23ZM93.9439 81.55H98.4319C100.925 81.55 102.92 82.2073 104.416 83.522C105.912 84.8367 106.66 86.582 106.66 88.758C106.66 90.934 105.912 92.6907 104.416 94.028C102.92 95.3427 100.925 96 98.4319 96H90.7819V71.86H93.9439V81.55ZM93.9439 93.076H98.3299C100.007 93.076 101.288 92.7133 102.172 91.988C103.079 91.24 103.532 90.1633 103.532 88.758C103.532 87.398 103.079 86.344 102.172 85.596C101.288 84.848 100.007 84.474 98.3299 84.474H93.9439V93.076ZM110.094 96V71.86H113.256V96H110.094ZM130.447 96.408C126.979 96.408 124.033 95.2067 121.607 92.804C119.182 90.3787 117.969 87.4207 117.969 83.93C117.969 80.4393 119.182 77.4927 121.607 75.09C124.033 72.6647 126.979 71.452 130.447 71.452C132.737 71.452 134.811 71.9733 136.669 73.016C138.528 74.0587 140.013 75.4867 141.123 77.3L138.471 78.898C137.61 77.5153 136.488 76.4273 135.105 75.634C133.723 74.8407 132.17 74.444 130.447 74.444C127.818 74.444 125.608 75.362 123.817 77.198C122.049 79.034 121.165 81.278 121.165 83.93C121.165 86.582 122.049 88.826 123.817 90.662C125.608 92.498 127.818 93.416 130.447 93.416C132.17 93.416 133.723 93.0193 135.105 92.226C136.488 91.4327 137.61 90.3447 138.471 88.962L141.123 90.56C140.013 92.3733 138.528 93.8013 136.669 94.844C134.811 95.8867 132.737 96.408 130.447 96.408ZM150.197 96V74.852H142.683V71.86H160.805V74.852H153.291V96H150.197ZM159.409 96L170.085 71.86H172.703L183.413 96H180.115L176.987 88.962H165.733L162.673 96H159.409ZM171.343 76.144L166.991 86.106H175.729L171.343 76.144ZM186.805 96V71.86H194.727C196.903 71.86 198.649 72.4833 199.963 73.73C201.278 74.9767 201.935 76.484 201.935 78.252C201.935 80.4733 201.074 82.1167 199.351 83.182C202.139 84.202 203.533 86.1287 203.533 88.962C203.533 91.002 202.785 92.6907 201.289 94.028C199.816 95.3427 197.867 96 195.441 96H186.805ZM189.967 93.144H195.577C197.164 93.144 198.365 92.7813 199.181 92.056C200.02 91.308 200.439 90.3107 200.439 89.064C200.439 87.84 200.02 86.854 199.181 86.106C198.365 85.3353 197.175 84.95 195.611 84.95H189.967V93.144ZM189.967 82.23H194.727C195.997 82.23 196.994 81.89 197.719 81.21C198.467 80.5073 198.841 79.6007 198.841 78.49C198.841 77.4247 198.467 76.5293 197.719 75.804C196.971 75.0787 195.974 74.716 194.727 74.716H189.967V82.23ZM224.134 96L211.316 84.508V96H208.188V71.86H211.316V82.332L221.856 71.86H225.97L214.478 83.352L228.588 96H224.134ZM233.753 96H230.999V71.86H234.161V90.628L248.849 71.86H251.569V96H248.441V77.198L233.753 96Z" fill="black"/>
<path d="M250.601 223L250.601 247.14L242.679 247.14C240.503 247.14 238.758 246.517 237.443 245.27C236.128 244.023 235.471 242.516 235.471 240.748C235.471 238.527 236.332 236.883 238.055 235.818C235.267 234.798 233.873 232.871 233.873 230.038C233.873 227.998 234.621 226.309 236.117 224.972C237.59 223.657 239.54 223 241.965 223L250.601 223ZM247.439 225.856L241.829 225.856C240.242 225.856 239.041 226.219 238.225 226.944C237.386 227.692 236.967 228.689 236.967 229.936C236.967 231.16 237.386 232.146 238.225 232.894C239.041 233.665 240.231 234.05 241.795 234.05L247.439 234.05L247.439 225.856ZM247.439 236.77L242.679 236.77C241.41 236.77 240.412 237.11 239.687 237.79C238.939 238.493 238.565 239.399 238.565 240.51C238.565 241.575 238.939 242.471 239.687 243.196C240.435 243.921 241.432 244.284 242.679 244.284L247.439 244.284L247.439 236.77ZM226.056 237.45L221.568 237.45C219.075 237.45 217.08 236.793 215.584 235.478C214.088 234.163 213.34 232.418 213.34 230.242C213.34 228.066 214.088 226.309 215.584 224.972C217.08 223.657 219.075 223 221.568 223L229.218 223L229.218 247.14L226.056 247.14L226.056 237.45ZM226.056 225.924L221.67 225.924C219.993 225.924 218.712 226.287 217.828 227.012C216.921 227.76 216.468 228.837 216.468 230.242C216.468 231.602 216.921 232.656 217.828 233.404C218.712 234.152 219.993 234.526 221.67 234.526L226.056 234.526L226.056 225.924ZM209.906 223L209.906 247.14L206.744 247.14L206.744 223L209.906 223ZM189.553 222.592C193.021 222.592 195.967 223.793 198.393 226.196C200.818 228.621 202.031 231.579 202.031 235.07C202.031 238.561 200.818 241.507 198.393 243.91C195.967 246.335 193.021 247.548 189.553 247.548C187.263 247.548 185.189 247.027 183.331 245.984C181.472 244.941 179.987 243.513 178.877 241.7L181.529 240.102C182.39 241.485 183.512 242.573 184.895 243.366C186.277 244.159 187.83 244.556 189.553 244.556C192.182 244.556 194.392 243.638 196.183 241.802C197.951 239.966 198.835 237.722 198.835 235.07C198.835 232.418 197.951 230.174 196.183 228.338C194.392 226.502 192.182 225.584 189.553 225.584C187.83 225.584 186.277 225.981 184.895 226.774C183.512 227.567 182.39 228.655 181.529 230.038L178.877 228.44C179.987 226.627 181.472 225.199 183.331 224.156C185.189 223.113 187.263 222.592 189.553 222.592ZM169.803 223L169.803 244.148L177.317 244.148L177.317 247.14L159.195 247.14L159.195 244.148L166.709 244.148L166.709 223L169.803 223ZM160.591 223L149.915 247.14L147.297 247.14L136.587 223L139.885 223L143.013 230.038L154.267 230.038L157.327 223L160.591 223ZM148.657 242.856L153.009 232.894L144.271 232.894L148.657 242.856ZM133.195 223L133.195 247.14L125.273 247.14C123.097 247.14 121.351 246.517 120.037 245.27C118.722 244.023 118.065 242.516 118.065 240.748C118.065 238.527 118.926 236.883 120.649 235.818C117.861 234.798 116.467 232.871 116.467 230.038C116.467 227.998 117.215 226.309 118.711 224.972C120.184 223.657 122.133 223 124.559 223L133.195 223ZM130.033 225.856L124.423 225.856C122.836 225.856 121.635 226.219 120.819 226.944C119.98 227.692 119.561 228.689 119.561 229.936C119.561 231.16 119.98 232.146 120.819 232.894C121.635 233.665 122.825 234.05 124.389 234.05L130.033 234.05L130.033 225.856ZM130.033 236.77L125.273 236.77C124.003 236.77 123.006 237.11 122.281 237.79C121.533 238.493 121.159 239.399 121.159 240.51C121.159 241.575 121.533 242.471 122.281 243.196C123.029 243.921 124.026 244.284 125.273 244.284L130.033 244.284L130.033 236.77ZM95.8658 223L108.684 234.492L108.684 223L111.812 223L111.812 247.14L108.684 247.14L108.684 236.668L98.1438 247.14L94.0298 247.14L105.522 235.648L91.4118 223L95.8658 223ZM86.2473 223L89.0013 223L89.0013 247.14L85.8393 247.14L85.8393 228.372L71.1513 247.14L68.4313 247.14L68.4313 223L71.5593 223L71.5593 241.802L86.2473 223Z" fill="black"/>
<circle cx="160" cy="160" r="15" fill="black"/>
</svg>
