<svg width="295" height="41" viewBox="0 0 295 41" fill="none" xmlns="http://www.w3.org/2000/svg">
<path d="M0.17 40V0.949998H12.985C16.505 0.949998 19.3283 1.95833 21.455 3.975C23.5817 5.99167 24.645 8.43 24.645 11.29C24.645 14.8833 23.2517 17.5417 20.465 19.265C24.975 20.915 27.23 24.0317 27.23 28.615C27.23 31.915 26.02 34.6467 23.6 36.81C21.2167 38.9367 18.0633 40 14.14 40H0.17ZM5.285 35.38H14.36C16.9267 35.38 18.87 34.7933 20.19 33.62C21.5467 32.41 22.225 30.7967 22.225 28.78C22.225 26.8 21.5467 25.205 20.19 23.995C18.87 22.7483 16.945 22.125 14.415 22.125H5.285V35.38ZM5.285 17.725H12.985C15.0383 17.725 16.6517 17.175 17.825 16.075C19.035 14.9383 19.64 13.4717 19.64 11.675C19.64 9.95166 19.035 8.50333 17.825 7.33C16.615 6.15666 15.0017 5.57 12.985 5.57H5.285V17.725ZM39.8748 16.625H47.1348C51.1682 16.625 54.3948 17.6883 56.8148 19.815C59.2348 21.9417 60.4448 24.765 60.4448 28.285C60.4448 31.805 59.2348 34.6467 56.8148 36.81C54.3948 38.9367 51.1682 40 47.1348 40H34.7598V0.949998H39.8748V16.625ZM39.8748 35.27H46.9698C49.6832 35.27 51.7548 34.6833 53.1848 33.51C54.6515 32.3 55.3848 30.5583 55.3848 28.285C55.3848 26.085 54.6515 24.38 53.1848 23.17C51.7548 21.96 49.6832 21.355 46.9698 21.355H39.8748V35.27ZM65.9998 40V0.949998H71.1148V40H65.9998ZM98.9247 40.66C93.3146 40.66 88.548 38.7167 84.6246 34.83C80.7013 30.9067 78.7396 26.1217 78.7396 20.475C78.7396 14.8283 80.7013 10.0617 84.6246 6.175C88.548 2.25166 93.3146 0.289997 98.9247 0.289997C102.628 0.289997 105.983 1.13333 108.99 2.82C111.996 4.50666 114.398 6.81666 116.195 9.75L111.905 12.335C110.511 10.0983 108.696 8.33833 106.46 7.055C104.223 5.77167 101.711 5.13 98.9247 5.13C94.6713 5.13 91.0963 6.615 88.1996 9.585C85.3396 12.555 83.9096 16.185 83.9096 20.475C83.9096 24.765 85.3396 28.395 88.1996 31.365C91.0963 34.335 94.6713 35.82 98.9247 35.82C101.711 35.82 104.223 35.1783 106.46 33.895C108.696 32.6117 110.511 30.8517 111.905 28.615L116.195 31.2C114.398 34.1333 111.996 36.4433 108.99 38.13C105.983 39.8167 102.628 40.66 98.9247 40.66ZM130.873 40V5.79H118.718V0.949998H148.033V5.79H135.878V40H130.873ZM145.774 40L163.044 0.949998H167.279L184.604 40H179.269L174.209 28.615H156.004L151.054 40H145.774ZM165.079 7.88L158.039 23.995H172.174L165.079 7.88ZM190.092 40V0.949998H202.907C206.427 0.949998 209.25 1.95833 211.377 3.975C213.504 5.99167 214.567 8.43 214.567 11.29C214.567 14.8833 213.174 17.5417 210.387 19.265C214.897 20.915 217.152 24.0317 217.152 28.615C217.152 31.915 215.942 34.6467 213.522 36.81C211.139 38.9367 207.985 40 204.062 40H190.092ZM195.207 35.38H204.282C206.849 35.38 208.792 34.7933 210.112 33.62C211.469 32.41 212.147 30.7967 212.147 28.78C212.147 26.8 211.469 25.205 210.112 23.995C208.792 22.7483 206.867 22.125 204.337 22.125H195.207V35.38ZM195.207 17.725H202.907C204.96 17.725 206.574 17.175 207.747 16.075C208.957 14.9383 209.562 13.4717 209.562 11.675C209.562 9.95166 208.957 8.50333 207.747 7.33C206.537 6.15666 204.924 5.57 202.907 5.57H195.207V17.725ZM250.477 40L229.742 21.41V40H224.682V0.949998H229.742V17.89L246.792 0.949998H253.447L234.857 19.54L257.682 40H250.477ZM266.036 40H261.581V0.949998H266.696V31.31L290.456 0.949998H294.856V40H289.796V9.585L266.036 40Z" fill="black"/>
</svg>
