<svg width="320" height="320" viewBox="0 0 320 320" fill="none" xmlns="http://www.w3.org/2000/svg">
<circle cx="160" cy="160" r="157.5" fill="#BCBCBC" stroke="black" stroke-width="5"/>
<mask id="mask0_865_37" style="mask-type:alpha" maskUnits="userSpaceOnUse" x="1" y="3" width="316" height="313">
<path d="M1 159.5C1 245.933 71.739 316 159 316V316C246.261 316 317 245.933 317 159.5V159.5C317 73.0674 246.261 2.99999 159 2.99999V2.99999C71.739 2.99999 1 73.0674 1 159.5V159.5Z" fill="#D9D9D9"/>
</mask>
<g mask="url(#mask0_865_37)">
<path fill-rule="evenodd" clip-rule="evenodd" d="M158.996 -71.5851C285.688 -71.5851 388.523 32.4302 388.523 160.902C388.523 289.373 285.688 393.388 158.996 393.388C32.3039 393.388 -70.5314 289.373 -70.5314 160.902C-70.5314 32.4302 32.3039 -71.5851 158.996 -71.5851ZM158.996 -75.0629C287.699 -75.0629 392.034 30.5821 392.034 160.902C392.034 291.221 287.699 396.866 158.996 396.866C30.2923 396.866 -74.0425 291.221 -74.0425 160.902C-74.0425 30.5821 30.2923 -75.0629 158.996 -75.0629Z" fill="white"/>
<path d="M160.037 137.133C172.683 137.133 182.965 147.337 182.965 159.963C182.965 172.588 172.683 182.792 160.037 182.792C147.392 182.792 137.109 172.588 137.109 159.963C137.109 147.337 147.392 137.133 160.037 137.133ZM185.476 159.963C185.476 145.988 174.089 134.656 160.037 134.656C145.985 134.656 134.598 145.988 134.598 159.963C134.598 173.937 145.985 185.27 160.037 185.27C174.089 185.27 185.476 173.937 185.476 159.963Z" fill="white" stroke="white"/>
<path d="M160.079 111.657C187.177 111.657 209.153 133.417 209.153 160.269C209.153 187.122 187.177 208.882 160.079 208.882C132.981 208.882 111.006 187.122 111.006 160.269C111.006 133.417 132.981 111.657 160.079 111.657ZM211.664 160.269C211.664 132.057 188.573 109.179 160.079 109.179C131.585 109.179 108.495 132.057 108.495 160.269C108.495 188.481 131.585 211.359 160.079 211.359C188.573 211.359 211.664 188.481 211.664 160.269Z" fill="white" stroke="white"/>
<path d="M160.121 85.7186C201.659 85.7186 235.34 119.073 235.34 160.228C235.34 201.383 201.659 234.738 160.121 234.738C118.583 234.738 84.9022 201.383 84.9022 160.228C84.9022 119.073 118.583 85.7186 160.121 85.7186ZM237.851 160.228C237.851 117.714 203.055 83.2408 160.121 83.2408C117.188 83.2408 82.3911 117.714 82.3911 160.228C82.3911 202.743 117.188 237.216 160.121 237.216C203.055 237.216 237.851 202.743 237.851 160.228Z" fill="white" stroke="white"/>
<path d="M160.164 59.7813C216.141 59.7813 261.528 104.731 261.528 160.188C261.528 215.646 216.141 260.595 160.164 260.595C104.186 260.595 58.7992 215.646 58.7992 160.188C58.7992 104.731 104.186 59.7813 160.164 59.7813ZM264.04 160.188C264.04 103.371 217.537 57.3035 160.164 57.3035C102.79 57.3035 56.2881 103.371 56.2881 160.188C56.2881 217.006 102.79 263.073 160.164 263.073C217.537 263.073 264.04 217.006 264.04 160.188Z" fill="white" stroke="white"/>
<path d="M160.205 33.8421C230.623 33.8421 287.716 90.386 287.716 160.147C287.716 229.907 230.623 286.451 160.205 286.451C89.788 286.451 32.6952 229.907 32.6952 160.147C32.6952 90.386 89.788 33.8421 160.205 33.8421ZM290.227 160.147C290.227 89.0266 232.019 31.3643 160.205 31.3643C88.3921 31.3643 30.1841 89.0266 30.1841 160.147C30.1841 231.266 88.3921 288.929 160.205 288.929C232.019 288.929 290.227 231.266 290.227 160.147Z" fill="white" stroke="white"/>
<path d="M160.247 7.90289C245.105 7.90289 313.903 76.0415 313.903 160.105C313.903 244.168 245.105 312.306 160.247 312.306C75.3902 312.306 6.59168 244.168 6.59168 160.105C6.59168 76.0415 75.3902 7.90289 160.247 7.90289ZM316.414 160.105C316.414 74.682 246.501 5.42511 160.247 5.42511C73.9944 5.42511 4.08057 74.682 4.08057 160.105C4.08057 245.527 73.9944 314.784 160.247 314.784C246.501 314.784 316.414 245.527 316.414 160.105Z" fill="white" stroke="white"/>
</g>
<circle cx="160" cy="160" r="15" fill="black"/>
<path d="M92.0463 89.064V71.86H108.91V96H105.782V74.852H95.2083V89.54C95.2083 91.9427 94.7323 93.688 93.7803 94.776C92.8283 95.864 91.5476 96.408 89.9383 96.408C89.145 96.408 88.5103 96.3627 88.0343 96.272V93.382C88.329 93.45 88.839 93.484 89.5643 93.484C90.4483 93.484 91.083 93.1667 91.4683 92.532C91.8536 91.8973 92.0463 90.7413 92.0463 89.064ZM115.286 96V71.86H129.362V74.852H118.448V82.162H127.322V85.154H118.448V93.008H129.362V96H115.286ZM150.158 96L137.34 84.508V96H134.212V71.86H137.34V82.332L147.88 71.86H151.994L140.502 83.352L154.612 96H150.158ZM175.45 93.008H178.476V101.032H175.518V96H157.022V71.86H160.184V93.008H172.322V71.86H175.45V93.008ZM185.641 96H182.887V71.86H186.049V90.628L200.737 71.86H203.457V96H200.329V77.198L185.641 96ZM212.636 96H209.882V71.86H213.044V90.628L227.732 71.86H230.452V96H227.324V77.198L212.636 96Z" fill="black"/>
<path d="M227.954 229.936L227.954 247.14L211.09 247.14L211.09 223L214.218 223L214.218 244.148L224.792 244.148L224.792 229.46C224.792 227.057 225.268 225.312 226.22 224.224C227.172 223.136 228.452 222.592 230.062 222.592C230.855 222.592 231.49 222.637 231.966 222.728L231.966 225.618C231.671 225.55 231.161 225.516 230.436 225.516C229.552 225.516 228.917 225.833 228.532 226.468C228.146 227.103 227.954 228.259 227.954 229.936ZM204.714 223L204.714 247.14L190.638 247.14L190.638 244.148L201.552 244.148L201.552 236.838L192.678 236.838L192.678 233.846L201.552 233.846L201.552 225.992L190.638 225.992L190.638 223L204.714 223ZM169.842 223L182.66 234.492L182.66 223L185.788 223L185.788 247.14L182.66 247.14L182.66 236.668L172.12 247.14L168.006 247.14L179.498 235.648L165.388 223L169.842 223ZM144.55 225.992L141.524 225.992L141.524 217.968L144.482 217.968L144.482 223L162.978 223L162.978 247.14L159.816 247.14L159.816 225.992L147.678 225.992L147.678 247.14L144.55 247.14L144.55 225.992ZM134.359 223L137.113 223L137.113 247.14L133.951 247.14L133.951 228.372L119.263 247.14L116.543 247.14L116.543 223L119.671 223L119.671 241.802L134.359 223ZM107.364 223L110.118 223L110.118 247.14L106.956 247.14L106.956 228.372L92.2685 247.14L89.5485 247.14L89.5485 223L92.6765 223L92.6765 241.802L107.364 223Z" fill="black"/>
<circle cx="234" cy="176" r="14" fill="#BCBCBC" stroke="white" stroke-width="4"/>
<circle cx="63" cy="243" r="14" fill="#BCBCBC" stroke="white" stroke-width="4"/>
<circle cx="129" cy="123" r="14" fill="#BCBCBC" stroke="white" stroke-width="4"/>
<circle cx="208" cy="41" r="14" fill="#BCBCBC" stroke="white" stroke-width="4"/>
</svg>
