<svg width="450" height="450" viewBox="0 0 450 450" fill="none" xmlns="http://www.w3.org/2000/svg">
<rect width="450" height="450" fill="white"/>
<mask id="mask0_513_2" style="mask-type:alpha" maskUnits="userSpaceOnUse" x="0" y="0" width="450" height="450">
<rect width="450" height="450" fill="white"/>
</mask>
<g mask="url(#mask0_513_2)">
<path d="M0 225L194 225" stroke="black" stroke-width="6"/>
<path d="M225 25L225 196" stroke="black" stroke-width="6"/>
<path d="M239.5 37.925L238.9 38.375C234.1 36.8 228.475 33.35 225.4 30.425L227.05 58.175L221.95 58.175L223.75 30.425C220.6 33.425 214.825 36.95 210.25 38.375L209.65 37.925C216.4 26.825 223.525 2.29999 224.35 -9.62501L224.65 -9.62501C225.475 2.075 232.525 26.375 239.5 37.925Z" fill="black"/>
<path d="M425 225H254" stroke="black" stroke-width="6"/>
<path d="M412.075 239.5L411.625 238.9C413.2 234.1 416.65 228.475 419.575 225.4L391.825 227.05V221.95L419.575 223.75C416.575 220.6 413.05 214.825 411.625 210.25L412.075 209.65C423.175 216.4 447.7 223.525 459.625 224.35V224.65C447.925 225.475 423.625 232.525 412.075 239.5Z" fill="black"/>
<path d="M225 426L225 255" stroke="black" stroke-width="6"/>
<path d="M210.5 413.075L211.1 412.625C215.9 414.2 221.525 417.65 224.6 420.575L222.95 392.825L228.05 392.825L226.25 420.575C229.4 417.575 235.175 414.05 239.75 412.625L240.35 413.075C233.6 424.175 226.475 448.7 225.65 460.625L225.35 460.625C224.525 448.925 217.475 424.625 210.5 413.075Z" fill="black"/>
</g>
</svg>
