<svg width="792" height="450" viewBox="0 0 792 450" fill="none" xmlns="http://www.w3.org/2000/svg">
<mask id="mask0_571_244" style="mask-type:alpha" maskUnits="userSpaceOnUse" x="0" y="0" width="792" height="450">
<path d="M2 2H790V448H2V2Z" fill="black" stroke="black" stroke-width="4"/>
</mask>
<g mask="url(#mask0_571_244)">
<path d="M243.129 390.2L244.485 392.005L246.418 390.84C309.789 352.641 408.313 314.149 507.204 284.062C606.093 253.976 705.054 232.384 769.24 227.866L771.565 227.703V225.373V222.073V219.74L769.237 219.579C703.811 215.061 603.61 193.262 504.411 163.279C405.204 133.293 307.308 95.2147 246.425 58.2596L244.489 57.0847L243.129 58.895L238.171 65.494L237.401 66.5179L237.783 67.7405C252.929 116.279 289.359 176.863 321.664 212.574L22.1615 193.182L19.5 193.01V195.677V251.769V254.422L22.1481 254.264L321.703 236.486C290.196 271.363 254.506 330.481 237.794 381.319L237.387 382.558L238.171 383.601L243.129 390.2Z" fill="black" stroke="white" stroke-width="5"/>
</g>
</svg>
