<svg width="114" height="361" viewBox="0 0 114 361" fill="none" xmlns="http://www.w3.org/2000/svg">
<path fill-rule="evenodd" clip-rule="evenodd" d="M79.117 82.6415L79.112 82.6235C75.3748 69.2719 71.3259 59.8092 67.1581 53.8099C62.9965 47.8192 59.4012 46.1801 56.5281 46.1801C53.6503 46.1801 50.0419 47.8244 45.8558 53.821C41.6653 59.824 37.5837 69.2896 33.8014 82.6416C26.3808 108.845 22.6013 141.328 22.6013 180.223C22.6013 219.435 26.381 252.073 33.7988 278.27C37.5784 291.456 41.655 300.796 45.8368 306.717C50.0088 312.624 53.6181 314.267 56.5281 314.267C59.4335 314.267 63.0296 312.629 67.177 306.729C71.337 300.81 75.3817 291.47 79.1169 278.28L79.1195 278.271L79.1221 278.262C86.6291 252.07 90.4549 219.436 90.4549 180.223C90.4549 141.333 86.6301 108.855 79.1221 82.6594L79.117 82.6415ZM28.0286 279.915C20.4104 253.014 16.6013 219.784 16.6013 180.223C16.6013 140.98 20.4104 107.907 28.0286 81.0063C35.7386 53.7888 45.2384 40.1801 56.5281 40.1801C67.8177 40.1801 77.2717 53.7888 84.8899 81.0063C92.5999 107.907 96.4549 140.98 96.4549 180.223C96.4549 219.784 92.5999 253.014 84.8899 279.915C77.2717 306.816 67.8177 320.267 56.5281 320.267C45.2384 320.267 35.7386 306.816 28.0286 279.915ZM14.8335 305.805L14.8314 305.797C4.89535 271.537 0 229.634 0 180.223C0 130.812 4.89535 88.9094 14.8314 54.6494L14.8335 54.6422L14.8356 54.6349C19.8227 37.5999 25.5015 24.2782 32.0605 15.0933C38.63 5.89368 46.7433 0 56.5281 0C66.3165 0 74.4198 5.89765 80.9676 15.1022C87.5026 24.2888 93.145 37.6105 98.085 54.6423C108.115 88.9065 113.056 130.812 113.056 180.223C113.056 229.634 108.115 271.54 98.0851 305.804C93.1451 322.836 87.5027 336.158 80.9676 345.344C74.4198 354.549 66.3165 360.447 56.5281 360.447C46.7433 360.447 38.63 354.553 32.0605 345.353C25.5015 336.168 19.8227 322.847 14.8356 305.812L14.8335 305.805ZM92.3245 304.126C102.146 270.579 107.056 229.278 107.056 180.223C107.056 131.169 102.146 89.8678 92.3245 56.3207C82.5952 22.7736 70.6631 6 56.5281 6C42.3931 6 30.415 22.7736 20.5939 56.3207C10.8647 89.8678 6 131.169 6 180.223C6 229.278 10.8647 270.579 20.5939 304.126C30.415 337.673 42.3931 354.447 56.5281 354.447C70.6631 354.447 82.5952 337.673 92.3245 304.126Z" fill="black"/>
</svg>
