<svg width="320" height="320" viewBox="0 0 320 320" fill="none" xmlns="http://www.w3.org/2000/svg">
<circle cx="160" cy="160" r="157.5" fill="#BCBCBC" stroke="black" stroke-width="5"/>
<path d="M95.8641 96V74.852H83.0461V96H79.9861V71.86H98.9581V96H95.8641ZM120.109 74.036C121.65 75.4867 122.421 77.3227 122.421 79.544C122.421 81.7653 121.65 83.6013 120.109 85.052C118.59 86.48 116.595 87.194 114.125 87.194H109.909V96H106.747V71.86H114.125C116.595 71.86 118.59 72.5853 120.109 74.036ZM117.899 82.944C118.828 82.06 119.293 80.9267 119.293 79.544C119.293 78.1613 118.828 77.028 117.899 76.144C116.992 75.26 115.734 74.818 114.125 74.818H109.909V84.27H114.125C115.734 84.27 116.992 83.828 117.899 82.944ZM138.84 93.416C141.492 93.416 143.702 92.498 145.47 90.662C147.261 88.826 148.156 86.582 148.156 83.93C148.156 81.278 147.261 79.034 145.47 77.198C143.702 75.362 141.492 74.444 138.84 74.444C136.211 74.444 134.001 75.362 132.21 77.198C130.442 79.034 129.558 81.278 129.558 83.93C129.558 86.582 130.442 88.826 132.21 90.662C134.001 92.498 136.211 93.416 138.84 93.416ZM138.84 96.408C135.372 96.408 132.426 95.2067 130 92.804C127.575 90.3787 126.362 87.4207 126.362 83.93C126.362 80.4393 127.575 77.4927 130 75.09C132.426 72.6647 135.372 71.452 138.84 71.452C142.331 71.452 145.278 72.6647 147.68 75.09C150.106 77.4927 151.318 80.4393 151.318 83.93C151.318 87.4207 150.106 90.3787 147.68 92.804C145.278 95.2067 142.331 96.408 138.84 96.408ZM157.445 96V71.86H171.521V74.852H160.607V82.162H169.481V85.154H160.607V93.008H171.521V96H157.445ZM193.677 96L180.859 84.508V96H177.731V71.86H180.859V82.332L191.399 71.86H195.513L184.021 83.352L198.131 96H193.677ZM206.797 96V74.852H199.283V71.86H217.405V74.852H209.891V96H206.797ZM225.714 81.55H230.202C232.696 81.55 234.69 82.2073 236.186 83.522C237.682 84.8367 238.43 86.582 238.43 88.758C238.43 90.934 237.682 92.6907 236.186 94.028C234.69 95.3427 232.696 96 230.202 96H222.552V71.86H225.714V81.55ZM225.714 93.076H230.1C231.778 93.076 233.058 92.7133 233.942 91.988C234.849 91.24 235.302 90.1633 235.302 88.758C235.302 87.398 234.849 86.344 233.942 85.596C233.058 84.848 231.778 84.474 230.1 84.474H225.714V93.076ZM241.864 96V71.86H245.026V96H241.864Z" fill="black"/>
<path d="M224.136 223L224.136 244.148L236.954 244.148L236.954 223L240.014 223L240.014 247.14L221.042 247.14L221.042 223L224.136 223ZM199.891 244.964C198.35 243.513 197.579 241.677 197.579 239.456C197.579 237.235 198.35 235.399 199.891 233.948C201.41 232.52 203.405 231.806 205.875 231.806L210.091 231.806L210.091 223L213.253 223L213.253 247.14L205.875 247.14C203.405 247.14 201.41 246.415 199.891 244.964ZM202.101 236.056C201.172 236.94 200.707 238.073 200.707 239.456C200.707 240.839 201.172 241.972 202.101 242.856C203.008 243.74 204.266 244.182 205.875 244.182L210.091 244.182L210.091 234.73L205.875 234.73C204.266 234.73 203.008 235.172 202.101 236.056ZM181.16 225.584C178.508 225.584 176.298 226.502 174.53 228.338C172.739 230.174 171.844 232.418 171.844 235.07C171.844 237.722 172.739 239.966 174.53 241.802C176.298 243.638 178.508 244.556 181.16 244.556C183.789 244.556 185.999 243.638 187.79 241.802C189.558 239.966 190.442 237.722 190.442 235.07C190.442 232.418 189.558 230.174 187.79 228.338C185.999 226.502 183.789 225.584 181.16 225.584ZM181.16 222.592C184.628 222.592 187.574 223.793 190 226.196C192.425 228.621 193.638 231.579 193.638 235.07C193.638 238.561 192.425 241.507 190 243.91C187.574 246.335 184.628 247.548 181.16 247.548C177.669 247.548 174.722 246.335 172.32 243.91C169.894 241.507 168.682 238.561 168.682 235.07C168.682 231.579 169.894 228.621 172.32 226.196C174.722 223.793 177.669 222.592 181.16 222.592ZM162.555 223L162.555 247.14L148.479 247.14L148.479 244.148L159.393 244.148L159.393 236.838L150.519 236.838L150.519 233.846L159.393 233.846L159.393 225.992L148.479 225.992L148.479 223L162.555 223ZM126.323 223L139.141 234.492L139.141 223L142.269 223L142.269 247.14L139.141 247.14L139.141 236.668L128.601 247.14L124.487 247.14L135.979 235.648L121.869 223L126.323 223ZM113.203 223L113.203 244.148L120.717 244.148L120.717 247.14L102.595 247.14L102.595 244.148L110.109 244.148L110.109 223L113.203 223ZM94.2856 237.45L89.7976 237.45C87.3043 237.45 85.3096 236.793 83.8136 235.478C82.3176 234.163 81.5696 232.418 81.5696 230.242C81.5696 228.066 82.3176 226.309 83.8136 224.972C85.3096 223.657 87.3043 223 89.7976 223L97.4476 223L97.4476 247.14L94.2856 247.14L94.2856 237.45ZM94.2856 225.924L89.8996 225.924C88.2223 225.924 86.9416 226.287 86.0576 227.012C85.151 227.76 84.6976 228.837 84.6976 230.242C84.6976 231.602 85.151 232.656 86.0576 233.404C86.9416 234.152 88.2223 234.526 89.8996 234.526L94.2856 234.526L94.2856 225.924ZM78.1356 223L78.1356 247.14L74.9736 247.14L74.9736 223L78.1356 223Z" fill="black"/>
<circle cx="160" cy="160" r="15" fill="black"/>
<path d="M196.235 294.23L160 159" stroke="black" stroke-width="3.5"/>
<circle cx="180.412" cy="236.179" r="13.25" transform="rotate(75 180.412 236.179)" fill="white" stroke="black" stroke-width="3.5"/>
<path d="M122 19L158.235 154.23" stroke="black" stroke-width="3.5"/>
<circle cx="139.588" cy="83.8217" r="13.25" transform="rotate(-105 139.588 83.8217)" fill="white" stroke="black" stroke-width="3.5"/>
<path d="M296 161H160" stroke="black" stroke-width="3.5"/>
<circle cx="238.866" cy="160" r="13.25" fill="white" stroke="black" stroke-width="3.5"/>
<path d="M19 159L160 159" stroke="black" stroke-width="3.5"/>
<circle cx="81.1343" cy="160" r="13.25" transform="rotate(-180 81.1343 160)" fill="white" stroke="black" stroke-width="3.5"/>
<path d="M287.803 169.7L287.545 169.356C288.448 166.604 290.426 163.379 292.103 161.616L276.193 162.562V159.638L292.103 160.67C290.383 158.864 288.362 155.553 287.545 152.93L287.803 152.586C294.167 156.456 308.228 160.541 315.065 161.014V161.186C308.357 161.659 294.425 165.701 287.803 169.7Z" fill="black"/>
<path d="M134.851 32.255L134.585 32.5932C131.693 32.4333 128.066 31.3573 125.929 30.1938L130.961 45.3168L128.136 46.0736L125.015 30.4386C123.716 32.5674 121.041 35.3765 118.719 36.8446L118.32 36.6844C120.411 29.5356 120.717 14.8965 119.405 8.17L119.571 8.12549C121.764 14.4825 129.274 26.8936 134.851 32.255Z" fill="black"/>
<path d="M185.965 287.867L186.23 287.528C189.122 287.688 192.749 288.764 194.886 289.928L189.855 274.805L192.679 274.048L195.8 289.683C197.099 287.554 199.774 284.745 202.097 283.277L202.496 283.437C200.405 290.586 200.098 305.225 201.411 311.952L201.245 311.996C199.052 305.639 191.542 293.228 185.965 287.867Z" fill="black"/>
<path d="M29.197 150.3L29.455 150.644C28.552 153.396 26.574 156.621 24.897 158.384L40.807 157.438L40.807 160.362L24.897 159.33C26.617 161.136 28.638 164.447 29.455 167.07L29.197 167.414C22.833 163.544 8.772 159.459 1.935 158.986L1.935 158.814C8.643 158.341 22.575 154.299 29.197 150.3Z" fill="black"/>
</svg>
