<svg width="450" height="450" viewBox="0 0 450 450" fill="none" xmlns="http://www.w3.org/2000/svg">
<mask id="mask0_487_2" style="mask-type:alpha" maskUnits="userSpaceOnUse" x="0" y="0" width="450" height="450">
<path d="M0 225C0 349.264 100.736 450 225 450V450C349.264 450 450 349.264 450 225V225C450 100.736 349.264 0 225 0V0C100.736 0 0 100.736 0 225V225Z" fill="#D9D9D9"/>
</mask>
<g mask="url(#mask0_487_2)">
<path fill-rule="evenodd" clip-rule="evenodd" d="M224.996 -107.231C405.411 -107.231 551.854 42.3122 551.854 227.016C551.854 411.719 405.411 561.262 224.996 561.262C44.5799 561.262 -101.863 411.719 -101.863 227.016C-101.863 42.3122 44.5799 -107.231 224.996 -107.231ZM224.996 -112.231C408.276 -112.231 556.854 39.6552 556.854 227.016C556.854 414.376 408.276 566.262 224.996 566.262C41.7153 566.262 -106.863 414.376 -106.863 227.016C-106.863 39.6552 41.7153 -112.231 224.996 -112.231Z" fill="black"/>
<path fill-rule="evenodd" clip-rule="evenodd" d="M226.48 193.563C244.098 193.563 258.419 207.915 258.419 225.666C258.419 243.417 244.098 257.769 226.48 257.769C208.862 257.769 194.542 243.417 194.542 225.666C194.542 207.915 208.862 193.563 226.48 193.563ZM226.48 188.563C246.881 188.563 263.419 205.175 263.419 225.666C263.419 246.157 246.881 262.769 226.48 262.769C206.079 262.769 189.542 246.157 189.542 225.666C189.542 205.175 206.079 188.563 226.48 188.563Z" fill="black"/>
<path fill-rule="evenodd" clip-rule="evenodd" d="M226.539 156.936C264.741 156.936 295.71 187.905 295.71 226.107C295.71 264.31 264.741 295.279 226.539 295.279C188.337 295.279 157.368 264.31 157.368 226.107C157.368 187.905 188.337 156.936 226.539 156.936ZM226.539 151.936C267.503 151.936 300.71 185.144 300.71 226.107C300.71 267.071 267.503 300.279 226.539 300.279C185.576 300.279 152.368 267.071 152.368 226.107C152.368 185.144 185.576 151.936 226.539 151.936Z" fill="black"/>
<path fill-rule="evenodd" clip-rule="evenodd" d="M226.599 119.644C285.364 119.644 333.003 167.283 333.003 226.048C333.003 284.813 285.364 332.451 226.599 332.451C167.834 332.451 120.195 284.813 120.195 226.048C120.195 167.283 167.834 119.644 226.599 119.644ZM226.599 114.644C288.125 114.644 338.003 164.521 338.003 226.048C338.003 287.574 288.125 337.451 226.599 337.451C165.072 337.451 115.195 287.574 115.195 226.048C115.195 164.521 165.072 114.644 226.599 114.644Z" fill="black"/>
<path fill-rule="evenodd" clip-rule="evenodd" d="M226.659 82.352C305.987 82.352 370.295 146.66 370.295 225.988C370.295 305.317 305.987 369.625 226.659 369.625C147.331 369.625 83.0226 305.317 83.0226 225.988C83.0226 146.66 147.331 82.352 226.659 82.352ZM226.659 77.352C308.749 77.352 375.295 143.899 375.295 225.988C375.295 308.078 308.749 374.625 226.659 374.625C144.569 374.625 78.0226 308.078 78.0226 225.988C78.0226 143.899 144.569 77.352 226.659 77.352Z" fill="black"/>
<path fill-rule="evenodd" clip-rule="evenodd" d="M226.718 45.0599C326.609 45.0599 407.587 126.038 407.587 225.929C407.587 325.82 326.609 406.798 226.718 406.798C126.827 406.798 45.849 325.82 45.849 225.929C45.849 126.038 126.827 45.0599 226.718 45.0599ZM226.718 40.0599C329.371 40.0599 412.587 123.276 412.587 225.929C412.587 328.581 329.371 411.798 226.718 411.798C124.065 411.798 40.849 328.581 40.849 225.929C40.849 123.276 124.065 40.0599 226.718 40.0599Z" fill="black"/>
<path fill-rule="evenodd" clip-rule="evenodd" d="M226.778 7.76758C347.232 7.76758 444.88 105.415 444.88 225.869C444.88 346.323 347.232 443.971 226.778 443.971C106.324 443.971 8.67651 346.323 8.67651 225.869C8.67651 105.415 106.324 7.76758 226.778 7.76758ZM226.778 2.76758C349.994 2.76758 449.88 102.654 449.88 225.869C449.88 349.085 349.994 448.971 226.778 448.971C103.562 448.971 3.67651 349.085 3.67651 225.869C3.67651 102.654 103.562 2.76758 226.778 2.76758Z" fill="black"/>
<path fill-rule="evenodd" clip-rule="evenodd" d="M224.878 -29.9814C364.549 -29.9814 477.925 85.2778 477.925 227.643C477.925 370.009 364.549 485.268 224.878 485.268C85.206 485.268 -28.1697 370.009 -28.1697 227.643C-28.1697 85.2778 85.206 -29.9814 224.878 -29.9814ZM224.878 -34.9814C367.393 -34.9814 482.925 82.5996 482.925 227.643C482.925 372.687 367.393 490.268 224.878 490.268C82.362 490.268 -33.1697 372.687 -33.1697 227.643C-33.1697 82.5996 82.362 -34.9814 224.878 -34.9814Z" fill="black"/>
<path fill-rule="evenodd" clip-rule="evenodd" d="M224.937 -67.6015C384.991 -67.6015 514.89 64.474 514.89 227.583C514.89 390.693 384.991 522.768 224.937 522.768C64.8832 522.768 -65.0156 390.693 -65.0156 227.583C-65.0156 64.474 64.8832 -67.6015 224.937 -67.6015ZM224.937 -72.6015C387.835 -72.6015 519.89 61.7958 519.89 227.583C519.89 393.371 387.835 527.768 224.937 527.768C62.0392 527.768 -70.0156 393.371 -70.0156 227.583C-70.0156 61.7958 62.0392 -72.6015 224.937 -72.6015Z" fill="black"/>
</g>
</svg>
