<svg width="735" height="930" viewBox="0 0 735 930" fill="none" xmlns="http://www.w3.org/2000/svg">
<rect width="735" height="900" fill="black"/>
<rect width="735" height="930" fill="black"/>
<mask id="mask0_610_94" style="mask-type:alpha" maskUnits="userSpaceOnUse" x="0" y="0" width="735" height="930">
<rect width="735" height="930" fill="black"/>
</mask>
<g mask="url(#mask0_610_94)">
<path d="M677 462C677 290.792 538.208 152 367 152C195.792 152 57 290.792 57 462" stroke="white" stroke-width="4"/>
<path d="M780 467C780 240.563 596.437 57 370 57C143.563 57 -40 240.563 -40 467" stroke="white" stroke-width="4"/>
<path d="M880 462C880 180.335 651.665 -48 370 -48C88.3348 -48 -140 180.335 -140 462" stroke="white" stroke-width="4"/>
<circle cx="367" cy="463" r="107.5" fill="black" stroke="white" stroke-width="5"/>
<path d="M580 463C580 347.02 485.98 253 370 253C254.02 253 160 347.02 160 463" stroke="white" stroke-width="5"/>
<mask id="path-9-outside-1_610_94" maskUnits="userSpaceOnUse" x="118" y="441" width="76" height="44" fill="black">
<rect fill="white" x="118" y="441" width="76" height="44"/>
<path d="M143.47 477L143.05 476.44C144.52 471.96 147.74 466.71 150.47 463.84L124.57 465.38V460.62L150.47 462.3C147.67 459.36 144.38 453.97 143.05 449.7L143.47 449.14C153.83 455.44 176.72 462.09 187.85 462.86V463.14C176.93 463.91 154.25 470.49 143.47 477Z"/>
</mask>
<path d="M143.47 477L143.05 476.44C144.52 471.96 147.74 466.71 150.47 463.84L124.57 465.38V460.62L150.47 462.3C147.67 459.36 144.38 453.97 143.05 449.7L143.47 449.14C153.83 455.44 176.72 462.09 187.85 462.86V463.14C176.93 463.91 154.25 470.49 143.47 477Z" fill="white"/>
<path d="M143.47 477L138.67 480.6L141.926 484.942L146.572 482.136L143.47 477ZM143.05 476.44L137.349 474.569L136.375 477.539L138.25 480.04L143.05 476.44ZM150.47 463.84L154.817 467.975L165.308 456.947L150.114 457.851L150.47 463.84ZM124.57 465.38H118.57V471.747L124.926 471.369L124.57 465.38ZM124.57 460.62L124.958 454.633L118.57 454.218V460.62H124.57ZM150.47 462.3L150.082 468.287L165.405 469.281L154.815 458.162L150.47 462.3ZM143.05 449.7L138.25 446.1L136.409 448.555L137.321 451.484L143.05 449.7ZM143.47 449.14L146.587 444.013L141.936 441.185L138.67 445.54L143.47 449.14ZM187.85 462.86H193.85V457.261L188.264 456.874L187.85 462.86ZM187.85 463.14L188.272 469.125L193.85 468.732V463.14H187.85ZM148.27 473.4L147.85 472.84L138.25 480.04L138.67 480.6L148.27 473.4ZM148.751 478.311C149.946 474.667 152.708 470.193 154.817 467.975L146.123 459.705C142.772 463.227 139.094 469.253 137.349 474.569L148.751 478.311ZM150.114 457.851L124.214 459.391L124.926 471.369L150.826 469.829L150.114 457.851ZM130.57 465.38V460.62H118.57V465.38H130.57ZM124.182 466.607L150.082 468.287L150.858 456.313L124.958 454.633L124.182 466.607ZM154.815 458.162C152.619 455.857 149.821 451.263 148.779 447.916L137.321 451.484C138.939 456.677 142.721 462.863 146.125 466.438L154.815 458.162ZM147.85 453.3L148.27 452.74L138.67 445.54L138.25 446.1L147.85 453.3ZM140.353 454.267C146.183 457.812 155.07 461.223 163.632 463.816C172.214 466.415 181.215 468.415 187.436 468.846L188.264 456.874C183.355 456.535 175.346 454.825 167.11 452.331C158.855 449.832 151.117 446.768 146.587 444.013L140.353 454.267ZM181.85 462.86V463.14H193.85V462.86H181.85ZM187.428 457.155C181.312 457.586 172.416 459.57 163.858 462.178C155.307 464.785 146.389 468.228 140.368 471.864L146.572 482.136C151.331 479.262 159.143 476.16 167.357 473.657C175.564 471.155 183.468 469.464 188.272 469.125L187.428 457.155Z" fill="black" mask="url(#path-9-outside-1_610_94)"/>
<mask id="path-11-outside-2_610_94" maskUnits="userSpaceOnUse" x="346" y="210" width="44" height="76" fill="black">
<rect fill="white" x="346" y="210" width="44" height="76"/>
<path d="M354 235.47L354.56 235.05C359.04 236.52 364.29 239.74 367.16 242.47L365.62 216.57L370.38 216.57L368.7 242.47C371.64 239.67 377.03 236.38 381.3 235.05L381.86 235.47C375.56 245.83 368.91 268.72 368.14 279.85L367.86 279.85C367.09 268.93 360.51 246.25 354 235.47Z"/>
</mask>
<path d="M354 235.47L354.56 235.05C359.04 236.52 364.29 239.74 367.16 242.47L365.62 216.57L370.38 216.57L368.7 242.47C371.64 239.67 377.03 236.38 381.3 235.05L381.86 235.47C375.56 245.83 368.91 268.72 368.14 279.85L367.86 279.85C367.09 268.93 360.51 246.25 354 235.47Z" fill="white"/>
<path d="M354 235.47L350.4 230.67L346.058 233.926L348.864 238.572L354 235.47ZM354.56 235.05L356.431 229.349L353.461 228.375L350.96 230.25L354.56 235.05ZM367.16 242.47L363.025 246.817L374.053 257.308L373.149 242.114L367.16 242.47ZM365.62 216.57L365.62 210.57L359.253 210.57L359.631 216.926L365.62 216.57ZM370.38 216.57L376.367 216.958L376.782 210.57L370.38 210.57L370.38 216.57ZM368.7 242.47L362.713 242.082L361.719 257.405L372.838 246.815L368.7 242.47ZM381.3 235.05L384.9 230.25L382.445 228.409L379.516 229.321L381.3 235.05ZM381.86 235.47L386.987 238.587L389.815 233.936L385.46 230.67L381.86 235.47ZM368.14 279.85L368.14 285.85L373.739 285.85L374.126 280.264L368.14 279.85ZM367.86 279.85L361.875 280.272L362.268 285.85L367.86 285.85L367.86 279.85ZM357.6 240.27L358.16 239.85L350.96 230.25L350.4 230.67L357.6 240.27ZM352.689 240.751C356.333 241.946 360.807 244.708 363.025 246.817L371.295 238.123C367.773 234.772 361.747 231.094 356.431 229.349L352.689 240.751ZM373.149 242.114L371.609 216.214L359.631 216.926L361.171 242.826L373.149 242.114ZM365.62 222.57L370.38 222.57L370.38 210.57L365.62 210.57L365.62 222.57ZM364.393 216.182L362.713 242.082L374.687 242.858L376.367 216.958L364.393 216.182ZM372.838 246.815C375.143 244.619 379.737 241.821 383.084 240.779L379.516 229.321C374.323 230.939 368.137 234.721 364.562 238.125L372.838 246.815ZM377.7 239.85L378.26 240.27L385.46 230.67L384.9 230.25L377.7 239.85ZM376.733 232.353C373.188 238.183 369.777 247.07 367.184 255.632C364.585 264.214 362.585 273.215 362.154 279.436L374.126 280.264C374.465 275.355 376.175 267.346 378.669 259.11C381.168 250.855 384.232 243.117 386.987 238.587L376.733 232.353ZM368.14 273.85L367.86 273.85L367.86 285.85L368.14 285.85L368.14 273.85ZM373.845 279.428C373.414 273.312 371.43 264.416 368.822 255.858C366.215 247.307 362.772 238.389 359.136 232.368L348.864 238.572C351.738 243.331 354.84 251.143 357.343 259.357C359.845 267.564 361.536 275.468 361.875 280.272L373.845 279.428Z" fill="black" mask="url(#path-11-outside-2_610_94)"/>
<circle cx="367" cy="463" r="108" fill="black" stroke="white" stroke-width="4"/>
<path d="M580 463C580 347.02 485.98 253 370 253C254.02 253 160 347.02 160 463" stroke="white" stroke-width="4"/>
<mask id="path-15-outside-3_610_94" maskUnits="userSpaceOnUse" x="121" y="443" width="67" height="40" fill="black">
<rect fill="white" x="121" y="443" width="67" height="40"/>
<path d="M143.26 475L142.9 474.52C144.16 470.68 146.92 466.18 149.26 463.72L127.06 465.04V460.96L149.26 462.4C146.86 459.88 144.04 455.26 142.9 451.6L143.26 451.12C152.14 456.52 171.76 462.22 181.3 462.88V463.12C171.94 463.78 152.5 469.42 143.26 475Z"/>
</mask>
<path d="M143.26 475L142.9 474.52C144.16 470.68 146.92 466.18 149.26 463.72L127.06 465.04V460.96L149.26 462.4C146.86 459.88 144.04 455.26 142.9 451.6L143.26 451.12C152.14 456.52 171.76 462.22 181.3 462.88V463.12C171.94 463.78 152.5 469.42 143.26 475Z" fill="white"/>
<path d="M143.26 475L138.46 478.6L141.716 482.942L146.362 480.136L143.26 475ZM142.9 474.52L137.199 472.649L136.225 475.619L138.1 478.12L142.9 474.52ZM149.26 463.72L153.607 467.855L164.098 456.827L148.904 457.731L149.26 463.72ZM127.06 465.04H121.06V471.407L127.416 471.029L127.06 465.04ZM127.06 460.96L127.448 454.973L121.06 454.558V460.96H127.06ZM149.26 462.4L148.872 468.387L164.195 469.381L153.605 458.262L149.26 462.4ZM142.9 451.6L138.1 448L136.259 450.455L137.171 453.384L142.9 451.6ZM143.26 451.12L146.377 445.993L141.726 443.165L138.46 447.52L143.26 451.12ZM181.3 462.88H187.3V457.281L181.714 456.894L181.3 462.88ZM181.3 463.12L181.722 469.105L187.3 468.712V463.12H181.3ZM148.06 471.4L147.7 470.92L138.1 478.12L138.46 478.6L148.06 471.4ZM148.601 476.391C149.586 473.387 151.888 469.663 153.607 467.855L144.913 459.585C141.952 462.697 138.734 467.973 137.199 472.649L148.601 476.391ZM148.904 457.731L126.704 459.051L127.416 471.029L149.616 469.709L148.904 457.731ZM133.06 465.04V460.96H121.06V465.04H133.06ZM126.672 466.947L148.872 468.387L149.648 456.413L127.448 454.973L126.672 466.947ZM153.605 458.262C151.809 456.377 149.481 452.553 148.629 449.816L137.171 453.384C138.599 457.967 141.911 463.383 144.915 466.538L153.605 458.262ZM147.7 455.2L148.06 454.72L138.46 447.52L138.1 448L147.7 455.2ZM140.143 456.247C145.233 459.342 152.932 462.291 160.294 464.52C167.674 466.755 175.46 468.49 180.886 468.866L181.714 456.894C177.6 456.61 170.806 455.165 163.771 453.035C156.718 450.899 150.167 448.298 146.377 445.993L140.143 456.247ZM175.3 462.88V463.12H187.3V462.88H175.3ZM180.878 457.135C175.542 457.511 167.846 459.232 160.486 461.476C153.132 463.717 145.409 466.693 140.158 469.864L146.362 480.136C150.351 477.727 156.968 475.093 163.984 472.954C170.994 470.818 177.698 469.389 181.722 469.105L180.878 457.135Z" fill="black" mask="url(#path-15-outside-3_610_94)"/>
<mask id="path-17-outside-4_610_94" maskUnits="userSpaceOnUse" x="347" y="210" width="40" height="67" fill="black">
<rect fill="white" x="347" y="210" width="40" height="67"/>
<path d="M355 232.26L355.48 231.9C359.32 233.16 363.82 235.92 366.28 238.26L364.96 216.06L369.04 216.06L367.6 238.26C370.12 235.86 374.74 233.04 378.4 231.9L378.88 232.26C373.48 241.14 367.78 260.76 367.12 270.3L366.88 270.3C366.22 260.94 360.58 241.5 355 232.26Z"/>
</mask>
<path d="M355 232.26L355.48 231.9C359.32 233.16 363.82 235.92 366.28 238.26L364.96 216.06L369.04 216.06L367.6 238.26C370.12 235.86 374.74 233.04 378.4 231.9L378.88 232.26C373.48 241.14 367.78 260.76 367.12 270.3L366.88 270.3C366.22 260.94 360.58 241.5 355 232.26Z" fill="white"/>
<path d="M355 232.26L351.4 227.46L347.058 230.716L349.864 235.362L355 232.26ZM355.48 231.9L357.351 226.199L354.381 225.225L351.88 227.1L355.48 231.9ZM366.28 238.26L362.145 242.607L373.173 253.098L372.269 237.904L366.28 238.26ZM364.96 216.06L364.96 210.06L358.593 210.06L358.971 216.416L364.96 216.06ZM369.04 216.06L375.027 216.448L375.442 210.06L369.04 210.06L369.04 216.06ZM367.6 238.26L361.613 237.872L360.619 253.195L371.738 242.605L367.6 238.26ZM378.4 231.9L382 227.1L379.545 225.259L376.616 226.171L378.4 231.9ZM378.88 232.26L384.007 235.377L386.835 230.726L382.48 227.46L378.88 232.26ZM367.12 270.3L367.12 276.3L372.719 276.3L373.106 270.714L367.12 270.3ZM366.88 270.3L360.895 270.722L361.288 276.3L366.88 276.3L366.88 270.3ZM358.6 237.06L359.08 236.7L351.88 227.1L351.4 227.46L358.6 237.06ZM353.609 237.601C356.613 238.586 360.337 240.888 362.145 242.607L370.415 233.913C367.303 230.952 362.027 227.734 357.351 226.199L353.609 237.601ZM372.269 237.904L370.949 215.704L358.971 216.416L360.291 238.616L372.269 237.904ZM364.96 222.06L369.04 222.06L369.04 210.06L364.96 210.06L364.96 222.06ZM363.053 215.672L361.613 237.872L373.587 238.648L375.027 216.448L363.053 215.672ZM371.738 242.605C373.623 240.809 377.447 238.481 380.184 237.629L376.616 226.171C372.033 227.599 366.617 230.911 363.462 233.915L371.738 242.605ZM374.8 236.7L375.28 237.06L382.48 227.46L382 227.1L374.8 236.7ZM373.753 229.143C370.658 234.233 367.709 241.932 365.48 249.294C363.245 256.674 361.51 264.46 361.134 269.886L373.106 270.714C373.39 266.6 374.835 259.806 376.965 252.771C379.101 245.718 381.702 239.167 384.007 235.377L373.753 229.143ZM367.12 264.3L366.88 264.3L366.88 276.3L367.12 276.3L367.12 264.3ZM372.865 269.878C372.489 264.542 370.768 256.846 368.524 249.486C366.283 242.132 363.307 234.409 360.136 229.158L349.864 235.362C352.273 239.351 354.907 245.968 357.046 252.984C359.182 259.994 360.611 266.698 360.895 270.722L372.865 269.878Z" fill="black" mask="url(#path-17-outside-4_610_94)"/>
<mask id="path-19-outside-5_610_94" maskUnits="userSpaceOnUse" x="551" y="443" width="67" height="40" fill="black">
<rect fill="white" x="551" y="443" width="67" height="40"/>
<path d="M595.74 451L596.1 451.48C594.84 455.32 592.08 459.82 589.74 462.28L611.94 460.96L611.94 465.04L589.74 463.6C592.14 466.12 594.96 470.74 596.1 474.4L595.74 474.88C586.86 469.48 567.24 463.78 557.7 463.12L557.7 462.88C567.06 462.22 586.5 456.58 595.74 451Z"/>
</mask>
<path d="M595.74 451L596.1 451.48C594.84 455.32 592.08 459.82 589.74 462.28L611.94 460.96L611.94 465.04L589.74 463.6C592.14 466.12 594.96 470.74 596.1 474.4L595.74 474.88C586.86 469.48 567.24 463.78 557.7 463.12L557.7 462.88C567.06 462.22 586.5 456.58 595.74 451Z" fill="white"/>
<path d="M595.74 451L600.54 447.4L597.284 443.058L592.638 445.864L595.74 451ZM596.1 451.48L601.801 453.351L602.775 450.381L600.9 447.88L596.1 451.48ZM589.74 462.28L585.393 458.145L574.903 469.173L590.096 468.269L589.74 462.28ZM611.94 460.96L617.94 460.96L617.94 454.593L611.584 454.971L611.94 460.96ZM611.94 465.04L611.552 471.027L617.94 471.442L617.94 465.04L611.94 465.04ZM589.74 463.6L590.128 457.613L574.805 456.619L585.395 467.738L589.74 463.6ZM596.1 474.4L600.9 478L602.741 475.545L601.829 472.616L596.1 474.4ZM595.74 474.88L592.623 480.007L597.274 482.835L600.54 478.48L595.74 474.88ZM557.7 463.12L551.7 463.12L551.7 468.719L557.286 469.106L557.7 463.12ZM557.7 462.88L557.278 456.895L551.7 457.288L551.7 462.88L557.7 462.88ZM590.94 454.6L591.3 455.08L600.9 447.88L600.54 447.4L590.94 454.6ZM590.399 449.609C589.414 452.613 587.112 456.337 585.393 458.145L594.087 466.415C597.048 463.303 600.266 458.027 601.801 453.351L590.399 449.609ZM590.096 468.269L612.296 466.949L611.584 454.971L589.384 456.291L590.096 468.269ZM605.94 460.96L605.94 465.04L617.94 465.04L617.94 460.96L605.94 460.96ZM612.328 459.053L590.128 457.613L589.352 469.587L611.552 471.027L612.328 459.053ZM585.395 467.738C587.191 469.623 589.519 473.447 590.371 476.184L601.829 472.616C600.401 468.033 597.089 462.617 594.085 459.462L585.395 467.738ZM591.3 470.8L590.94 471.28L600.54 478.48L600.9 478L591.3 470.8ZM598.857 469.753C593.767 466.658 586.068 463.709 578.706 461.48C571.326 459.245 563.54 457.51 558.114 457.134L557.286 469.106C561.4 469.39 568.194 470.835 575.229 472.965C582.282 475.101 588.833 477.702 592.623 480.007L598.857 469.753ZM563.7 463.12L563.7 462.88L551.7 462.88L551.7 463.12L563.7 463.12ZM558.122 468.865C563.458 468.489 571.154 466.768 578.514 464.524C585.868 462.283 593.591 459.307 598.842 456.136L592.638 445.864C588.649 448.273 582.032 450.907 575.016 453.046C568.006 455.182 561.302 456.611 557.278 456.895L558.122 468.865Z" fill="black" mask="url(#path-19-outside-5_610_94)"/>
<mask id="path-21-outside-6_610_94" maskUnits="userSpaceOnUse" x="19" y="443" width="67" height="40" fill="black">
<rect fill="white" x="19" y="443" width="67" height="40"/>
<path d="M41.26 475L40.9 474.52C42.16 470.68 44.92 466.18 47.26 463.72L25.06 465.04V460.96L47.26 462.4C44.86 459.88 42.04 455.26 40.9 451.6L41.26 451.12C50.14 456.52 69.76 462.22 79.3 462.88V463.12C69.94 463.78 50.5 469.42 41.26 475Z"/>
</mask>
<path d="M41.26 475L40.9 474.52C42.16 470.68 44.92 466.18 47.26 463.72L25.06 465.04V460.96L47.26 462.4C44.86 459.88 42.04 455.26 40.9 451.6L41.26 451.12C50.14 456.52 69.76 462.22 79.3 462.88V463.12C69.94 463.78 50.5 469.42 41.26 475Z" fill="white"/>
<path d="M41.26 475L36.46 478.6L39.7161 482.942L44.3617 480.136L41.26 475ZM40.9 474.52L35.1991 472.649L34.2245 475.619L36.1 478.12L40.9 474.52ZM47.26 463.72L51.6074 467.855L62.0975 456.827L46.9039 457.731L47.26 463.72ZM25.06 465.04H19.06V471.407L25.4161 471.029L25.06 465.04ZM25.06 460.96L25.4484 454.973L19.06 454.558V460.96H25.06ZM47.26 462.4L46.8716 468.387L62.1946 469.381L51.6048 458.262L47.26 462.4ZM40.9 451.6L36.1 448L34.259 450.455L35.1715 453.384L40.9 451.6ZM41.26 451.12L44.3775 445.993L39.7262 443.165L36.46 447.52L41.26 451.12ZM79.3 462.88H85.3V457.281L79.7141 456.894L79.3 462.88ZM79.3 463.12L79.722 469.105L85.3 468.712V463.12H79.3ZM46.06 471.4L45.7 470.92L36.1 478.12L36.46 478.6L46.06 471.4ZM46.6009 476.391C47.5864 473.387 49.8877 469.663 51.6074 467.855L42.9127 459.585C39.9523 462.697 36.7336 467.973 35.1991 472.649L46.6009 476.391ZM46.9039 457.731L24.7039 459.051L25.4161 471.029L47.6161 469.709L46.9039 457.731ZM31.06 465.04V460.96H19.06V465.04H31.06ZM24.6716 466.947L46.8716 468.387L47.6484 456.413L25.4484 454.973L24.6716 466.947ZM51.6048 458.262C49.8093 456.377 47.481 452.553 46.6286 449.816L35.1715 453.384C36.599 457.967 39.9107 463.383 42.9152 466.538L51.6048 458.262ZM45.7 455.2L46.06 454.72L36.46 447.52L36.1 448L45.7 455.2ZM38.1425 456.247C43.2332 459.342 50.9321 462.291 58.2936 464.52C65.6743 466.755 73.46 468.49 78.8859 468.866L79.7141 456.894C75.6 456.61 68.8057 455.165 61.7714 453.035C54.7179 450.899 48.1668 448.298 44.3775 445.993L38.1425 456.247ZM73.3 462.88V463.12H85.3V462.88H73.3ZM78.878 457.135C73.5417 457.511 65.8458 459.232 58.4856 461.476C51.1317 463.717 43.4086 466.693 38.1583 469.864L44.3617 480.136C48.3515 477.727 54.9683 475.093 61.9844 472.954C68.9942 470.818 75.6983 469.389 79.722 469.105L78.878 457.135Z" fill="black" mask="url(#path-21-outside-6_610_94)"/>
<mask id="path-23-outside-7_610_94" maskUnits="userSpaceOnUse" x="347" y="18" width="40" height="67" fill="black">
<rect fill="white" x="347" y="18" width="40" height="67"/>
<path d="M355 40.26L355.48 39.9C359.32 41.16 363.82 43.92 366.28 46.26L364.96 24.06L369.04 24.06L367.6 46.26C370.12 43.86 374.74 41.04 378.4 39.9L378.88 40.26C373.48 49.14 367.78 68.76 367.12 78.3L366.88 78.3C366.22 68.94 360.58 49.5 355 40.26Z"/>
</mask>
<path d="M355 40.26L355.48 39.9C359.32 41.16 363.82 43.92 366.28 46.26L364.96 24.06L369.04 24.06L367.6 46.26C370.12 43.86 374.74 41.04 378.4 39.9L378.88 40.26C373.48 49.14 367.78 68.76 367.12 78.3L366.88 78.3C366.22 68.94 360.58 49.5 355 40.26Z" fill="white"/>
<path d="M355 40.26L351.4 35.46L347.058 38.7161L349.864 43.3617L355 40.26ZM355.48 39.9L357.351 34.1991L354.381 33.2245L351.88 35.1L355.48 39.9ZM366.28 46.26L362.145 50.6073L373.173 61.0975L372.269 45.9039L366.28 46.26ZM364.96 24.06L364.96 18.06L358.593 18.06L358.971 24.4161L364.96 24.06ZM369.04 24.06L375.027 24.4484L375.442 18.06L369.04 18.06L369.04 24.06ZM367.6 46.26L361.613 45.8716L360.619 61.1946L371.738 50.6048L367.6 46.26ZM378.4 39.9L382 35.1L379.545 33.259L376.616 34.1715L378.4 39.9ZM378.88 40.26L384.007 43.3775L386.835 38.7262L382.48 35.46L378.88 40.26ZM367.12 78.3L367.12 84.3L372.719 84.3L373.106 78.7141L367.12 78.3ZM366.88 78.3L360.895 78.722L361.288 84.3L366.88 84.3L366.88 78.3ZM358.6 45.06L359.08 44.7L351.88 35.1L351.4 35.46L358.6 45.06ZM353.609 45.6009C356.613 46.5864 360.337 48.8877 362.145 50.6073L370.415 41.9127C367.303 38.9523 362.027 35.7336 357.351 34.1991L353.609 45.6009ZM372.269 45.9039L370.949 23.7039L358.971 24.4161L360.291 46.6161L372.269 45.9039ZM364.96 30.06L369.04 30.06L369.04 18.06L364.96 18.06L364.96 30.06ZM363.053 23.6716L361.613 45.8716L373.587 46.6484L375.027 24.4484L363.053 23.6716ZM371.738 50.6048C373.623 48.8093 377.447 46.481 380.184 45.6285L376.616 34.1715C372.033 35.599 366.617 38.9107 363.462 41.9152L371.738 50.6048ZM374.8 44.7L375.28 45.06L382.48 35.46L382 35.1L374.8 44.7ZM373.753 37.1425C370.658 42.2332 367.709 49.9321 365.48 57.2936C363.245 64.6743 361.51 72.46 361.134 77.8859L373.106 78.7141C373.39 74.6 374.835 67.8057 376.965 60.7714C379.101 53.7179 381.702 47.1668 384.007 43.3775L373.753 37.1425ZM367.12 72.3L366.88 72.3L366.88 84.3L367.12 84.3L367.12 72.3ZM372.865 77.878C372.489 72.5417 370.768 64.8458 368.524 57.4856C366.283 50.1317 363.307 42.4085 360.136 37.1583L349.864 43.3617C352.273 47.3514 354.907 53.9683 357.046 60.9844C359.182 67.9942 360.611 74.6983 360.895 78.722L372.865 77.878Z" fill="black" mask="url(#path-23-outside-7_610_94)"/>
<mask id="path-25-outside-8_610_94" maskUnits="userSpaceOnUse" x="651" y="443" width="67" height="40" fill="black">
<rect fill="white" x="651" y="443" width="67" height="40"/>
<path d="M695.74 451L696.1 451.48C694.84 455.32 692.08 459.82 689.74 462.28L711.94 460.96L711.94 465.04L689.74 463.6C692.14 466.12 694.96 470.74 696.1 474.4L695.74 474.88C686.86 469.48 667.24 463.78 657.7 463.12L657.7 462.88C667.06 462.22 686.5 456.58 695.74 451Z"/>
</mask>
<path d="M695.74 451L696.1 451.48C694.84 455.32 692.08 459.82 689.74 462.28L711.94 460.96L711.94 465.04L689.74 463.6C692.14 466.12 694.96 470.74 696.1 474.4L695.74 474.88C686.86 469.48 667.24 463.78 657.7 463.12L657.7 462.88C667.06 462.22 686.5 456.58 695.74 451Z" fill="white"/>
<path d="M695.74 451L700.54 447.4L697.284 443.058L692.638 445.864L695.74 451ZM696.1 451.48L701.801 453.351L702.775 450.381L700.9 447.88L696.1 451.48ZM689.74 462.28L685.393 458.145L674.903 469.173L690.096 468.269L689.74 462.28ZM711.94 460.96L717.94 460.96L717.94 454.593L711.584 454.971L711.94 460.96ZM711.94 465.04L711.552 471.027L717.94 471.442L717.94 465.04L711.94 465.04ZM689.74 463.6L690.128 457.613L674.805 456.619L685.395 467.738L689.74 463.6ZM696.1 474.4L700.9 478L702.741 475.545L701.829 472.616L696.1 474.4ZM695.74 474.88L692.623 480.007L697.274 482.835L700.54 478.48L695.74 474.88ZM657.7 463.12L651.7 463.12L651.7 468.719L657.286 469.106L657.7 463.12ZM657.7 462.88L657.278 456.895L651.7 457.288L651.7 462.88L657.7 462.88ZM690.94 454.6L691.3 455.08L700.9 447.88L700.54 447.4L690.94 454.6ZM690.399 449.609C689.414 452.613 687.112 456.337 685.393 458.145L694.087 466.415C697.048 463.303 700.266 458.027 701.801 453.351L690.399 449.609ZM690.096 468.269L712.296 466.949L711.584 454.971L689.384 456.291L690.096 468.269ZM705.94 460.96L705.94 465.04L717.94 465.04L717.94 460.96L705.94 460.96ZM712.328 459.053L690.128 457.613L689.352 469.587L711.552 471.027L712.328 459.053ZM685.395 467.738C687.191 469.623 689.519 473.447 690.371 476.184L701.829 472.616C700.401 468.033 697.089 462.617 694.085 459.462L685.395 467.738ZM691.3 470.8L690.94 471.28L700.54 478.48L700.9 478L691.3 470.8ZM698.857 469.753C693.767 466.658 686.068 463.709 678.706 461.48C671.326 459.245 663.54 457.51 658.114 457.134L657.286 469.106C661.4 469.39 668.194 470.835 675.229 472.965C682.282 475.101 688.833 477.702 692.623 480.007L698.857 469.753ZM663.7 463.12L663.7 462.88L651.7 462.88L651.7 463.12L663.7 463.12ZM658.122 468.865C663.458 468.489 671.154 466.768 678.514 464.524C685.868 462.283 693.591 459.307 698.842 456.136L692.638 445.864C688.649 448.273 682.032 450.907 675.016 453.046C668.006 455.182 661.302 456.611 657.278 456.895L658.122 468.865Z" fill="black" mask="url(#path-25-outside-8_610_94)"/>
<mask id="path-27-outside-9_610_94" maskUnits="userSpaceOnUse" x="347" y="113" width="40" height="67" fill="black">
<rect fill="white" x="347" y="113" width="40" height="67"/>
<path d="M355 135.26L355.48 134.9C359.32 136.16 363.82 138.92 366.28 141.26L364.96 119.06L369.04 119.06L367.6 141.26C370.12 138.86 374.74 136.04 378.4 134.9L378.88 135.26C373.48 144.14 367.78 163.76 367.12 173.3L366.88 173.3C366.22 163.94 360.58 144.5 355 135.26Z"/>
</mask>
<path d="M355 135.26L355.48 134.9C359.32 136.16 363.82 138.92 366.28 141.26L364.96 119.06L369.04 119.06L367.6 141.26C370.12 138.86 374.74 136.04 378.4 134.9L378.88 135.26C373.48 144.14 367.78 163.76 367.12 173.3L366.88 173.3C366.22 163.94 360.58 144.5 355 135.26Z" fill="white"/>
<path d="M355 135.26L351.4 130.46L347.058 133.716L349.864 138.362L355 135.26ZM355.48 134.9L357.351 129.199L354.381 128.225L351.88 130.1L355.48 134.9ZM366.28 141.26L362.145 145.607L373.173 156.098L372.269 140.904L366.28 141.26ZM364.96 119.06L364.96 113.06L358.593 113.06L358.971 119.416L364.96 119.06ZM369.04 119.06L375.027 119.448L375.442 113.06L369.04 113.06L369.04 119.06ZM367.6 141.26L361.613 140.872L360.619 156.195L371.738 145.605L367.6 141.26ZM378.4 134.9L382 130.1L379.545 128.259L376.616 129.171L378.4 134.9ZM378.88 135.26L384.007 138.377L386.835 133.726L382.48 130.46L378.88 135.26ZM367.12 173.3L367.12 179.3L372.719 179.3L373.106 173.714L367.12 173.3ZM366.88 173.3L360.895 173.722L361.288 179.3L366.88 179.3L366.88 173.3ZM358.6 140.06L359.08 139.7L351.88 130.1L351.4 130.46L358.6 140.06ZM353.609 140.601C356.613 141.586 360.337 143.888 362.145 145.607L370.415 136.913C367.303 133.952 362.027 130.734 357.351 129.199L353.609 140.601ZM372.269 140.904L370.949 118.704L358.971 119.416L360.291 141.616L372.269 140.904ZM364.96 125.06L369.04 125.06L369.04 113.06L364.96 113.06L364.96 125.06ZM363.053 118.672L361.613 140.872L373.587 141.648L375.027 119.448L363.053 118.672ZM371.738 145.605C373.623 143.809 377.447 141.481 380.184 140.629L376.616 129.171C372.033 130.599 366.617 133.911 363.462 136.915L371.738 145.605ZM374.8 139.7L375.28 140.06L382.48 130.46L382 130.1L374.8 139.7ZM373.753 132.143C370.658 137.233 367.709 144.932 365.48 152.294C363.245 159.674 361.51 167.46 361.134 172.886L373.106 173.714C373.39 169.6 374.835 162.806 376.965 155.771C379.101 148.718 381.702 142.167 384.007 138.377L373.753 132.143ZM367.12 167.3L366.88 167.3L366.88 179.3L367.12 179.3L367.12 167.3ZM372.865 172.878C372.489 167.542 370.768 159.846 368.524 152.486C366.283 145.132 363.307 137.409 360.136 132.158L349.864 138.362C352.273 142.351 354.907 148.968 357.046 155.984C359.182 162.994 360.611 169.698 360.895 173.722L372.865 172.878Z" fill="black" mask="url(#path-27-outside-9_610_94)"/>
<path d="M0 463H737" stroke="white" stroke-width="4"/>
<path d="M367 -62L367 982" stroke="white" stroke-width="4"/>
<circle cx="367" cy="463" r="108" fill="black" stroke="white" stroke-width="4"/>
<circle cx="367.5" cy="664.5" r="25.5" fill="black" stroke="white" stroke-width="4"/>
<circle cx="367.5" cy="769.5" r="25.5" fill="black" stroke="white" stroke-width="4"/>
<circle cx="367.5" cy="865.5" r="25.5" fill="black" stroke="white" stroke-width="4"/>
</g>
</svg>
