<svg width="735" height="930" viewBox="0 0 735 930" fill="none" xmlns="http://www.w3.org/2000/svg">
<rect width="735" height="930" fill="black"/>
<mask id="mask0_610_125" style="mask-type:alpha" maskUnits="userSpaceOnUse" x="0" y="0" width="735" height="930">
<rect width="735" height="930" fill="black"/>
</mask>
<g mask="url(#mask0_610_125)">
<mask id="mask1_610_125" style="mask-type:alpha" maskUnits="userSpaceOnUse" x="0" y="-936" width="1476" height="1864">
<rect y="-935.555" width="1475.98" height="1863.55" fill="black"/>
</mask>
<g mask="url(#mask1_610_125)">
<path d="M1566.35 2.24698C1566.35 -452.47 1197.73 -821.091 743.012 -821.091C288.295 -821.091 -80.3257 -452.47 -80.3257 2.24698" stroke="white" stroke-width="4"/>
<circle cx="736.987" cy="-5.78419" r="218.395" fill="black" stroke="white" stroke-width="5"/>
<mask id="path-6-outside-1_610_125" maskUnits="userSpaceOnUse" x="239.985" y="-32.1836" width="76" height="44" fill="black">
<rect fill="white" x="239.985" y="-32.1836" width="76" height="44"/>
<path d="M265.455 3.81641L265.035 3.25641C266.505 -1.22359 269.725 -6.47359 272.455 -9.34359L246.555 -7.80359V-12.5636L272.455 -10.8836C269.655 -13.8236 266.365 -19.2136 265.035 -23.4836L265.455 -24.0436C275.815 -17.7436 298.705 -11.0936 309.835 -10.3236V-10.0436C298.915 -9.27359 276.235 -2.69359 265.455 3.81641Z"/>
</mask>
<path d="M265.455 3.81641L265.035 3.25641C266.505 -1.22359 269.725 -6.47359 272.455 -9.34359L246.555 -7.80359V-12.5636L272.455 -10.8836C269.655 -13.8236 266.365 -19.2136 265.035 -23.4836L265.455 -24.0436C275.815 -17.7436 298.705 -11.0936 309.835 -10.3236V-10.0436C298.915 -9.27359 276.235 -2.69359 265.455 3.81641Z" fill="white"/>
<path d="M265.455 3.81641L260.655 7.4164L263.911 11.7579L268.557 8.95251L265.455 3.81641ZM265.035 3.25641L259.334 1.38578L258.359 4.35577L260.235 6.8564L265.035 3.25641ZM272.455 -9.34359L276.802 -5.20831L287.292 -16.2364L272.099 -15.333L272.455 -9.34359ZM246.555 -7.80359H240.555V-1.43624L246.911 -1.81417L246.555 -7.80359ZM246.555 -12.5636L246.943 -18.551L240.555 -18.9654V-12.5636H246.555ZM272.455 -10.8836L272.066 -4.89618L287.389 -3.90225L276.8 -15.0215L272.455 -10.8836ZM265.035 -23.4836L260.235 -27.0836L258.394 -24.6289L259.306 -21.6993L265.035 -23.4836ZM265.455 -24.0436L268.572 -29.1701L263.921 -31.9986L260.655 -27.6436L265.455 -24.0436ZM309.835 -10.3236H315.835V-15.9228L310.249 -16.3093L309.835 -10.3236ZM309.835 -10.0436L310.257 -4.05846L315.835 -4.45177V-10.0436H309.835ZM270.255 0.216413L269.835 -0.343587L260.235 6.8564L260.655 7.4164L270.255 0.216413ZM270.736 5.12703C271.931 1.48363 274.693 -2.99052 276.802 -5.20831L268.108 -13.4789C264.757 -9.95667 261.078 -3.93082 259.334 1.38578L270.736 5.12703ZM272.099 -15.333L246.199 -13.793L246.911 -1.81417L272.811 -3.35417L272.099 -15.333ZM252.555 -7.80359V-12.5636H240.555V-7.80359H252.555ZM246.166 -6.57618L272.066 -4.89618L272.843 -16.871L246.943 -18.551L246.166 -6.57618ZM276.8 -15.0215C274.604 -17.3268 271.806 -21.921 270.763 -25.2679L259.306 -21.6993C260.924 -16.5062 264.706 -10.3204 268.11 -6.74566L276.8 -15.0215ZM269.835 -19.8836L270.255 -20.4436L260.655 -27.6436L260.235 -27.0836L269.835 -19.8836ZM262.337 -18.9171C268.168 -15.3714 277.054 -11.9602 285.617 -9.36735C294.199 -6.76867 303.2 -4.76828 309.421 -4.3379L310.249 -16.3093C305.34 -16.6489 297.331 -18.3585 289.095 -20.8523C280.84 -23.3519 273.102 -26.4158 268.572 -29.1701L262.337 -18.9171ZM303.835 -10.3236V-10.0436H315.835V-10.3236H303.835ZM309.413 -16.0287C303.297 -15.5975 294.401 -13.6138 285.843 -11.0054C277.292 -8.39892 268.373 -4.95529 262.353 -1.3197L268.557 8.95251C273.316 6.0781 281.128 2.97673 289.342 0.473223C297.549 -2.02839 305.453 -3.71973 310.257 -4.05846L309.413 -16.0287Z" fill="black" mask="url(#path-6-outside-1_610_125)"/>
<circle cx="736.987" cy="-5.78419" r="218.895" fill="black" stroke="white" stroke-width="4"/>
<mask id="path-9-outside-2_610_125" maskUnits="userSpaceOnUse" x="246.009" y="-30.127" width="67" height="40" fill="black">
<rect fill="white" x="246.009" y="-30.127" width="67" height="40"/>
<path d="M268.269 1.87305L267.909 1.39305C269.169 -2.44695 271.929 -6.94695 274.269 -9.40695L252.069 -8.08695V-12.167L274.269 -10.727C271.869 -13.247 269.049 -17.867 267.909 -21.527L268.269 -22.007C277.149 -16.607 296.769 -10.907 306.309 -10.247V-10.007C296.949 -9.34695 277.509 -3.70695 268.269 1.87305Z"/>
</mask>
<path d="M268.269 1.87305L267.909 1.39305C269.169 -2.44695 271.929 -6.94695 274.269 -9.40695L252.069 -8.08695V-12.167L274.269 -10.727C271.869 -13.247 269.049 -17.867 267.909 -21.527L268.269 -22.007C277.149 -16.607 296.769 -10.907 306.309 -10.247V-10.007C296.949 -9.34695 277.509 -3.70695 268.269 1.87305Z" fill="white"/>
<path d="M268.269 1.87305L263.469 5.47304L266.725 9.81458L271.371 7.00916L268.269 1.87305ZM267.909 1.39305L262.208 -0.477576L261.234 2.49241L263.109 4.99304L267.909 1.39305ZM274.269 -9.40695L278.617 -5.27167L289.107 -16.2998L273.913 -15.3964L274.269 -9.40695ZM252.069 -8.08695H246.069V-1.7196L252.425 -2.09753L252.069 -8.08695ZM252.069 -12.167L252.458 -18.1544L246.069 -18.5688V-12.167H252.069ZM274.269 -10.727L273.881 -4.73954L289.204 -3.74561L278.614 -14.8649L274.269 -10.727ZM267.909 -21.527L263.109 -25.1269L261.268 -22.6722L262.181 -19.7427L267.909 -21.527ZM268.269 -22.007L271.387 -27.1335L266.736 -29.9619L263.469 -25.6069L268.269 -22.007ZM306.309 -10.247H312.309V-15.8462L306.723 -16.2326L306.309 -10.247ZM306.309 -10.007L306.731 -4.02181L312.309 -4.41513V-10.007H306.309ZM273.069 -1.72695L272.709 -2.20695L263.109 4.99304L263.469 5.47304L273.069 -1.72695ZM273.61 3.26367C274.596 0.260272 276.897 -3.46388 278.617 -5.27167L269.922 -13.5422C266.962 -10.43 263.743 -5.15418 262.208 -0.477576L273.61 3.26367ZM273.913 -15.3964L251.713 -14.0764L252.425 -2.09753L274.625 -3.41753L273.913 -15.3964ZM258.069 -8.08695V-12.167H246.069V-8.08695H258.069ZM251.681 -6.17954L273.881 -4.73954L274.658 -16.7144L252.458 -18.1544L251.681 -6.17954ZM278.614 -14.8649C276.819 -16.7502 274.49 -20.5743 273.638 -23.3113L262.181 -19.7427C263.608 -15.1596 266.92 -9.74372 269.924 -6.58902L278.614 -14.8649ZM272.709 -17.927L273.069 -18.407L263.469 -25.6069L263.109 -25.1269L272.709 -17.927ZM265.152 -16.8804C270.242 -13.7848 277.941 -10.8361 285.303 -8.60696C292.684 -6.37202 300.469 -4.63664 305.895 -4.26126L306.723 -16.2326C302.609 -16.5173 295.815 -17.9619 288.781 -20.092C281.727 -22.2278 275.176 -24.8292 271.387 -27.1335L265.152 -16.8804ZM300.309 -10.247V-10.007H312.309V-10.247H300.309ZM305.887 -15.9921C300.551 -15.6158 292.855 -13.8947 285.495 -11.6513C278.141 -9.40978 270.418 -6.43365 265.168 -3.26306L271.371 7.00916C275.361 4.59975 281.978 1.96588 288.994 -0.172636C296.003 -2.30925 302.708 -3.73809 306.731 -4.02181L305.887 -15.9921Z" fill="black" mask="url(#path-9-outside-2_610_125)"/>
<mask id="path-11-outside-3_610_125" maskUnits="userSpaceOnUse" x="41.1792" y="-30.127" width="67" height="40" fill="black">
<rect fill="white" x="41.1792" y="-30.127" width="67" height="40"/>
<path d="M63.4392 1.87305L63.0792 1.39305C64.3392 -2.44695 67.0992 -6.94695 69.4392 -9.40695L47.2392 -8.08695V-12.167L69.4392 -10.727C67.0392 -13.247 64.2192 -17.867 63.0792 -21.527L63.4392 -22.007C72.3192 -16.607 91.9392 -10.907 101.479 -10.247V-10.007C92.1192 -9.34695 72.6792 -3.70695 63.4392 1.87305Z"/>
</mask>
<path d="M63.4392 1.87305L63.0792 1.39305C64.3392 -2.44695 67.0992 -6.94695 69.4392 -9.40695L47.2392 -8.08695V-12.167L69.4392 -10.727C67.0392 -13.247 64.2192 -17.867 63.0792 -21.527L63.4392 -22.007C72.3192 -16.607 91.9392 -10.907 101.479 -10.247V-10.007C92.1192 -9.34695 72.6792 -3.70695 63.4392 1.87305Z" fill="white"/>
<path d="M63.4392 1.87305L58.6392 5.47304L61.8953 9.81458L66.5409 7.00916L63.4392 1.87305ZM63.0792 1.39305L57.3783 -0.477576L56.4037 2.49241L58.2792 4.99304L63.0792 1.39305ZM69.4392 -9.40695L73.7865 -5.27167L84.2767 -16.2998L69.0831 -15.3964L69.4392 -9.40695ZM47.2392 -8.08695H41.2392V-1.7196L47.5953 -2.09753L47.2392 -8.08695ZM47.2392 -12.167L47.6276 -18.1544L41.2392 -18.5688V-12.167H47.2392ZM69.4392 -10.727L69.0508 -4.73954L84.3738 -3.74561L73.784 -14.8649L69.4392 -10.727ZM63.0792 -21.527L58.2792 -25.1269L56.4382 -22.6722L57.3507 -19.7427L63.0792 -21.527ZM63.4392 -22.007L66.5567 -27.1335L61.9054 -29.9619L58.6392 -25.6069L63.4392 -22.007ZM101.479 -10.247H107.479V-15.8462L101.893 -16.2326L101.479 -10.247ZM101.479 -10.007L101.901 -4.02181L107.479 -4.41513V-10.007H101.479ZM68.2392 -1.72695L67.8792 -2.20695L58.2792 4.99304L58.6392 5.47304L68.2392 -1.72695ZM68.7801 3.26367C69.7656 0.260272 72.0669 -3.46388 73.7865 -5.27167L65.0919 -13.5422C62.1315 -10.43 58.9128 -5.15418 57.3783 -0.477576L68.7801 3.26367ZM69.0831 -15.3964L46.8831 -14.0764L47.5953 -2.09753L69.7953 -3.41753L69.0831 -15.3964ZM53.2392 -8.08695V-12.167H41.2392V-8.08695H53.2392ZM46.8508 -6.17954L69.0508 -4.73954L69.8276 -16.7144L47.6276 -18.1544L46.8508 -6.17954ZM73.784 -14.8649C71.9885 -16.7502 69.6602 -20.5743 68.8077 -23.3113L57.3507 -19.7427C58.7782 -15.1596 62.0899 -9.74372 65.0944 -6.58902L73.784 -14.8649ZM67.8792 -17.927L68.2392 -18.407L58.6392 -25.6069L58.2792 -25.1269L67.8792 -17.927ZM60.3217 -16.8804C65.4124 -13.7848 73.1113 -10.8361 80.4728 -8.60696C87.8535 -6.37202 95.6392 -4.63664 101.065 -4.26126L101.893 -16.2326C97.7792 -16.5173 90.9849 -17.9619 83.9506 -20.092C76.8971 -22.2278 70.346 -24.8292 66.5567 -27.1335L60.3217 -16.8804ZM95.4792 -10.247V-10.007H107.479V-10.247H95.4792ZM101.057 -15.9921C95.7209 -15.6158 88.025 -13.8947 80.6648 -11.6513C73.3109 -9.40978 65.5877 -6.43365 60.3375 -3.26306L66.5409 7.00916C70.5307 4.59975 77.1475 1.96588 84.1636 -0.172636C91.1734 -2.30925 97.8775 -3.73809 101.901 -4.02181L101.057 -15.9921Z" fill="black" mask="url(#path-11-outside-3_610_125)"/>
<path d="M736.988 -1060.06L736.988 1036.44" stroke="white" stroke-width="4"/>
<circle cx="736.988" cy="-5.78517" r="218.895" fill="black" stroke="white" stroke-width="4"/>
<circle cx="737.992" cy="398.855" r="53.2239" fill="black" stroke="white" stroke-width="4"/>
<circle cx="737.992" cy="609.71" r="53.2239" fill="black" stroke="white" stroke-width="4"/>
<circle cx="737.992" cy="802.491" r="53.2239" fill="black" stroke="white" stroke-width="4"/>
</g>
</g>
</svg>
