<svg width="735" height="930" viewBox="0 0 735 930" fill="none" xmlns="http://www.w3.org/2000/svg">
<rect width="735" height="930" fill="black"/>
<mask id="mask0_610_158" style="mask-type:alpha" maskUnits="userSpaceOnUse" x="0" y="0" width="735" height="930">
<rect width="735" height="930" fill="black"/>
</mask>
<g mask="url(#mask0_610_158)">
<mask id="mask1_610_158" style="mask-type:alpha" maskUnits="userSpaceOnUse" x="0" y="-384" width="1038" height="1314">
<rect y="-383.825" width="1038" height="1313.83" fill="black"/>
</mask>
<g mask="url(#mask1_610_158)">
<path d="M956.09 270.475C956.09 28.1657 760.082 -168.265 518.294 -168.265C276.506 -168.265 80.498 28.1657 80.498 270.475" stroke="white" stroke-width="4"/>
<path d="M1101.55 277.551C1101.55 -42.9218 842.315 -302.717 522.531 -302.717C202.747 -302.717 -56.4897 -42.9218 -56.4897 277.551" stroke="white" stroke-width="4"/>
<path d="M1242.78 270.476C1242.78 -128.162 920.311 -451.321 522.531 -451.321C124.75 -451.321 -197.714 -128.162 -197.714 270.476" stroke="white" stroke-width="4"/>
<path d="M671.141 271.892C671.141 356.497 602.704 425.073 518.294 425.073C433.884 425.073 365.447 356.497 365.447 271.892C365.447 187.287 433.884 118.71 518.294 118.71C602.704 118.71 671.141 187.287 671.141 271.892Z" fill="black" stroke="white" stroke-width="5"/>
<path d="M819.102 271.891C819.102 107.746 686.322 -25.3193 522.53 -25.3193C358.739 -25.3193 225.959 107.746 225.959 271.891" stroke="white" stroke-width="5"/>
<mask id="path-9-outside-1_610_158" maskUnits="userSpaceOnUse" x="167.881" y="248.541" width="76" height="44" fill="black">
<rect fill="white" x="167.881" y="248.541" width="76" height="44"/>
<path d="M193.351 284.541L192.931 283.981C194.401 279.501 197.621 274.251 200.351 271.381L174.451 272.921V268.161L200.351 269.841C197.551 266.901 194.261 261.511 192.931 257.241L193.351 256.681C203.711 262.981 226.601 269.631 237.731 270.401V270.681C226.811 271.451 204.131 278.031 193.351 284.541Z"/>
</mask>
<path d="M193.351 284.541L192.931 283.981C194.401 279.501 197.621 274.251 200.351 271.381L174.451 272.921V268.161L200.351 269.841C197.551 266.901 194.261 261.511 192.931 257.241L193.351 256.681C203.711 262.981 226.601 269.631 237.731 270.401V270.681C226.811 271.451 204.131 278.031 193.351 284.541Z" fill="white"/>
<path d="M193.351 284.541L188.551 288.141L191.807 292.483L196.453 289.677L193.351 284.541ZM192.931 283.981L187.23 282.11L186.256 285.08L188.131 287.581L192.931 283.981ZM200.351 271.381L204.699 275.516L215.189 264.488L199.995 265.392L200.351 271.381ZM174.451 272.921H168.451V279.288L174.807 278.91L174.451 272.921ZM174.451 268.161L174.84 262.174L168.451 261.759V268.161H174.451ZM200.351 269.841L199.963 275.828L215.286 276.822L204.696 265.703L200.351 269.841ZM192.931 257.241L188.131 253.641L186.29 256.096L187.203 259.025L192.931 257.241ZM193.351 256.681L196.469 251.554L191.818 248.726L188.551 253.081L193.351 256.681ZM237.731 270.401H243.731V264.802L238.145 264.415L237.731 270.401ZM237.731 270.681L238.153 276.666L243.731 276.273V270.681H237.731ZM198.151 280.941L197.731 280.381L188.131 287.581L188.551 288.141L198.151 280.941ZM198.632 285.852C199.828 282.208 202.589 277.734 204.699 275.516L196.004 267.246C192.654 270.768 188.975 276.794 187.23 282.11L198.632 285.852ZM199.995 265.392L174.095 266.932L174.807 278.91L200.707 277.37L199.995 265.392ZM180.451 272.921V268.161H168.451V272.921H180.451ZM174.063 274.148L199.963 275.828L200.74 263.854L174.84 262.174L174.063 274.148ZM204.696 265.703C202.501 263.398 199.702 258.804 198.66 255.457L187.203 259.025C188.82 264.218 192.602 270.404 196.007 273.979L204.696 265.703ZM197.731 260.841L198.151 260.281L188.551 253.081L188.131 253.641L197.731 260.841ZM190.234 261.808C196.065 265.353 204.951 268.764 213.514 271.357C222.096 273.956 231.096 275.956 237.317 276.387L238.145 264.415C233.236 264.076 225.227 262.366 216.991 259.872C208.737 257.373 200.998 254.309 196.469 251.554L190.234 261.808ZM231.731 270.401V270.681H243.731V270.401H231.731ZM237.309 264.696C231.193 265.127 222.297 267.111 213.739 269.719C205.188 272.326 196.27 275.769 190.25 279.405L196.453 289.677C201.213 286.803 209.025 283.701 217.238 281.198C225.446 278.696 233.35 277.005 238.153 276.666L237.309 264.696Z" fill="black" mask="url(#path-9-outside-1_610_158)"/>
<path d="M671.641 271.892C671.641 356.772 602.981 425.573 518.294 425.573C433.607 425.573 364.947 356.772 364.947 271.892C364.947 187.012 433.607 118.21 518.294 118.21C602.981 118.21 671.641 187.012 671.641 271.892Z" fill="black" stroke="white" stroke-width="4"/>
<path d="M819.102 271.891C819.102 107.746 686.322 -25.3193 522.53 -25.3193C358.739 -25.3193 225.959 107.746 225.959 271.891" stroke="white" stroke-width="4"/>
<mask id="path-13-outside-2_610_158" maskUnits="userSpaceOnUse" x="172.118" y="250.448" width="67" height="40" fill="black">
<rect fill="white" x="172.118" y="250.448" width="67" height="40"/>
<path d="M194.378 282.448L194.018 281.968C195.278 278.128 198.038 273.628 200.378 271.168L178.178 272.488V268.408L200.378 269.848C197.978 267.328 195.158 262.708 194.018 259.048L194.378 258.568C203.258 263.968 222.878 269.668 232.418 270.328V270.568C223.058 271.228 203.618 276.868 194.378 282.448Z"/>
</mask>
<path d="M194.378 282.448L194.018 281.968C195.278 278.128 198.038 273.628 200.378 271.168L178.178 272.488V268.408L200.378 269.848C197.978 267.328 195.158 262.708 194.018 259.048L194.378 258.568C203.258 263.968 222.878 269.668 232.418 270.328V270.568C223.058 271.228 203.618 276.868 194.378 282.448Z" fill="white"/>
<path d="M194.378 282.448L189.578 286.048L192.834 290.39L197.48 287.584L194.378 282.448ZM194.018 281.968L188.317 280.098L187.343 283.068L189.218 285.568L194.018 281.968ZM200.378 271.168L204.726 275.304L215.216 264.275L200.022 265.179L200.378 271.168ZM178.178 272.488H172.178V278.856L178.534 278.478L178.178 272.488ZM178.178 268.408L178.567 262.421L172.178 262.006V268.408H178.178ZM200.378 269.848L199.99 275.836L215.313 276.83L204.723 265.71L200.378 269.848ZM194.018 259.048L189.218 255.448L187.377 257.903L188.29 260.833L194.018 259.048ZM194.378 258.568L197.496 253.442L192.844 250.613L189.578 254.968L194.378 258.568ZM232.418 270.328H238.418V264.729L232.832 264.343L232.418 270.328ZM232.418 270.568L232.84 276.553L238.418 276.16V270.568H232.418ZM199.178 278.848L198.818 278.368L189.218 285.568L189.578 286.048L199.178 278.848ZM199.719 283.839C200.705 280.835 203.006 277.111 204.726 275.304L196.031 267.033C193.07 270.145 189.852 275.421 188.317 280.098L199.719 283.839ZM200.022 265.179L177.822 266.499L178.534 278.478L200.734 277.158L200.022 265.179ZM184.178 272.488V268.408H172.178V272.488H184.178ZM177.79 274.396L199.99 275.836L200.767 263.861L178.567 262.421L177.79 274.396ZM204.723 265.71C202.927 263.825 200.599 260.001 199.747 257.264L188.29 260.833C189.717 265.416 193.029 270.831 196.033 273.986L204.723 265.71ZM198.818 262.648L199.178 262.168L189.578 254.968L189.218 255.448L198.818 262.648ZM191.261 263.695C196.351 266.79 204.05 269.739 211.412 271.968C218.792 274.203 226.578 275.939 232.004 276.314L232.832 264.343C228.718 264.058 221.924 262.613 214.89 260.483C207.836 258.347 201.285 255.746 197.496 253.442L191.261 263.695ZM226.418 270.328V270.568H238.418V270.328H226.418ZM231.996 264.583C226.66 264.959 218.964 266.681 211.604 268.924C204.25 271.165 196.527 274.142 191.276 277.312L197.48 287.584C201.47 285.175 208.086 282.541 215.103 280.403C222.112 278.266 228.816 276.837 232.84 276.553L231.996 264.583Z" fill="black" mask="url(#path-13-outside-2_610_158)"/>
<mask id="path-15-outside-3_610_158" maskUnits="userSpaceOnUse" x="28.0693" y="250.449" width="67" height="40" fill="black">
<rect fill="white" x="28.0693" y="250.449" width="67" height="40"/>
<path d="M50.3293 282.449L49.9693 281.969C51.2293 278.129 53.9893 273.629 56.3293 271.169L34.1293 272.489V268.409L56.3293 269.849C53.9293 267.329 51.1093 262.709 49.9693 259.049L50.3293 258.569C59.2093 263.969 78.8293 269.669 88.3693 270.329V270.569C79.0093 271.229 59.5693 276.869 50.3293 282.449Z"/>
</mask>
<path d="M50.3293 282.449L49.9693 281.969C51.2293 278.129 53.9893 273.629 56.3293 271.169L34.1293 272.489V268.409L56.3293 269.849C53.9293 267.329 51.1093 262.709 49.9693 259.049L50.3293 258.569C59.2093 263.969 78.8293 269.669 88.3693 270.329V270.569C79.0093 271.229 59.5693 276.869 50.3293 282.449Z" fill="white"/>
<path d="M50.3293 282.449L45.5293 286.049L48.7855 290.391L53.431 287.585L50.3293 282.449ZM49.9693 281.969L44.2684 280.099L43.2939 283.069L45.1693 285.569L49.9693 281.969ZM56.3293 271.169L60.6767 275.305L71.1668 264.276L55.9732 265.18L56.3293 271.169ZM34.1293 272.489H28.1293V278.857L34.4855 278.479L34.1293 272.489ZM34.1293 268.409L34.5177 262.422L28.1293 262.007V268.409H34.1293ZM56.3293 269.849L55.941 275.837L71.2639 276.831L60.6742 265.711L56.3293 269.849ZM49.9693 259.049L45.1693 255.449L43.3283 257.904L44.2408 260.834L49.9693 259.049ZM50.3293 258.569L53.4468 253.443L48.7956 250.614L45.5293 254.969L50.3293 258.569ZM88.3693 270.329H94.3693V264.73L88.7834 264.344L88.3693 270.329ZM88.3693 270.569L88.7914 276.554L94.3693 276.161V270.569H88.3693ZM55.1293 278.849L54.7693 278.369L45.1693 285.569L45.5293 286.049L55.1293 278.849ZM55.6703 283.84C56.6558 280.836 58.9571 277.112 60.6767 275.305L51.982 267.034C49.0216 270.146 45.8029 275.422 44.2684 280.099L55.6703 283.84ZM55.9732 265.18L33.7732 266.5L34.4855 278.479L56.6855 277.159L55.9732 265.18ZM40.1293 272.489V268.409H28.1293V272.489H40.1293ZM33.741 274.397L55.941 275.837L56.7177 263.862L34.5177 262.422L33.741 274.397ZM60.6742 265.711C58.8786 263.826 56.5504 260.002 55.6979 257.265L44.2408 260.834C45.6683 265.417 48.98 270.832 51.9845 273.987L60.6742 265.711ZM54.7693 262.649L55.1293 262.169L45.5293 254.969L45.1693 255.449L54.7693 262.649ZM47.2119 263.696C52.3025 266.791 60.0014 269.74 67.363 271.969C74.7436 274.204 82.5294 275.94 87.9552 276.315L88.7834 264.344C84.6693 264.059 77.8751 262.614 70.8407 260.484C63.7873 258.348 57.2362 255.747 53.4468 253.443L47.2119 263.696ZM82.3693 270.329V270.569H94.3693V270.329H82.3693ZM87.9473 264.584C82.6111 264.96 74.9151 266.682 67.555 268.925C60.2011 271.166 52.4779 274.143 47.2277 277.313L53.431 287.585C57.4208 285.176 64.0376 282.542 71.0537 280.404C78.0635 278.267 84.7676 276.838 88.7914 276.554L87.9473 264.584Z" fill="black" mask="url(#path-15-outside-3_610_158)"/>
<path d="M0 271.892H1040.82" stroke="white" stroke-width="4"/>
<path d="M518.294 -471.136L518.294 1006.43" stroke="white" stroke-width="4"/>
<path d="M671.641 271.891C671.641 356.771 602.981 425.572 518.294 425.572C433.607 425.572 364.947 356.771 364.947 271.891C364.947 187.011 433.607 118.209 518.294 118.209C602.981 118.209 671.641 187.011 671.641 271.891Z" fill="black" stroke="white" stroke-width="4"/>
<path d="M555.837 557.072C555.837 577.466 539.341 593.992 519 593.992C498.66 593.992 482.164 577.466 482.164 557.072C482.164 536.677 498.66 520.151 519 520.151C539.341 520.151 555.837 536.677 555.837 557.072Z" fill="black" stroke="white" stroke-width="4"/>
<path d="M555.837 705.677C555.837 726.072 539.341 742.598 519 742.598C498.66 742.598 482.164 726.072 482.164 705.677C482.164 685.283 498.66 668.757 519 668.757C539.341 668.757 555.837 685.283 555.837 705.677Z" fill="black" stroke="white" stroke-width="4"/>
<path d="M555.837 841.545C555.837 861.94 539.341 878.466 519 878.466C498.66 878.466 482.164 861.94 482.164 841.545C482.164 821.151 498.66 804.625 519 804.625C539.341 804.625 555.837 821.151 555.837 841.545Z" fill="black" stroke="white" stroke-width="4"/>
</g>
</g>
</svg>
