<svg width="735" height="930" viewBox="0 0 735 930" fill="none" xmlns="http://www.w3.org/2000/svg">
<rect width="735" height="930" fill="black"/>
<mask id="mask0_611_389" style="mask-type:alpha" maskUnits="userSpaceOnUse" x="0" y="0" width="735" height="930">
<rect width="735" height="930" fill="black"/>
</mask>
<g mask="url(#mask0_611_389)">
<path d="M660.804 684.488C660.804 442.178 464.796 245.748 223.008 245.748C-18.7802 245.748 -214.788 442.178 -214.788 684.488" stroke="white" stroke-width="4"/>
<path d="M806.265 691.564C806.265 371.091 547.028 111.296 227.244 111.296C-92.5401 111.296 -351.776 371.091 -351.776 691.564" stroke="white" stroke-width="4"/>
<path d="M947.49 684.489C947.49 285.851 625.025 -37.3086 227.245 -37.3086C-170.535 -37.3086 -493 285.851 -493 684.489" stroke="white" stroke-width="4"/>
<path d="M375.854 685.904C375.854 770.509 307.417 839.086 223.007 839.086C138.597 839.086 70.1602 770.509 70.1602 685.904C70.1602 601.299 138.597 532.723 223.007 532.723C307.417 532.723 375.854 601.299 375.854 685.904Z" fill="black" stroke="white" stroke-width="5"/>
<path d="M523.816 685.904C523.816 521.759 391.036 388.693 227.244 388.693C63.4524 388.693 -69.3271 521.759 -69.3271 685.904" stroke="white" stroke-width="5"/>
<mask id="path-8-outside-1_611_389" maskUnits="userSpaceOnUse" x="204.62" y="329.081" width="44" height="76" fill="black">
<rect fill="white" x="204.62" y="329.081" width="44" height="76"/>
<path d="M212.62 354.551L213.18 354.131C217.66 355.601 222.91 358.821 225.78 361.551L224.24 335.651L229 335.651L227.32 361.551C230.26 358.751 235.65 355.461 239.92 354.131L240.48 354.551C234.18 364.911 227.53 387.801 226.76 398.931L226.48 398.931C225.71 388.011 219.13 365.331 212.62 354.551Z"/>
</mask>
<path d="M212.62 354.551L213.18 354.131C217.66 355.601 222.91 358.821 225.78 361.551L224.24 335.651L229 335.651L227.32 361.551C230.26 358.751 235.65 355.461 239.92 354.131L240.48 354.551C234.18 364.911 227.53 387.801 226.76 398.931L226.48 398.931C225.71 388.011 219.13 365.331 212.62 354.551Z" fill="white"/>
<path d="M212.62 354.551L209.02 349.751L204.679 353.007L207.484 357.653L212.62 354.551ZM213.18 354.131L215.051 348.43L212.081 347.456L209.58 349.331L213.18 354.131ZM225.78 361.551L221.645 365.898L232.673 376.389L231.77 361.195L225.78 361.551ZM224.24 335.651L224.24 329.651L217.873 329.651L218.251 336.007L224.24 335.651ZM229 335.651L234.988 336.039L235.402 329.651L229 329.651L229 335.651ZM227.32 361.551L221.333 361.163L220.339 376.486L231.458 365.896L227.32 361.551ZM239.92 354.131L243.52 349.331L241.065 347.49L238.136 348.403L239.92 354.131ZM240.48 354.551L245.607 357.669L248.435 353.017L244.08 349.751L240.48 354.551ZM226.76 398.931L226.76 404.931L232.359 404.931L232.746 399.345L226.76 398.931ZM226.48 398.931L220.495 399.353L220.888 404.931L226.48 404.931L226.48 398.931ZM216.22 359.351L216.78 358.931L209.58 349.331L209.02 349.751L216.22 359.351ZM211.309 359.832C214.953 361.027 219.427 363.789 221.645 365.898L229.915 357.204C226.393 353.853 220.367 350.175 215.051 348.43L211.309 359.832ZM231.77 361.195L230.23 335.295L218.251 336.007L219.791 361.907L231.77 361.195ZM224.24 341.651L229 341.651L229 329.651L224.24 329.651L224.24 341.651ZM223.013 335.263L221.333 361.163L233.308 361.939L234.988 336.039L223.013 335.263ZM231.458 365.896C233.763 363.7 238.357 360.902 241.704 359.86L238.136 348.403C232.943 350.02 226.757 353.802 223.182 357.206L231.458 365.896ZM236.32 358.931L236.88 359.351L244.08 349.751L243.52 349.331L236.32 358.931ZM235.354 351.434C231.808 357.264 228.397 366.151 225.804 374.713C223.205 383.295 221.205 392.296 220.774 398.517L232.746 399.345C233.085 394.436 234.795 386.427 237.289 378.191C239.788 369.936 242.852 362.198 245.607 357.669L235.354 351.434ZM226.76 392.931L226.48 392.931L226.48 404.931L226.76 404.931L226.76 392.931ZM232.465 398.509C232.034 392.393 230.05 383.497 227.442 374.939C224.835 366.388 221.392 357.47 217.756 351.449L207.484 357.653C210.358 362.413 213.46 370.224 215.963 378.438C218.465 386.645 220.156 394.549 220.495 399.353L232.465 398.509Z" fill="black" mask="url(#path-8-outside-1_611_389)"/>
<path d="M376.354 685.905C376.354 770.786 307.694 839.587 223.007 839.587C138.32 839.587 69.6602 770.786 69.6602 685.905C69.6602 601.025 138.32 532.224 223.007 532.224C307.694 532.224 376.354 601.025 376.354 685.905Z" fill="black" stroke="white" stroke-width="4"/>
<path d="M523.816 685.905C523.816 521.76 391.036 388.694 227.244 388.694C63.4524 388.694 -69.3271 521.76 -69.3271 685.905" stroke="white" stroke-width="4"/>
<mask id="path-12-outside-2_611_389" maskUnits="userSpaceOnUse" x="204.322" y="329.082" width="40" height="67" fill="black">
<rect fill="white" x="204.322" y="329.082" width="40" height="67"/>
<path d="M212.322 351.342L212.802 350.982C216.642 352.242 221.142 355.002 223.602 357.342L222.282 335.142L226.362 335.142L224.922 357.342C227.442 354.942 232.062 352.122 235.722 350.982L236.202 351.342C230.802 360.222 225.102 379.842 224.442 389.382L224.202 389.382C223.542 380.022 217.902 360.582 212.322 351.342Z"/>
</mask>
<path d="M212.322 351.342L212.802 350.982C216.642 352.242 221.142 355.002 223.602 357.342L222.282 335.142L226.362 335.142L224.922 357.342C227.442 354.942 232.062 352.122 235.722 350.982L236.202 351.342C230.802 360.222 225.102 379.842 224.442 389.382L224.202 389.382C223.542 380.022 217.902 360.582 212.322 351.342Z" fill="white"/>
<path d="M212.322 351.342L208.722 346.542L204.381 349.798L207.186 354.444L212.322 351.342ZM212.802 350.982L214.673 345.281L211.703 344.307L209.202 346.182L212.802 350.982ZM223.602 357.342L219.467 361.689L230.495 372.18L229.592 356.986L223.602 357.342ZM222.282 335.142L222.282 329.142L215.915 329.142L216.293 335.498L222.282 335.142ZM226.362 335.142L232.35 335.53L232.764 329.142L226.362 329.142L226.362 335.142ZM224.922 357.342L218.935 356.954L217.941 372.277L229.06 361.687L224.922 357.342ZM235.722 350.982L239.322 346.182L236.868 344.341L233.938 345.253L235.722 350.982ZM236.202 351.342L241.329 354.46L244.157 349.808L239.802 346.542L236.202 351.342ZM224.442 389.382L224.442 395.382L230.042 395.382L230.428 389.796L224.442 389.382ZM224.202 389.382L218.217 389.804L218.61 395.382L224.202 395.382L224.202 389.382ZM215.922 356.142L216.402 355.782L209.202 346.182L208.722 346.542L215.922 356.142ZM210.932 356.683C213.935 357.668 217.659 359.97 219.467 361.689L227.738 352.995C224.625 350.034 219.349 346.816 214.673 345.281L210.932 356.683ZM229.592 356.986L228.272 334.786L216.293 335.498L217.613 357.698L229.592 356.986ZM222.282 341.142L226.362 341.142L226.362 329.142L222.282 329.142L222.282 341.142ZM220.375 334.754L218.935 356.954L230.91 357.73L232.35 335.53L220.375 334.754ZM229.06 361.687C230.946 359.891 234.77 357.563 237.507 356.711L233.938 345.253C229.355 346.681 223.939 349.993 220.784 352.997L229.06 361.687ZM232.122 355.782L232.602 356.142L239.802 346.542L239.322 346.182L232.122 355.782ZM231.076 348.225C227.98 353.315 225.031 361.014 222.802 368.376C220.567 375.756 218.832 383.542 218.457 388.968L230.428 389.796C230.713 385.682 232.157 378.888 234.287 371.853C236.423 364.8 239.024 358.249 241.329 354.46L231.076 348.225ZM224.442 383.382L224.202 383.382L224.202 395.382L224.442 395.382L224.442 383.382ZM230.187 388.96C229.811 383.624 228.09 375.928 225.847 368.568C223.605 361.214 220.629 353.491 217.458 348.24L207.186 354.444C209.596 358.433 212.229 365.05 214.368 372.066C216.505 379.076 217.933 385.78 218.217 389.804L230.187 388.96Z" fill="black" mask="url(#path-12-outside-2_611_389)"/>
<mask id="path-14-outside-3_611_389" maskUnits="userSpaceOnUse" x="509.244" y="667.346" width="67" height="40" fill="black">
<rect fill="white" x="509.244" y="667.346" width="67" height="40"/>
<path d="M553.984 675.346L554.344 675.826C553.084 679.666 550.324 684.166 547.984 686.626L570.184 685.306L570.184 689.386L547.984 687.946C550.384 690.466 553.204 695.086 554.344 698.746L553.984 699.226C545.104 693.826 525.484 688.126 515.944 687.466L515.944 687.226C525.304 686.566 544.744 680.926 553.984 675.346Z"/>
</mask>
<path d="M553.984 675.346L554.344 675.826C553.084 679.666 550.324 684.166 547.984 686.626L570.184 685.306L570.184 689.386L547.984 687.946C550.384 690.466 553.204 695.086 554.344 698.746L553.984 699.226C545.104 693.826 525.484 688.126 515.944 687.466L515.944 687.226C525.304 686.566 544.744 680.926 553.984 675.346Z" fill="white"/>
<path d="M553.984 675.346L558.784 671.746L555.528 667.404L550.882 670.21L553.984 675.346ZM554.344 675.826L560.045 677.696L561.02 674.726L559.144 672.226L554.344 675.826ZM547.984 686.626L543.637 682.49L533.147 693.519L548.34 692.615L547.984 686.626ZM570.184 685.306L576.184 685.306L576.184 678.938L569.828 679.316L570.184 685.306ZM570.184 689.386L569.796 695.373L576.184 695.788L576.184 689.386L570.184 689.386ZM547.984 687.946L548.373 681.958L533.05 680.964L543.639 692.084L547.984 687.946ZM554.344 698.746L559.144 702.346L560.985 699.891L560.073 696.961L554.344 698.746ZM553.984 699.226L550.867 704.352L555.518 707.181L558.784 702.826L553.984 699.226ZM515.944 687.466L509.944 687.466L509.944 693.065L515.53 693.451L515.944 687.466ZM515.944 687.226L515.522 681.241L509.944 681.634L509.944 687.226L515.944 687.226ZM549.184 678.946L549.544 679.426L559.144 672.226L558.784 671.746L549.184 678.946ZM548.643 673.955C547.658 676.958 545.356 680.683 543.637 682.49L552.331 690.761C555.292 687.649 558.511 682.373 560.045 677.696L548.643 673.955ZM548.34 692.615L570.54 691.295L569.828 679.316L547.628 680.636L548.34 692.615ZM564.184 685.306L564.184 689.386L576.184 689.386L576.184 685.306L564.184 685.306ZM570.573 683.398L548.373 681.958L547.596 693.933L569.796 695.373L570.573 683.398ZM543.639 692.084C545.435 693.969 547.763 697.793 548.616 700.53L560.073 696.961C558.645 692.378 555.333 686.962 552.329 683.808L543.639 692.084ZM549.544 695.146L549.184 695.626L558.784 702.826L559.144 702.346L549.544 695.146ZM557.102 694.099C552.011 691.004 544.312 688.055 536.951 685.826C529.57 683.591 521.784 681.855 516.358 681.48L515.53 693.451C519.644 693.736 526.438 695.181 533.473 697.311C540.526 699.447 547.077 702.048 550.867 704.352L557.102 694.099ZM521.944 687.466L521.944 687.226L509.944 687.226L509.944 687.466L521.944 687.466ZM516.366 693.211C521.702 692.835 529.398 691.113 536.758 688.87C544.112 686.629 551.836 683.652 557.086 680.482L550.882 670.21C546.893 672.619 540.276 675.253 533.26 677.391C526.25 679.528 519.546 680.957 515.522 681.241L516.366 693.211Z" fill="black" mask="url(#path-14-outside-3_611_389)"/>
<mask id="path-16-outside-4_611_389" maskUnits="userSpaceOnUse" x="204.322" y="57.3457" width="40" height="67" fill="black">
<rect fill="white" x="204.322" y="57.3457" width="40" height="67"/>
<path d="M212.322 79.6057L212.802 79.2457C216.642 80.5057 221.142 83.2657 223.602 85.6057L222.282 63.4057L226.362 63.4057L224.922 85.6057C227.442 83.2057 232.062 80.3857 235.722 79.2457L236.202 79.6057C230.802 88.4857 225.102 108.106 224.442 117.646L224.202 117.646C223.542 108.286 217.902 88.8457 212.322 79.6057Z"/>
</mask>
<path d="M212.322 79.6057L212.802 79.2457C216.642 80.5057 221.142 83.2657 223.602 85.6057L222.282 63.4057L226.362 63.4057L224.922 85.6057C227.442 83.2057 232.062 80.3857 235.722 79.2457L236.202 79.6057C230.802 88.4857 225.102 108.106 224.442 117.646L224.202 117.646C223.542 108.286 217.902 88.8457 212.322 79.6057Z" fill="white"/>
<path d="M212.322 79.6057L208.722 74.8057L204.381 78.0618L207.186 82.7074L212.322 79.6057ZM212.802 79.2457L214.673 73.5448L211.703 72.5702L209.202 74.4457L212.802 79.2457ZM223.602 85.6057L219.467 89.9531L230.495 100.443L229.592 85.2496L223.602 85.6057ZM222.282 63.4057L222.282 57.4057L215.915 57.4057L216.293 63.7618L222.282 63.4057ZM226.362 63.4057L232.35 63.7941L232.764 57.4057L226.362 57.4057L226.362 63.4057ZM224.922 85.6057L218.935 85.2173L217.941 100.54L229.06 89.9505L224.922 85.6057ZM235.722 79.2457L239.322 74.4457L236.868 72.6047L233.938 73.5172L235.722 79.2457ZM236.202 79.6057L241.329 82.7232L244.157 78.0719L239.802 74.8057L236.202 79.6057ZM224.442 117.646L224.442 123.646L230.042 123.646L230.428 118.06L224.442 117.646ZM224.202 117.646L218.217 118.068L218.61 123.646L224.202 123.646L224.202 117.646ZM215.922 84.4057L216.402 84.0457L209.202 74.4457L208.722 74.8057L215.922 84.4057ZM210.932 84.9466C213.935 85.9321 217.659 88.2334 219.467 89.9531L227.738 81.2584C224.625 78.298 219.349 75.0793 214.673 73.5448L210.932 84.9466ZM229.592 85.2496L228.272 63.0496L216.293 63.7618L217.613 85.9618L229.592 85.2496ZM222.282 69.4057L226.362 69.4057L226.362 57.4057L222.282 57.4057L222.282 69.4057ZM220.375 63.0173L218.935 85.2173L230.91 85.9941L232.35 63.7941L220.375 63.0173ZM229.06 89.9505C230.946 88.155 234.77 85.8267 237.507 84.9743L233.938 73.5172C229.355 74.9447 223.939 78.2564 220.784 81.2609L229.06 89.9505ZM232.122 84.0457L232.602 84.4057L239.802 74.8057L239.322 74.4457L232.122 84.0457ZM231.076 76.4882C227.98 81.5789 225.031 89.2778 222.802 96.6393C220.567 104.02 218.832 111.806 218.457 117.232L230.428 118.06C230.713 113.946 232.157 107.151 234.287 100.117C236.423 93.0636 239.024 86.5125 241.329 82.7232L231.076 76.4882ZM224.442 111.646L224.202 111.646L224.202 123.646L224.442 123.646L224.442 111.646ZM230.187 117.224C229.811 111.887 228.09 104.192 225.847 96.8313C223.605 89.4774 220.629 81.7543 217.458 76.504L207.186 82.7074C209.596 86.6972 212.229 93.314 214.368 100.33C216.505 107.34 217.933 114.044 218.217 118.068L230.187 117.224Z" fill="black" mask="url(#path-16-outside-4_611_389)"/>
<mask id="path-18-outside-5_611_389" maskUnits="userSpaceOnUse" x="650.469" y="667.345" width="67" height="40" fill="black">
<rect fill="white" x="650.469" y="667.345" width="67" height="40"/>
<path d="M695.209 675.345L695.569 675.825C694.309 679.665 691.549 684.165 689.209 686.625L711.409 685.305L711.409 689.385L689.209 687.945C691.609 690.465 694.429 695.085 695.569 698.745L695.209 699.225C686.329 693.825 666.709 688.125 657.169 687.465L657.169 687.225C666.529 686.565 685.969 680.925 695.209 675.345Z"/>
</mask>
<path d="M695.209 675.345L695.569 675.825C694.309 679.665 691.549 684.165 689.209 686.625L711.409 685.305L711.409 689.385L689.209 687.945C691.609 690.465 694.429 695.085 695.569 698.745L695.209 699.225C686.329 693.825 666.709 688.125 657.169 687.465L657.169 687.225C666.529 686.565 685.969 680.925 695.209 675.345Z" fill="white"/>
<path d="M695.209 675.345L700.009 671.745L696.753 667.403L692.107 670.209L695.209 675.345ZM695.569 675.825L701.27 677.695L702.244 674.725L700.369 672.225L695.569 675.825ZM689.209 686.625L684.861 682.489L674.371 693.518L689.565 692.614L689.209 686.625ZM711.409 685.305L717.409 685.305L717.409 678.937L711.053 679.315L711.409 685.305ZM711.409 689.385L711.02 695.372L717.409 695.787L717.409 689.385L711.409 689.385ZM689.209 687.945L689.597 681.957L674.274 680.963L684.864 692.083L689.209 687.945ZM695.569 698.745L700.369 702.345L702.21 699.89L701.297 696.96L695.569 698.745ZM695.209 699.225L692.091 704.351L696.743 707.18L700.009 702.825L695.209 699.225ZM657.169 687.465L651.169 687.465L651.169 693.064L656.755 693.45L657.169 687.465ZM657.169 687.225L656.747 681.24L651.169 681.633L651.169 687.225L657.169 687.225ZM690.409 678.945L690.769 679.425L700.369 672.225L700.009 671.745L690.409 678.945ZM689.868 673.954C688.882 676.957 686.581 680.682 684.861 682.489L693.556 690.76C696.516 687.648 699.735 682.372 701.27 677.695L689.868 673.954ZM689.565 692.614L711.765 691.294L711.053 679.315L688.853 680.635L689.565 692.614ZM705.409 685.305L705.409 689.385L717.409 689.385L717.409 685.305L705.409 685.305ZM711.797 683.397L689.597 681.957L688.82 693.932L711.02 695.372L711.797 683.397ZM684.864 692.083C686.659 693.968 688.988 697.792 689.84 700.529L701.297 696.96C699.87 692.377 696.558 686.961 693.554 683.807L684.864 692.083ZM690.769 695.145L690.409 695.625L700.009 702.825L700.369 702.345L690.769 695.145ZM698.326 694.098C693.236 691.003 685.537 688.054 678.175 685.825C670.794 683.59 663.009 681.854 657.583 681.479L656.755 693.45C660.869 693.735 667.663 695.18 674.697 697.31C681.751 699.446 688.302 702.047 692.091 704.351L698.326 694.098ZM663.169 687.465L663.169 687.225L651.169 687.225L651.169 687.465L663.169 687.465ZM657.591 693.21C662.927 692.834 670.623 691.112 677.983 688.869C685.337 686.628 693.06 683.651 698.31 680.481L692.107 670.209C688.117 672.618 681.5 675.252 674.484 677.39C667.475 679.527 660.77 680.956 656.747 681.24L657.591 693.21Z" fill="black" mask="url(#path-18-outside-5_611_389)"/>
<mask id="path-20-outside-6_611_389" maskUnits="userSpaceOnUse" x="204.322" y="191.798" width="40" height="67" fill="black">
<rect fill="white" x="204.322" y="191.798" width="40" height="67"/>
<path d="M212.322 214.058L212.802 213.698C216.642 214.958 221.142 217.718 223.602 220.058L222.282 197.858L226.362 197.858L224.922 220.058C227.442 217.658 232.062 214.838 235.722 213.698L236.202 214.058C230.802 222.938 225.102 242.558 224.442 252.098L224.202 252.098C223.542 242.738 217.902 223.298 212.322 214.058Z"/>
</mask>
<path d="M212.322 214.058L212.802 213.698C216.642 214.958 221.142 217.718 223.602 220.058L222.282 197.858L226.362 197.858L224.922 220.058C227.442 217.658 232.062 214.838 235.722 213.698L236.202 214.058C230.802 222.938 225.102 242.558 224.442 252.098L224.202 252.098C223.542 242.738 217.902 223.298 212.322 214.058Z" fill="white"/>
<path d="M212.322 214.058L208.722 209.258L204.381 212.514L207.186 217.16L212.322 214.058ZM212.802 213.698L214.673 207.997L211.703 207.022L209.202 208.898L212.802 213.698ZM223.602 220.058L219.467 224.405L230.495 234.895L229.592 219.702L223.602 220.058ZM222.282 197.858L222.282 191.858L215.915 191.858L216.293 198.214L222.282 197.858ZM226.362 197.858L232.35 198.246L232.764 191.858L226.362 191.858L226.362 197.858ZM224.922 220.058L218.935 219.669L217.941 234.992L229.06 224.403L224.922 220.058ZM235.722 213.698L239.322 208.898L236.868 207.057L233.938 207.969L235.722 213.698ZM236.202 214.058L241.329 217.175L244.157 212.524L239.802 209.258L236.202 214.058ZM224.442 252.098L224.442 258.098L230.042 258.098L230.428 252.512L224.442 252.098ZM224.202 252.098L218.217 252.52L218.61 258.098L224.202 258.098L224.202 252.098ZM215.922 218.858L216.402 218.498L209.202 208.898L208.722 209.258L215.922 218.858ZM210.932 219.399C213.935 220.384 217.659 222.686 219.467 224.405L227.738 215.711C224.625 212.75 219.349 209.531 214.673 207.997L210.932 219.399ZM229.592 219.702L228.272 197.502L216.293 198.214L217.613 220.414L229.592 219.702ZM222.282 203.858L226.362 203.858L226.362 191.858L222.282 191.858L222.282 203.858ZM220.375 197.469L218.935 219.669L230.91 220.446L232.35 198.246L220.375 197.469ZM229.06 224.403C230.946 222.607 234.77 220.279 237.507 219.426L233.938 207.969C229.355 209.397 223.939 212.709 220.784 215.713L229.06 224.403ZM232.122 218.498L232.602 218.858L239.802 209.258L239.322 208.898L232.122 218.498ZM231.076 210.94C227.98 216.031 225.031 223.73 222.802 231.091C220.567 238.472 218.832 246.258 218.457 251.684L230.428 252.512C230.713 248.398 232.157 241.604 234.287 234.569C236.423 227.516 239.024 220.965 241.329 217.175L231.076 210.94ZM224.442 246.098L224.202 246.098L224.202 258.098L224.442 258.098L224.442 246.098ZM230.187 251.676C229.811 246.34 228.09 238.644 225.847 231.283C223.605 223.93 220.629 216.206 217.458 210.956L207.186 217.16C209.596 221.149 212.229 227.766 214.368 234.782C216.505 241.792 217.933 248.496 218.217 252.52L230.187 251.676Z" fill="black" mask="url(#path-20-outside-6_611_389)"/>
<path d="M-295.286 685.903H745.538" stroke="white" stroke-width="4"/>
<path d="M223.008 -57.123L223.008 1420.44" stroke="white" stroke-width="4"/>
<path d="M376.355 685.903C376.355 770.784 307.695 839.585 223.008 839.585C138.321 839.585 69.6611 770.784 69.6611 685.903C69.6611 601.023 138.321 532.222 223.008 532.222C307.695 532.222 376.355 601.023 376.355 685.903Z" fill="black" stroke="white" stroke-width="4"/>
</g>
</svg>
