<svg width="735" height="930" viewBox="0 0 735 930" fill="none" xmlns="http://www.w3.org/2000/svg">
<rect width="735" height="900" fill="black"/>
<rect width="735" height="930" fill="black"/>
<mask id="mask0_611_256" style="mask-type:alpha" maskUnits="userSpaceOnUse" x="0" y="0" width="735" height="928">
<rect width="735" height="928" fill="black"/>
</mask>
<g mask="url(#mask0_611_256)">
<path d="M747.206 712.634C747.206 501.357 575.933 330.083 364.656 330.083C153.379 330.083 -17.895 501.357 -17.895 712.634" stroke="white" stroke-width="4"/>
<path d="M874.312 718.804C874.312 439.373 647.788 212.85 368.357 212.85C88.9267 212.85 -137.597 439.373 -137.597 718.804" stroke="white" stroke-width="4"/>
<path d="M997.715 712.634C997.715 365.049 715.942 83.2764 368.358 83.2764C20.773 83.2764 -261 365.049 -261 712.634" stroke="white" stroke-width="4"/>
<circle cx="364.655" cy="713.868" r="133.244" fill="black" stroke="white" stroke-width="5"/>
<path d="M627.504 713.869C627.504 570.746 511.48 454.722 368.357 454.722C225.234 454.722 109.21 570.746 109.21 713.869" stroke="white" stroke-width="5"/>
<mask id="path-9-outside-1_611_256" maskUnits="userSpaceOnUse" x="58.083" y="691.401" width="76" height="44" fill="black">
<rect fill="white" x="58.083" y="691.401" width="76" height="44"/>
<path d="M83.553 727.401L83.133 726.841C84.603 722.361 87.823 717.111 90.553 714.241L64.653 715.781V711.021L90.553 712.701C87.753 709.761 84.463 704.371 83.133 700.101L83.553 699.541C93.913 705.841 116.803 712.491 127.933 713.261V713.541C117.013 714.311 94.333 720.891 83.553 727.401Z"/>
</mask>
<path d="M83.553 727.401L83.133 726.841C84.603 722.361 87.823 717.111 90.553 714.241L64.653 715.781V711.021L90.553 712.701C87.753 709.761 84.463 704.371 83.133 700.101L83.553 699.541C93.913 705.841 116.803 712.491 127.933 713.261V713.541C117.013 714.311 94.333 720.891 83.553 727.401Z" fill="white"/>
<path d="M83.553 727.401L78.753 731.001L82.0091 735.343L86.6547 732.537L83.553 727.401ZM83.133 726.841L77.4321 724.971L76.4575 727.941L78.333 730.441L83.133 726.841ZM90.553 714.241L94.9004 718.377L105.391 707.349L90.1969 708.252L90.553 714.241ZM64.653 715.781H58.653V722.149L65.0091 721.771L64.653 715.781ZM64.653 711.021L65.0414 705.034L58.653 704.62V711.021H64.653ZM90.553 712.701L90.1646 718.689L105.488 719.683L94.8978 708.563L90.553 712.701ZM83.133 700.101L78.333 696.501L76.492 698.956L77.4045 701.886L83.133 700.101ZM83.553 699.541L86.6705 694.415L82.0192 691.586L78.753 695.941L83.553 699.541ZM127.933 713.261H133.933V707.662L128.347 707.276L127.933 713.261ZM127.933 713.541L128.355 719.527L133.933 719.133V713.541H127.933ZM88.353 723.801L87.933 723.241L78.333 730.441L78.753 731.001L88.353 723.801ZM88.834 728.712C90.0294 725.069 92.7908 720.594 94.9004 718.377L86.2057 710.106C82.8553 713.628 79.1766 719.654 77.4321 724.971L88.834 728.712ZM90.1969 708.252L64.2969 709.792L65.0091 721.771L90.9091 720.231L90.1969 708.252ZM70.653 715.781V711.021H58.653V715.781H70.653ZM64.2646 717.009L90.1646 718.689L90.9414 706.714L65.0414 705.034L64.2646 717.009ZM94.8978 708.563C92.7023 706.258 89.904 701.664 88.8616 698.317L77.4045 701.886C79.022 707.079 82.8037 713.265 86.2082 716.839L94.8978 708.563ZM87.933 703.701L88.353 703.141L78.753 695.941L78.333 696.501L87.933 703.701ZM80.4355 704.668C86.2662 708.214 95.1526 711.625 103.715 714.218C112.297 716.816 121.298 718.817 127.519 719.247L128.347 707.276C123.438 706.936 115.429 705.226 107.193 702.733C98.9384 700.233 91.1998 697.169 86.6705 694.415L80.4355 704.668ZM121.933 713.261V713.541H133.933V713.261H121.933ZM127.511 707.556C121.395 707.988 112.499 709.971 103.941 712.58C95.3897 715.186 86.4716 718.63 80.4513 722.265L86.6547 732.537C91.4145 729.663 99.2263 726.562 107.44 724.058C115.647 721.557 123.551 719.865 128.355 719.527L127.511 707.556Z" fill="black" mask="url(#path-9-outside-1_611_256)"/>
<mask id="path-11-outside-2_611_256" maskUnits="userSpaceOnUse" x="344.357" y="402.36" width="44" height="76" fill="black">
<rect fill="white" x="344.357" y="402.36" width="44" height="76"/>
<path d="M352.357 427.83L352.917 427.41C357.397 428.88 362.647 432.1 365.517 434.83L363.977 408.93L368.737 408.93L367.057 434.83C369.997 432.03 375.387 428.74 379.657 427.41L380.217 427.83C373.917 438.19 367.267 461.08 366.497 472.21L366.217 472.21C365.447 461.29 358.867 438.61 352.357 427.83Z"/>
</mask>
<path d="M352.357 427.83L352.917 427.41C357.397 428.88 362.647 432.1 365.517 434.83L363.977 408.93L368.737 408.93L367.057 434.83C369.997 432.03 375.387 428.74 379.657 427.41L380.217 427.83C373.917 438.19 367.267 461.08 366.497 472.21L366.217 472.21C365.447 461.29 358.867 438.61 352.357 427.83Z" fill="white"/>
<path d="M352.357 427.83L348.757 423.03L344.416 426.286L347.221 430.932L352.357 427.83ZM352.917 427.41L354.788 421.709L351.818 420.735L349.317 422.61L352.917 427.41ZM365.517 434.83L361.382 439.178L372.41 449.668L371.507 434.474L365.517 434.83ZM363.977 408.93L363.977 402.93L357.61 402.93L357.988 409.286L363.977 408.93ZM368.737 408.93L374.725 409.319L375.139 402.93L368.737 402.93L368.737 408.93ZM367.057 434.83L361.07 434.442L360.076 449.765L371.195 439.175L367.057 434.83ZM379.657 427.41L383.257 422.61L380.803 420.769L377.873 421.682L379.657 427.41ZM380.217 427.83L385.344 430.948L388.172 426.297L383.817 423.03L380.217 427.83ZM366.497 472.21L366.497 478.21L372.097 478.21L372.483 472.624L366.497 472.21ZM366.217 472.21L360.232 472.632L360.626 478.21L366.217 478.21L366.217 472.21ZM355.957 432.63L356.517 432.21L349.317 422.61L348.757 423.03L355.957 432.63ZM351.047 433.111C354.69 434.307 359.164 437.068 361.382 439.178L369.653 430.483C366.13 427.133 360.105 423.454 354.788 421.709L351.047 433.111ZM371.507 434.474L369.967 408.574L357.988 409.286L359.528 435.186L371.507 434.474ZM363.977 414.93L368.737 414.93L368.737 402.93L363.977 402.93L363.977 414.93ZM362.75 408.542L361.07 434.442L373.045 435.219L374.725 409.319L362.75 408.542ZM371.195 439.175C373.501 436.98 378.095 434.181 381.442 433.139L377.873 421.682C372.68 423.299 366.494 427.081 362.919 430.486L371.195 439.175ZM376.057 432.21L376.617 432.63L383.817 423.03L383.257 422.61L376.057 432.21ZM375.091 424.713C371.545 430.544 368.134 439.43 365.541 447.993C362.942 456.575 360.942 465.575 360.512 471.796L372.483 472.624C372.823 467.715 374.532 459.706 377.026 451.47C379.526 443.216 382.59 435.477 385.344 430.948L375.091 424.713ZM366.497 466.21L366.217 466.21L366.217 478.21L366.497 478.21L366.497 466.21ZM372.203 471.788C371.771 465.672 369.788 456.776 367.179 448.218C364.573 439.667 361.129 430.749 357.494 424.729L347.221 430.932C350.096 435.692 353.197 443.504 355.701 451.717C358.202 459.925 359.894 467.829 360.232 472.632L372.203 471.788Z" fill="black" mask="url(#path-11-outside-2_611_256)"/>
<circle cx="364.655" cy="713.869" r="133.744" fill="black" stroke="white" stroke-width="4"/>
<path d="M627.504 713.869C627.504 570.746 511.48 454.722 368.357 454.722C225.234 454.722 109.21 570.746 109.21 713.869" stroke="white" stroke-width="4"/>
<mask id="path-15-outside-3_611_256" maskUnits="userSpaceOnUse" x="61.7852" y="693.04" width="67" height="40" fill="black">
<rect fill="white" x="61.7852" y="693.04" width="67" height="40"/>
<path d="M84.0452 725.04L83.6852 724.56C84.9452 720.72 87.7052 716.22 90.0452 713.76L67.8452 715.08V711L90.0452 712.44C87.6452 709.92 84.8252 705.3 83.6852 701.64L84.0452 701.16C92.9252 706.56 112.545 712.26 122.085 712.92V713.16C112.725 713.82 93.2852 719.46 84.0452 725.04Z"/>
</mask>
<path d="M84.0452 725.04L83.6852 724.56C84.9452 720.72 87.7052 716.22 90.0452 713.76L67.8452 715.08V711L90.0452 712.44C87.6452 709.92 84.8252 705.3 83.6852 701.64L84.0452 701.16C92.9252 706.56 112.545 712.26 122.085 712.92V713.16C112.725 713.82 93.2852 719.46 84.0452 725.04Z" fill="white"/>
<path d="M84.0452 725.04L79.2452 728.64L82.5013 732.982L87.1468 730.176L84.0452 725.04ZM83.6852 724.56L77.9842 722.689L77.0097 725.659L78.8852 728.16L83.6852 724.56ZM90.0452 713.76L94.3925 717.895L104.883 706.867L89.689 707.771L90.0452 713.76ZM67.8452 715.08H61.8452V721.447L68.2013 721.069L67.8452 715.08ZM67.8452 711L68.2335 705.013L61.8452 704.598V711H67.8452ZM90.0452 712.44L89.6568 718.427L104.98 719.421L94.39 708.302L90.0452 712.44ZM83.6852 701.64L78.8851 698.04L77.0441 700.495L77.9566 703.424L83.6852 701.64ZM84.0452 701.16L87.1626 696.034L82.5114 693.205L79.2451 697.56L84.0452 701.16ZM122.085 712.92H128.085V707.321L122.499 706.934L122.085 712.92ZM122.085 713.16L122.507 719.145L128.085 718.752V713.16H122.085ZM88.8452 721.44L88.4852 720.96L78.8852 728.16L79.2452 728.64L88.8452 721.44ZM89.3861 726.431C90.3716 723.427 92.6729 719.703 94.3925 717.895L85.6978 709.625C82.7374 712.737 79.5187 718.013 77.9842 722.689L89.3861 726.431ZM89.689 707.771L67.489 709.091L68.2013 721.069L90.4013 719.749L89.689 707.771ZM73.8452 715.08V711H61.8452V715.08H73.8452ZM67.4568 716.987L89.6568 718.427L90.4335 706.453L68.2335 705.013L67.4568 716.987ZM94.39 708.302C92.5945 706.417 90.2662 702.593 89.4137 699.856L77.9566 703.424C79.3841 708.007 82.6959 713.423 85.7003 716.578L94.39 708.302ZM88.4852 705.24L88.8452 704.76L79.2451 697.56L78.8851 698.04L88.4852 705.24ZM80.9277 706.287C86.0183 709.382 93.7172 712.331 101.079 714.56C108.459 716.795 116.245 718.53 121.671 718.906L122.499 706.934C118.385 706.65 111.591 705.205 104.557 703.075C97.5031 700.939 90.952 698.338 87.1626 696.034L80.9277 706.287ZM116.085 712.92V713.16H128.085V712.92H116.085ZM121.663 707.175C116.327 707.551 108.631 709.272 101.271 711.516C93.9169 713.757 86.1937 716.733 80.9435 719.904L87.1468 730.176C91.1366 727.767 97.7534 725.133 104.77 722.994C111.779 720.858 118.483 719.429 122.507 719.145L121.663 707.175Z" fill="black" mask="url(#path-15-outside-3_611_256)"/>
<mask id="path-17-outside-4_611_256" maskUnits="userSpaceOnUse" x="345.485" y="402.36" width="40" height="67" fill="black">
<rect fill="white" x="345.485" y="402.36" width="40" height="67"/>
<path d="M353.485 424.62L353.965 424.26C357.805 425.52 362.305 428.28 364.765 430.62L363.445 408.42L367.525 408.42L366.085 430.62C368.605 428.22 373.225 425.4 376.885 424.26L377.365 424.62C371.965 433.5 366.265 453.12 365.605 462.66L365.365 462.66C364.705 453.3 359.065 433.86 353.485 424.62Z"/>
</mask>
<path d="M353.485 424.62L353.965 424.26C357.805 425.52 362.305 428.28 364.765 430.62L363.445 408.42L367.525 408.42L366.085 430.62C368.605 428.22 373.225 425.4 376.885 424.26L377.365 424.62C371.965 433.5 366.265 453.12 365.605 462.66L365.365 462.66C364.705 453.3 359.065 433.86 353.485 424.62Z" fill="white"/>
<path d="M353.485 424.62L349.885 419.82L345.544 423.076L348.349 427.722L353.485 424.62ZM353.965 424.26L355.836 418.559L352.866 417.585L350.365 419.46L353.965 424.26ZM364.765 430.62L360.63 434.968L371.658 445.458L370.755 430.264L364.765 430.62ZM363.445 408.42L363.445 402.42L357.078 402.42L357.456 408.776L363.445 408.42ZM367.525 408.42L373.513 408.809L373.927 402.42L367.525 402.42L367.525 408.42ZM366.085 430.62L360.098 430.232L359.104 445.555L370.223 434.965L366.085 430.62ZM376.885 424.26L380.485 419.46L378.031 417.619L375.101 418.532L376.885 424.26ZM377.365 424.62L382.492 427.738L385.32 423.087L380.965 419.82L377.365 424.62ZM365.605 462.66L365.605 468.66L371.205 468.66L371.591 463.074L365.605 462.66ZM365.365 462.66L359.38 463.082L359.774 468.66L365.365 468.66L365.365 462.66ZM357.085 429.42L357.565 429.06L350.365 419.46L349.885 419.82L357.085 429.42ZM352.095 429.961C355.098 430.947 358.822 433.248 360.63 434.968L368.901 426.273C365.788 423.313 360.513 420.094 355.836 418.559L352.095 429.961ZM370.755 430.264L369.435 408.064L357.456 408.776L358.776 430.976L370.755 430.264ZM363.445 414.42L367.525 414.42L367.525 402.42L363.445 402.42L363.445 414.42ZM361.538 408.032L360.098 430.232L372.073 431.009L373.513 408.809L361.538 408.032ZM370.223 434.965C372.109 433.17 375.933 430.841 378.67 429.989L375.101 418.532C370.518 419.959 365.102 423.271 361.947 426.276L370.223 434.965ZM373.285 429.06L373.765 429.42L380.965 419.82L380.485 419.46L373.285 429.06ZM372.239 421.503C369.143 426.594 366.194 434.292 363.965 441.654C361.73 449.035 359.995 456.82 359.62 462.246L371.591 463.074C371.876 458.96 373.32 452.166 375.45 445.132C377.586 438.078 380.188 431.527 382.492 427.738L372.239 421.503ZM365.605 456.66L365.365 456.66L365.365 468.66L365.605 468.66L365.605 456.66ZM371.35 462.238C370.974 456.902 369.253 449.206 367.01 441.846C364.768 434.492 361.792 426.769 358.621 421.519L348.349 427.722C350.759 431.712 353.393 438.329 355.531 445.345C357.668 452.355 359.096 459.059 359.38 463.082L371.35 462.238Z" fill="black" mask="url(#path-17-outside-4_611_256)"/>
<mask id="path-19-outside-5_611_256" maskUnits="userSpaceOnUse" x="606.696" y="694.698" width="67" height="40" fill="black">
<rect fill="white" x="606.696" y="694.698" width="67" height="40"/>
<path d="M651.436 702.698L651.796 703.178C650.536 707.018 647.776 711.518 645.436 713.978L667.636 712.658L667.636 716.738L645.436 715.298C647.836 717.818 650.656 722.438 651.796 726.098L651.436 726.578C642.556 721.178 622.936 715.478 613.396 714.818L613.396 714.578C622.756 713.918 642.196 708.278 651.436 702.698Z"/>
</mask>
<path d="M651.436 702.698L651.796 703.178C650.536 707.018 647.776 711.518 645.436 713.978L667.636 712.658L667.636 716.738L645.436 715.298C647.836 717.818 650.656 722.438 651.796 726.098L651.436 726.578C642.556 721.178 622.936 715.478 613.396 714.818L613.396 714.578C622.756 713.918 642.196 708.278 651.436 702.698Z" fill="white"/>
<path d="M651.436 702.698L656.236 699.098L652.98 694.757L648.335 697.562L651.436 702.698ZM651.796 703.178L657.497 705.049L658.472 702.079L656.596 699.578L651.796 703.178ZM645.436 713.978L641.089 709.843L630.599 720.871L645.792 719.968L645.436 713.978ZM667.636 712.658L673.636 712.658L673.636 706.291L667.28 706.669L667.636 712.658ZM667.636 716.738L667.248 722.726L673.636 723.14L673.636 716.738L667.636 716.738ZM645.436 715.298L645.825 709.311L630.502 708.317L641.091 719.436L645.436 715.298ZM651.796 726.098L656.596 729.698L658.437 727.244L657.525 724.314L651.796 726.098ZM651.436 726.578L648.319 731.705L652.97 734.533L656.236 730.178L651.436 726.578ZM613.396 714.818L607.396 714.818L607.396 720.417L612.982 720.804L613.396 714.818ZM613.396 714.578L612.974 708.593L607.396 708.986L607.396 714.578L613.396 714.578ZM646.636 706.298L646.996 706.778L656.596 699.578L656.236 699.098L646.636 706.298ZM646.095 701.308C645.11 704.311 642.809 708.035 641.089 709.843L649.784 718.114C652.744 715.001 655.963 709.725 657.497 705.049L646.095 701.308ZM645.792 719.968L667.992 718.648L667.28 706.669L645.08 707.989L645.792 719.968ZM661.636 712.658L661.636 716.738L673.636 716.738L673.636 712.658L661.636 712.658ZM668.025 710.751L645.825 709.311L645.048 721.286L667.248 722.726L668.025 710.751ZM641.091 719.436C642.887 721.321 645.215 725.146 646.068 727.883L657.525 724.314C656.097 719.731 652.786 714.315 649.781 711.16L641.091 719.436ZM646.996 722.498L646.636 722.978L656.236 730.178L656.596 729.698L646.996 722.498ZM654.554 721.452C649.463 718.356 641.764 715.407 634.403 713.178C627.022 710.943 619.236 709.208 613.81 708.833L612.982 720.804C617.096 721.089 623.891 722.533 630.925 724.663C637.978 726.799 644.529 729.4 648.319 731.705L654.554 721.452ZM619.396 714.818L619.396 714.578L607.396 714.578L607.396 714.818L619.396 714.818ZM613.818 720.563C619.155 720.187 626.85 718.466 634.211 716.223C641.565 713.981 649.288 711.005 654.538 707.834L648.335 697.562C644.345 699.972 637.728 702.605 630.712 704.744C623.702 706.881 616.998 708.309 612.974 708.593L613.818 720.563Z" fill="black" mask="url(#path-19-outside-5_611_256)"/>
<mask id="path-21-outside-6_611_256" maskUnits="userSpaceOnUse" x="345.485" y="46.4248" width="40" height="67" fill="black">
<rect fill="white" x="345.485" y="46.4248" width="40" height="67"/>
<path d="M353.485 68.6848L353.965 68.3248C357.805 69.5848 362.305 72.3448 364.765 74.6848L363.445 52.4848L367.525 52.4848L366.085 74.6848C368.605 72.2848 373.225 69.4648 376.885 68.3248L377.365 68.6848C371.965 77.5648 366.265 97.1848 365.605 106.725L365.365 106.725C364.705 97.3648 359.065 77.9248 353.485 68.6848Z"/>
</mask>
<path d="M353.485 68.6848L353.965 68.3248C357.805 69.5848 362.305 72.3448 364.765 74.6848L363.445 52.4848L367.525 52.4848L366.085 74.6848C368.605 72.2848 373.225 69.4648 376.885 68.3248L377.365 68.6848C371.965 77.5648 366.265 97.1848 365.605 106.725L365.365 106.725C364.705 97.3648 359.065 77.9248 353.485 68.6848Z" fill="white"/>
<path d="M353.485 68.6848L349.885 63.8848L345.544 67.1409L348.349 71.7865L353.485 68.6848ZM353.965 68.3248L355.836 62.6239L352.866 61.6493L350.365 63.5248L353.965 68.3248ZM364.765 74.6848L360.63 79.0322L371.658 89.5223L370.755 74.3287L364.765 74.6848ZM363.445 52.4848L363.445 46.4848L357.078 46.4848L357.456 52.8409L363.445 52.4848ZM367.525 52.4848L373.513 52.8732L373.927 46.4848L367.525 46.4848L367.525 52.4848ZM366.085 74.6848L360.098 74.2964L359.104 89.6194L370.223 79.0296L366.085 74.6848ZM376.885 68.3248L380.485 63.5248L378.031 61.6838L375.101 62.5963L376.885 68.3248ZM377.365 68.6848L382.492 71.8023L385.32 67.151L380.965 63.8848L377.365 68.6848ZM365.605 106.725L365.605 112.725L371.205 112.725L371.591 107.139L365.605 106.725ZM365.365 106.725L359.38 107.147L359.774 112.725L365.365 112.725L365.365 106.725ZM357.085 73.4848L357.565 73.1248L350.365 63.5248L349.885 63.8848L357.085 73.4848ZM352.095 74.0257C355.098 75.0112 358.822 77.3125 360.63 79.0322L368.901 70.3375C365.788 67.3771 360.513 64.1584 355.836 62.6239L352.095 74.0257ZM370.755 74.3287L369.435 52.1287L357.456 52.8409L358.776 75.0409L370.755 74.3287ZM363.445 58.4848L367.525 58.4848L367.525 46.4848L363.445 46.4848L363.445 58.4848ZM361.538 52.0964L360.098 74.2964L372.073 75.0732L373.513 52.8732L361.538 52.0964ZM370.223 79.0296C372.109 77.2341 375.933 74.9058 378.67 74.0534L375.101 62.5963C370.518 64.0238 365.102 67.3355 361.947 70.34L370.223 79.0296ZM373.285 73.1248L373.765 73.4848L380.965 63.8848L380.485 63.5248L373.285 73.1248ZM372.239 65.5673C369.143 70.658 366.194 78.3569 363.965 85.7184C361.73 93.0991 359.995 100.885 359.62 106.311L371.591 107.139C371.876 103.025 373.32 96.2305 375.45 89.1962C377.586 82.1427 380.188 75.5916 382.492 71.8023L372.239 65.5673ZM365.605 100.725L365.365 100.725L365.365 112.725L365.605 112.725L365.605 100.725ZM371.35 106.303C370.974 100.967 369.253 93.2706 367.01 85.9105C364.768 78.5565 361.792 70.8334 358.621 65.5831L348.349 71.7865C350.759 75.7763 353.393 82.3931 355.531 89.4092C357.668 96.419 359.096 103.123 359.38 107.147L371.35 106.303Z" fill="black" mask="url(#path-21-outside-6_611_256)"/>
<mask id="path-23-outside-7_611_256" maskUnits="userSpaceOnUse" x="-64.0864" y="693.038" width="67" height="40" fill="black">
<rect fill="white" x="-64.0864" y="693.038" width="67" height="40"/>
<path d="M-41.8264 725.038L-42.1864 724.558C-40.9264 720.718 -38.1664 716.218 -35.8264 713.758L-58.0264 715.078V710.998L-35.8264 712.438C-38.2264 709.918 -41.0464 705.298 -42.1864 701.638L-41.8264 701.158C-32.9464 706.558 -13.3264 712.258 -3.78642 712.918V713.158C-13.1464 713.818 -32.5864 719.458 -41.8264 725.038Z"/>
</mask>
<path d="M-41.8264 725.038L-42.1864 724.558C-40.9264 720.718 -38.1664 716.218 -35.8264 713.758L-58.0264 715.078V710.998L-35.8264 712.438C-38.2264 709.918 -41.0464 705.298 -42.1864 701.638L-41.8264 701.158C-32.9464 706.558 -13.3264 712.258 -3.78642 712.918V713.158C-13.1464 713.818 -32.5864 719.458 -41.8264 725.038Z" fill="white"/>
<path d="M-41.8264 725.038L-46.6264 728.638L-43.3703 732.98L-38.7247 730.174L-41.8264 725.038ZM-42.1864 724.558L-47.8874 722.687L-48.8619 725.657L-46.9864 728.158L-42.1864 724.558ZM-35.8264 713.758L-31.4791 717.893L-20.9889 706.865L-36.1826 707.769L-35.8264 713.758ZM-58.0264 715.078H-64.0264V721.445L-57.6703 721.068L-58.0264 715.078ZM-58.0264 710.998L-57.6381 705.011L-64.0264 704.596V710.998H-58.0264ZM-35.8264 712.438L-36.2148 718.426L-20.8918 719.419L-31.4816 708.3L-35.8264 712.438ZM-42.1864 701.638L-46.9864 698.038L-48.8275 700.493L-47.915 703.422L-42.1864 701.638ZM-41.8264 701.158L-38.7089 696.032L-43.3602 693.203L-46.6264 697.558L-41.8264 701.158ZM-3.78642 712.918H2.21358V707.319L-3.37232 706.932L-3.78642 712.918ZM-3.78642 713.158L-3.36439 719.143L2.21358 718.75V713.158H-3.78642ZM-37.0264 721.438L-37.3864 720.958L-46.9864 728.158L-46.6264 728.638L-37.0264 721.438ZM-36.4855 726.429C-35.5 723.425 -33.1987 719.701 -31.4791 717.893L-40.1738 709.623C-43.1342 712.735 -46.3529 718.011 -47.8874 722.687L-36.4855 726.429ZM-36.1826 707.769L-58.3826 709.089L-57.6703 721.068L-35.4703 719.748L-36.1826 707.769ZM-52.0264 715.078V710.998H-64.0264V715.078H-52.0264ZM-58.4148 716.986L-36.2148 718.426L-35.4381 706.451L-57.6381 705.011L-58.4148 716.986ZM-31.4816 708.3C-33.2771 706.415 -35.6054 702.591 -36.4579 699.854L-47.915 703.422C-46.4875 708.005 -43.1757 713.421 -40.1713 716.576L-31.4816 708.3ZM-37.3864 705.238L-37.0264 704.758L-46.6264 697.558L-46.9864 698.038L-37.3864 705.238ZM-44.9439 706.285C-39.8533 709.38 -32.1543 712.329 -24.7928 714.558C-17.4122 716.793 -9.6264 718.528 -4.20053 718.904L-3.37232 706.932C-7.48645 706.648 -14.2807 705.203 -21.315 703.073C-28.3685 700.937 -34.9196 698.336 -38.7089 696.032L-44.9439 706.285ZM-9.78642 712.918V713.158H2.21358V712.918H-9.78642ZM-4.20845 707.173C-9.54468 707.549 -17.2406 709.27 -24.6008 711.514C-31.9547 713.755 -39.6779 716.731 -44.9281 719.902L-38.7247 730.174C-34.735 727.765 -28.1181 725.131 -21.1021 722.992C-14.0922 720.856 -7.38817 719.427 -3.36439 719.143L-4.20845 707.173Z" fill="black" mask="url(#path-23-outside-7_611_256)"/>
<mask id="path-25-outside-8_611_256" maskUnits="userSpaceOnUse" x="345.485" y="165.425" width="40" height="67" fill="black">
<rect fill="white" x="345.485" y="165.425" width="40" height="67"/>
<path d="M353.485 187.685L353.965 187.325C357.805 188.585 362.305 191.345 364.765 193.685L363.445 171.485L367.525 171.485L366.085 193.685C368.605 191.285 373.225 188.465 376.885 187.325L377.365 187.685C371.965 196.565 366.265 216.185 365.605 225.725L365.365 225.725C364.705 216.365 359.065 196.925 353.485 187.685Z"/>
</mask>
<path d="M353.485 187.685L353.965 187.325C357.805 188.585 362.305 191.345 364.765 193.685L363.445 171.485L367.525 171.485L366.085 193.685C368.605 191.285 373.225 188.465 376.885 187.325L377.365 187.685C371.965 196.565 366.265 216.185 365.605 225.725L365.365 225.725C364.705 216.365 359.065 196.925 353.485 187.685Z" fill="white"/>
<path d="M353.485 187.685L349.885 182.885L345.544 186.141L348.349 190.786L353.485 187.685ZM353.965 187.325L355.836 181.624L352.866 180.649L350.365 182.525L353.965 187.325ZM364.765 193.685L360.63 198.032L371.658 208.522L370.755 193.329L364.765 193.685ZM363.445 171.485L363.445 165.485L357.078 165.485L357.456 171.841L363.445 171.485ZM367.525 171.485L373.513 171.873L373.927 165.485L367.525 165.485L367.525 171.485ZM366.085 193.685L360.098 193.296L359.104 208.619L370.223 198.03L366.085 193.685ZM376.885 187.325L380.485 182.525L378.031 180.684L375.101 181.596L376.885 187.325ZM377.365 187.685L382.492 190.802L385.32 186.151L380.965 182.885L377.365 187.685ZM365.605 225.725L365.605 231.725L371.205 231.725L371.591 226.139L365.605 225.725ZM365.365 225.725L359.38 226.147L359.774 231.725L365.365 231.725L365.365 225.725ZM357.085 192.485L357.565 192.125L350.365 182.525L349.885 182.885L357.085 192.485ZM352.095 193.026C355.098 194.011 358.822 196.313 360.63 198.032L368.901 189.337C365.788 186.377 360.513 183.158 355.836 181.624L352.095 193.026ZM370.755 193.329L369.435 171.129L357.456 171.841L358.776 194.041L370.755 193.329ZM363.445 177.485L367.525 177.485L367.525 165.485L363.445 165.485L363.445 177.485ZM361.538 171.096L360.098 193.296L372.073 194.073L373.513 171.873L361.538 171.096ZM370.223 198.03C372.109 196.234 375.933 193.906 378.67 193.053L375.101 181.596C370.518 183.024 365.102 186.336 361.947 189.34L370.223 198.03ZM373.285 192.125L373.765 192.485L380.965 182.885L380.485 182.525L373.285 192.125ZM372.239 184.567C369.143 189.658 366.194 197.357 363.965 204.718C361.73 212.099 359.995 219.885 359.62 225.311L371.591 226.139C371.876 222.025 373.32 215.231 375.45 208.196C377.586 201.143 380.188 194.592 382.492 190.802L372.239 184.567ZM365.605 219.725L365.365 219.725L365.365 231.725L365.605 231.725L365.605 219.725ZM371.35 225.303C370.974 219.967 369.253 212.271 367.01 204.91C364.768 197.557 361.792 189.833 358.621 184.583L348.349 190.786C350.759 194.776 353.393 201.393 355.531 208.409C357.668 215.419 359.096 222.123 359.38 226.147L371.35 225.303Z" fill="black" mask="url(#path-25-outside-8_611_256)"/>
<mask id="path-27-outside-9_611_256" maskUnits="userSpaceOnUse" x="730.1" y="694.697" width="67" height="40" fill="black">
<rect fill="white" x="730.1" y="694.697" width="67" height="40"/>
<path d="M774.84 702.697L775.2 703.177C773.94 707.017 771.18 711.517 768.84 713.977L791.04 712.657L791.04 716.737L768.84 715.297C771.24 717.817 774.06 722.437 775.2 726.097L774.84 726.577C765.96 721.177 746.34 715.477 736.8 714.817L736.8 714.577C746.16 713.917 765.6 708.277 774.84 702.697Z"/>
</mask>
<path d="M774.84 702.697L775.2 703.177C773.94 707.017 771.18 711.517 768.84 713.977L791.04 712.657L791.04 716.737L768.84 715.297C771.24 717.817 774.06 722.437 775.2 726.097L774.84 726.577C765.96 721.177 746.34 715.477 736.8 714.817L736.8 714.577C746.16 713.917 765.6 708.277 774.84 702.697Z" fill="white"/>
<path d="M774.84 702.697L779.64 699.097L776.383 694.756L771.738 697.561L774.84 702.697ZM775.2 703.177L780.901 705.048L781.875 702.078L780 699.577L775.2 703.177ZM768.84 713.977L764.492 709.842L754.002 720.87L769.196 719.967L768.84 713.977ZM791.04 712.657L797.04 712.657L797.04 706.29L790.683 706.668L791.04 712.657ZM791.04 716.737L790.651 722.725L797.04 723.139L797.04 716.737L791.04 716.737ZM768.84 715.297L769.228 709.31L753.905 708.316L764.495 719.435L768.84 715.297ZM775.2 726.097L780 729.697L781.841 727.243L780.928 724.313L775.2 726.097ZM774.84 726.577L771.722 731.704L776.373 734.532L779.64 730.177L774.84 726.577ZM736.8 714.817L730.8 714.817L730.8 720.417L736.386 720.803L736.8 714.817ZM736.8 714.577L736.378 708.592L730.8 708.985L730.8 714.577L736.8 714.577ZM770.04 706.297L770.4 706.777L780 699.577L779.64 699.097L770.04 706.297ZM769.499 701.307C768.513 704.31 766.212 708.034 764.492 709.842L773.187 718.113C776.147 715 779.366 709.724 780.901 705.048L769.499 701.307ZM769.196 719.967L791.396 718.647L790.683 706.668L768.483 707.988L769.196 719.967ZM785.04 712.657L785.04 716.737L797.04 716.737L797.04 712.657L785.04 712.657ZM791.428 710.75L769.228 709.31L768.451 721.285L790.651 722.725L791.428 710.75ZM764.495 719.435C766.29 721.321 768.619 725.145 769.471 727.882L780.928 724.313C779.501 719.73 776.189 714.314 773.184 711.159L764.495 719.435ZM770.4 722.497L770.04 722.977L779.64 730.177L780 729.697L770.4 722.497ZM777.957 721.451C772.866 718.355 765.168 715.406 757.806 713.177C750.425 710.942 742.64 709.207 737.214 708.832L736.386 720.803C740.5 721.088 747.294 722.532 754.328 724.662C761.382 726.798 767.933 729.399 771.722 731.704L777.957 721.451ZM742.8 714.817L742.8 714.577L730.8 714.577L730.8 714.817L742.8 714.817ZM737.222 720.562C742.558 720.186 750.254 718.465 757.614 716.222C764.968 713.98 772.691 711.004 777.941 707.833L771.738 697.561C767.748 699.971 761.131 702.604 754.115 704.743C747.105 706.88 740.401 708.308 736.378 708.592L737.222 720.562Z" fill="black" mask="url(#path-27-outside-9_611_256)"/>
<mask id="path-29-outside-10_611_256" maskUnits="userSpaceOnUse" x="345.485" y="282.658" width="40" height="67" fill="black">
<rect fill="white" x="345.485" y="282.658" width="40" height="67"/>
<path d="M353.485 304.918L353.965 304.558C357.805 305.818 362.305 308.578 364.765 310.918L363.445 288.718L367.525 288.718L366.085 310.918C368.605 308.518 373.225 305.698 376.885 304.558L377.365 304.918C371.965 313.798 366.265 333.418 365.605 342.958L365.365 342.958C364.705 333.598 359.065 314.158 353.485 304.918Z"/>
</mask>
<path d="M353.485 304.918L353.965 304.558C357.805 305.818 362.305 308.578 364.765 310.918L363.445 288.718L367.525 288.718L366.085 310.918C368.605 308.518 373.225 305.698 376.885 304.558L377.365 304.918C371.965 313.798 366.265 333.418 365.605 342.958L365.365 342.958C364.705 333.598 359.065 314.158 353.485 304.918Z" fill="white"/>
<path d="M353.485 304.918L349.885 300.118L345.544 303.374L348.349 308.02L353.485 304.918ZM353.965 304.558L355.836 298.857L352.866 297.883L350.365 299.758L353.965 304.558ZM364.765 310.918L360.63 315.266L371.658 325.756L370.755 310.562L364.765 310.918ZM363.445 288.718L363.445 282.718L357.078 282.718L357.456 289.074L363.445 288.718ZM367.525 288.718L373.513 289.107L373.927 282.718L367.525 282.718L367.525 288.718ZM366.085 310.918L360.098 310.53L359.104 325.853L370.223 315.263L366.085 310.918ZM376.885 304.558L380.485 299.758L378.031 297.917L375.101 298.83L376.885 304.558ZM377.365 304.918L382.492 308.036L385.32 303.384L380.965 300.118L377.365 304.918ZM365.605 342.958L365.605 348.958L371.205 348.958L371.591 343.372L365.605 342.958ZM365.365 342.958L359.38 343.38L359.774 348.958L365.365 348.958L365.365 342.958ZM357.085 309.718L357.565 309.358L350.365 299.758L349.885 300.118L357.085 309.718ZM352.095 310.259C355.098 311.245 358.822 313.546 360.63 315.266L368.901 306.571C365.788 303.61 360.513 300.392 355.836 298.857L352.095 310.259ZM370.755 310.562L369.435 288.362L357.456 289.074L358.776 311.274L370.755 310.562ZM363.445 294.718L367.525 294.718L367.525 282.718L363.445 282.718L363.445 294.718ZM361.538 288.33L360.098 310.53L372.073 311.307L373.513 289.107L361.538 288.33ZM370.223 315.263C372.109 313.468 375.933 311.139 378.67 310.287L375.101 298.83C370.518 300.257 365.102 303.569 361.947 306.573L370.223 315.263ZM373.285 309.358L373.765 309.718L380.965 300.118L380.485 299.758L373.285 309.358ZM372.239 301.801C369.143 306.891 366.194 314.59 363.965 321.952C361.73 329.332 359.995 337.118 359.62 342.544L371.591 343.372C371.876 339.258 373.32 332.464 375.45 325.43C377.586 318.376 380.188 311.825 382.492 308.036L372.239 301.801ZM365.605 336.958L365.365 336.958L365.365 348.958L365.605 348.958L365.605 336.958ZM371.35 342.536C370.974 337.2 369.253 329.504 367.01 322.144C364.768 314.79 361.792 307.067 358.621 301.817L348.349 308.02C350.759 312.01 353.393 318.626 355.531 325.643C357.668 332.652 359.096 339.356 359.38 343.38L371.35 342.536Z" fill="black" mask="url(#path-29-outside-10_611_256)"/>
<path d="M-88.2354 713.868H821.248" stroke="white" stroke-width="4"/>
<path d="M365 -30L365 1354" stroke="white" stroke-width="4"/>
<circle cx="364.655" cy="713.868" r="133.744" fill="black" stroke="white" stroke-width="4"/>
</g>
</svg>
