<svg width="735" height="930" viewBox="0 0 735 930" fill="none" xmlns="http://www.w3.org/2000/svg">
<rect width="735" height="930" fill="black"/>
<mask id="mask0_611_323" style="mask-type:alpha" maskUnits="userSpaceOnUse" x="0" y="0" width="735" height="930">
<rect width="735" height="930" fill="black"/>
</mask>
<g mask="url(#mask0_611_323)">
<mask id="mask1_611_323" style="mask-type:alpha" maskUnits="userSpaceOnUse" x="-300" y="-384" width="1038" height="1314">
<rect x="-300" y="-383.389" width="1038" height="1313.39" fill="black"/>
</mask>
<g mask="url(#mask1_611_323)">
<path d="M656.09 270.475C656.09 28.1657 460.082 -168.265 218.294 -168.265C-23.494 -168.265 -219.502 28.1657 -219.502 270.475" stroke="white" stroke-width="4"/>
<path d="M801.551 277.551C801.551 -42.9218 542.314 -302.717 222.53 -302.717C-97.2539 -302.717 -356.49 -42.9218 -356.49 277.551" stroke="white" stroke-width="4"/>
<path d="M942.776 270.475C942.776 -128.163 620.311 -451.322 222.531 -451.322C-175.249 -451.322 -497.714 -128.163 -497.714 270.475" stroke="white" stroke-width="4"/>
<path d="M371.14 271.891C371.14 356.496 302.703 425.072 218.293 425.072C133.883 425.072 65.4463 356.496 65.4463 271.891C65.4463 187.286 133.883 118.709 218.293 118.709C302.703 118.709 371.14 187.286 371.14 271.891Z" fill="black" stroke="white" stroke-width="5"/>
<path d="M519.102 271.89C519.102 107.745 386.322 -25.3203 222.53 -25.3203C58.7385 -25.3203 -74.041 107.745 -74.041 271.89" stroke="white" stroke-width="5"/>
<path d="M371.64 271.891C371.64 356.771 302.98 425.572 218.293 425.572C133.606 425.572 64.9463 356.771 64.9463 271.891C64.9463 187.011 133.606 118.209 218.293 118.209C302.98 118.209 371.64 187.011 371.64 271.891Z" fill="black" stroke="white" stroke-width="4"/>
<path d="M519.102 271.89C519.102 107.745 386.322 -25.3203 222.53 -25.3203C58.7385 -25.3203 -74.041 107.745 -74.041 271.89" stroke="white" stroke-width="4"/>
<mask id="path-11-outside-1_611_323" maskUnits="userSpaceOnUse" x="504.53" y="253.331" width="67" height="40" fill="black">
<rect fill="white" x="504.53" y="253.331" width="67" height="40"/>
<path d="M549.27 261.331L549.63 261.811C548.37 265.651 545.61 270.151 543.27 272.611L565.47 271.291L565.47 275.371L543.27 273.931C545.67 276.451 548.49 281.071 549.63 284.731L549.27 285.211C540.39 279.811 520.77 274.111 511.23 273.451L511.23 273.211C520.59 272.551 540.03 266.911 549.27 261.331Z"/>
</mask>
<path d="M549.27 261.331L549.63 261.811C548.37 265.651 545.61 270.151 543.27 272.611L565.47 271.291L565.47 275.371L543.27 273.931C545.67 276.451 548.49 281.071 549.63 284.731L549.27 285.211C540.39 279.811 520.77 274.111 511.23 273.451L511.23 273.211C520.59 272.551 540.03 266.911 549.27 261.331Z" fill="white"/>
<path d="M549.27 261.331L554.07 257.731L550.814 253.39L546.169 256.195L549.27 261.331ZM549.63 261.811L555.331 263.682L556.306 260.712L554.43 258.211L549.63 261.811ZM543.27 272.611L538.923 268.476L528.433 279.504L543.626 278.6L543.27 272.611ZM565.47 271.291L571.47 271.291L571.47 264.924L565.114 265.302L565.47 271.291ZM565.47 275.371L565.082 281.358L571.47 281.773L571.47 275.371L565.47 275.371ZM543.27 273.931L543.659 267.944L528.336 266.95L538.925 278.069L543.27 273.931ZM549.63 284.731L554.43 288.331L556.271 285.876L555.359 282.947L549.63 284.731ZM549.27 285.211L546.153 290.338L550.804 293.166L554.07 288.811L549.27 285.211ZM511.23 273.451L505.23 273.451L505.23 279.05L510.816 279.437L511.23 273.451ZM511.23 273.211L510.808 267.226L505.23 267.619L505.23 273.211L511.23 273.211ZM544.47 264.931L544.83 265.411L554.43 258.211L554.07 257.731L544.47 264.931ZM543.929 259.94C542.944 262.944 540.643 266.668 538.923 268.476L547.618 276.746C550.578 273.634 553.797 268.358 555.331 263.682L543.929 259.94ZM543.626 278.6L565.826 277.28L565.114 265.302L542.914 266.622L543.626 278.6ZM559.47 271.291L559.47 275.371L571.47 275.371L571.47 271.291L559.47 271.291ZM565.859 269.384L543.659 267.944L542.882 279.918L565.082 281.358L565.859 269.384ZM538.925 278.069C540.721 279.954 543.049 283.778 543.902 286.515L555.359 282.947C553.931 278.364 550.62 272.948 547.615 269.793L538.925 278.069ZM544.83 281.131L544.47 281.611L554.07 288.811L554.43 288.331L544.83 281.131ZM552.388 280.085C547.297 276.989 539.598 274.04 532.237 271.811C524.856 269.576 517.07 267.841 511.644 267.465L510.816 279.437C514.93 279.721 521.725 281.166 528.759 283.296C535.812 285.432 542.363 288.033 546.153 290.338L552.388 280.085ZM517.23 273.451L517.23 273.211L505.23 273.211L505.23 273.451L517.23 273.451ZM511.652 279.196C516.989 278.82 524.684 277.099 532.045 274.855C539.399 272.614 547.122 269.638 552.372 266.467L546.169 256.195C542.179 258.604 535.562 261.238 528.546 263.377C521.536 265.513 514.832 266.942 510.808 267.226L511.652 279.196Z" fill="black" mask="url(#path-11-outside-1_611_323)"/>
<mask id="path-13-outside-2_611_323" maskUnits="userSpaceOnUse" x="645.755" y="253.332" width="67" height="40" fill="black">
<rect fill="white" x="645.755" y="253.332" width="67" height="40"/>
<path d="M690.495 261.332L690.855 261.812C689.595 265.652 686.835 270.152 684.495 272.612L706.695 271.292L706.695 275.372L684.495 273.932C686.895 276.452 689.715 281.072 690.855 284.732L690.495 285.212C681.615 279.812 661.995 274.112 652.455 273.452L652.455 273.212C661.815 272.552 681.255 266.912 690.495 261.332Z"/>
</mask>
<path d="M690.495 261.332L690.855 261.812C689.595 265.652 686.835 270.152 684.495 272.612L706.695 271.292L706.695 275.372L684.495 273.932C686.895 276.452 689.715 281.072 690.855 284.732L690.495 285.212C681.615 279.812 661.995 274.112 652.455 273.452L652.455 273.212C661.815 272.552 681.255 266.912 690.495 261.332Z" fill="white"/>
<path d="M690.495 261.332L695.295 257.732L692.039 253.39L687.393 256.196L690.495 261.332ZM690.855 261.812L696.556 263.683L697.53 260.713L695.655 258.212L690.855 261.812ZM684.495 272.612L680.148 268.477L669.657 279.505L684.851 278.601L684.495 272.612ZM706.695 271.292L712.695 271.292L712.695 264.925L706.339 265.303L706.695 271.292ZM706.695 275.372L706.307 281.359L712.695 281.774L712.695 275.372L706.695 275.372ZM684.495 273.932L684.883 267.945L669.56 266.951L680.15 278.07L684.495 273.932ZM690.855 284.732L695.655 288.332L697.496 285.877L696.583 282.948L690.855 284.732ZM690.495 285.212L687.377 290.339L692.029 293.167L695.295 288.812L690.495 285.212ZM652.455 273.452L646.455 273.452L646.455 279.051L652.041 279.438L652.455 273.452ZM652.455 273.212L652.033 267.227L646.455 267.62L646.455 273.212L652.455 273.212ZM685.695 264.932L686.055 265.412L695.655 258.212L695.295 257.732L685.695 264.932ZM685.154 259.941C684.168 262.945 681.867 266.669 680.148 268.477L688.842 276.747C691.803 273.635 695.021 268.359 696.556 263.683L685.154 259.941ZM684.851 278.601L707.051 277.281L706.339 265.303L684.139 266.623L684.851 278.601ZM700.695 271.292L700.695 275.372L712.695 275.372L712.695 271.292L700.695 271.292ZM707.083 269.385L684.883 267.945L684.107 279.919L706.307 281.359L707.083 269.385ZM680.15 278.07C681.946 279.955 684.274 283.779 685.126 286.516L696.583 282.948C695.156 278.365 691.844 272.949 688.84 269.794L680.15 278.07ZM686.055 281.132L685.695 281.612L695.295 288.812L695.655 288.332L686.055 281.132ZM693.612 280.086C688.522 276.99 680.823 274.041 673.461 271.812C666.081 269.577 658.295 267.842 652.869 267.466L652.041 279.438C656.155 279.722 662.949 281.167 669.984 283.297C677.037 285.433 683.588 288.034 687.377 290.339L693.612 280.086ZM658.455 273.452L658.455 273.212L646.455 273.212L646.455 273.452L658.455 273.452ZM652.877 279.197C658.213 278.821 665.909 277.1 673.269 274.856C680.623 272.615 688.346 269.639 693.597 266.468L687.393 256.196C683.403 258.605 676.787 261.239 669.771 263.378C662.761 265.514 656.057 266.943 652.033 267.227L652.877 279.197Z" fill="black" mask="url(#path-13-outside-2_611_323)"/>
<path d="M-300 271.891H740.825" stroke="white" stroke-width="4"/>
<path d="M218.294 -471.136L218.294 1006.43" stroke="white" stroke-width="4"/>
<path d="M371.641 271.89C371.641 356.77 302.981 425.571 218.294 425.571C133.607 425.571 64.9473 356.77 64.9473 271.89C64.9473 187.01 133.607 118.208 218.294 118.208C302.981 118.208 371.641 187.01 371.641 271.89Z" fill="black" stroke="white" stroke-width="4"/>
<path d="M255.837 557.071C255.837 577.465 239.34 593.991 219 593.991C198.66 593.991 182.163 577.465 182.163 557.071C182.163 536.676 198.66 520.15 219 520.15C239.34 520.15 255.837 536.676 255.837 557.071Z" fill="black" stroke="white" stroke-width="4"/>
<path d="M255.837 705.676C255.837 726.071 239.34 742.597 219 742.597C198.66 742.597 182.163 726.071 182.163 705.676C182.163 685.282 198.66 668.756 219 668.756C239.34 668.756 255.837 685.282 255.837 705.676Z" fill="black" stroke="white" stroke-width="4"/>
<path d="M255.837 841.543C255.837 861.938 239.34 878.464 219 878.464C198.66 878.464 182.163 861.938 182.163 841.543C182.163 821.149 198.66 804.623 219 804.623C239.34 804.623 255.837 821.149 255.837 841.543Z" fill="black" stroke="white" stroke-width="4"/>
</g>
</g>
</svg>
