<svg width="735" height="930" viewBox="0 0 735 930" fill="none" xmlns="http://www.w3.org/2000/svg">
<rect width="735" height="930" fill="black"/>
<mask id="mask0_611_356" style="mask-type:alpha" maskUnits="userSpaceOnUse" x="0" y="0" width="735" height="930">
<rect width="735" height="930" fill="black"/>
</mask>
<g mask="url(#mask0_611_356)">
<path d="M1175.09 932.462C1175.09 690.153 979.082 493.723 737.294 493.723C495.506 493.723 299.498 690.153 299.498 932.462" stroke="white" stroke-width="4"/>
<path d="M1320.55 939.539C1320.55 619.065 1061.31 359.271 741.53 359.271C421.746 359.271 162.51 619.065 162.51 939.539" stroke="white" stroke-width="4"/>
<path d="M1461.78 932.463C1461.78 533.826 1139.31 210.666 741.531 210.666C343.751 210.666 21.2861 533.826 21.2861 932.463" stroke="white" stroke-width="4"/>
<path d="M890.14 933.88C890.14 1018.48 821.703 1087.06 737.293 1087.06C652.883 1087.06 584.446 1018.48 584.446 933.88C584.446 849.275 652.883 780.698 737.293 780.698C821.703 780.698 890.14 849.275 890.14 933.88Z" fill="black" stroke="white" stroke-width="5"/>
<path d="M1038.1 933.88C1038.1 769.735 905.322 636.669 741.53 636.669C577.739 636.669 444.959 769.735 444.959 933.88" stroke="white" stroke-width="5"/>
<mask id="path-8-outside-1_611_356" maskUnits="userSpaceOnUse" x="386.882" y="910.529" width="76" height="44" fill="black">
<rect fill="white" x="386.882" y="910.529" width="76" height="44"/>
<path d="M412.352 946.529L411.932 945.969C413.402 941.489 416.622 936.239 419.352 933.369L393.452 934.909V930.149L419.352 931.829C416.552 928.889 413.262 923.499 411.932 919.229L412.352 918.669C422.712 924.969 445.602 931.619 456.732 932.389V932.669C445.812 933.439 423.132 940.019 412.352 946.529Z"/>
</mask>
<path d="M412.352 946.529L411.932 945.969C413.402 941.489 416.622 936.239 419.352 933.369L393.452 934.909V930.149L419.352 931.829C416.552 928.889 413.262 923.499 411.932 919.229L412.352 918.669C422.712 924.969 445.602 931.619 456.732 932.389V932.669C445.812 933.439 423.132 940.019 412.352 946.529Z" fill="white"/>
<path d="M412.352 946.529L407.552 950.129L410.808 954.471L415.454 951.665L412.352 946.529ZM411.932 945.969L406.231 944.099L405.256 947.069L407.132 949.569L411.932 945.969ZM419.352 933.369L423.699 937.505L434.189 926.476L418.996 927.38L419.352 933.369ZM393.452 934.909H387.452V941.277L393.808 940.899L393.452 934.909ZM393.452 930.149L393.84 924.162L387.452 923.747V930.149H393.452ZM419.352 931.829L418.963 937.817L434.286 938.811L423.697 927.691L419.352 931.829ZM411.932 919.229L407.132 915.629L405.291 918.084L406.203 921.014L411.932 919.229ZM412.352 918.669L415.469 913.543L410.818 910.714L407.552 915.069L412.352 918.669ZM456.732 932.389H462.732V926.79L457.146 926.404L456.732 932.389ZM456.732 932.669L457.154 938.654L462.732 938.261V932.669H456.732ZM417.152 942.929L416.732 942.369L407.132 949.569L407.552 950.129L417.152 942.929ZM417.633 947.84C418.828 944.197 421.59 939.722 423.699 937.505L415.004 929.234C411.654 932.756 407.975 938.782 406.231 944.099L417.633 947.84ZM418.996 927.38L393.096 928.92L393.808 940.899L419.708 939.359L418.996 927.38ZM399.452 934.909V930.149H387.452V934.909H399.452ZM393.063 936.137L418.963 937.817L419.74 925.842L393.84 924.162L393.063 936.137ZM423.697 927.691C421.501 925.386 418.703 920.792 417.66 917.445L406.203 921.014C407.821 926.207 411.603 932.393 415.007 935.967L423.697 927.691ZM416.732 922.829L417.152 922.269L407.552 915.069L407.132 915.629L416.732 922.829ZM409.234 923.796C415.065 927.341 423.951 930.753 432.514 933.346C441.096 935.944 450.097 937.945 456.318 938.375L457.146 926.404C452.237 926.064 444.228 924.354 435.992 921.861C427.737 919.361 419.999 916.297 415.469 913.543L409.234 923.796ZM450.732 932.389V932.669H462.732V932.389H450.732ZM456.31 926.684C450.194 927.115 441.298 929.099 432.74 931.707C424.189 934.314 415.27 937.758 409.25 941.393L415.454 951.665C420.213 948.791 428.025 945.69 436.239 943.186C444.446 940.685 452.35 938.993 457.154 938.654L456.31 926.684Z" fill="black" mask="url(#path-8-outside-1_611_356)"/>
<mask id="path-10-outside-2_611_356" maskUnits="userSpaceOnUse" x="718.906" y="577.057" width="44" height="76" fill="black">
<rect fill="white" x="718.906" y="577.057" width="44" height="76"/>
<path d="M726.906 602.527L727.466 602.107C731.946 603.577 737.196 606.797 740.066 609.527L738.526 583.627L743.286 583.627L741.606 609.527C744.546 606.727 749.936 603.437 754.206 602.107L754.766 602.527C748.466 612.887 741.816 635.777 741.046 646.907L740.766 646.907C739.996 635.987 733.416 613.307 726.906 602.527Z"/>
</mask>
<path d="M726.906 602.527L727.466 602.107C731.946 603.577 737.196 606.797 740.066 609.527L738.526 583.627L743.286 583.627L741.606 609.527C744.546 606.727 749.936 603.437 754.206 602.107L754.766 602.527C748.466 612.887 741.816 635.777 741.046 646.907L740.766 646.907C739.996 635.987 733.416 613.307 726.906 602.527Z" fill="white"/>
<path d="M726.906 602.527L723.306 597.727L718.965 600.983L721.77 605.628L726.906 602.527ZM727.466 602.107L729.337 596.406L726.367 595.431L723.866 597.307L727.466 602.107ZM740.066 609.527L735.931 613.874L746.959 624.364L746.056 609.171L740.066 609.527ZM738.526 583.627L738.526 577.627L732.159 577.627L732.537 583.983L738.526 583.627ZM743.286 583.627L749.274 584.015L749.688 577.627L743.286 577.627L743.286 583.627ZM741.606 609.527L735.619 609.138L734.625 624.461L745.744 613.871L741.606 609.527ZM754.206 602.107L757.806 597.307L755.352 595.466L752.422 596.378L754.206 602.107ZM754.766 602.527L759.893 605.644L762.721 600.993L758.366 597.727L754.766 602.527ZM741.046 646.907L741.046 652.907L746.645 652.907L747.032 647.321L741.046 646.907ZM740.766 646.907L734.781 647.329L735.174 652.907L740.766 652.907L740.766 646.907ZM730.506 607.327L731.066 606.907L723.866 597.307L723.306 597.727L730.506 607.327ZM725.596 607.808C729.239 609.003 733.713 611.764 735.931 613.874L744.202 605.179C740.679 601.829 734.653 598.15 729.337 596.406L725.596 607.808ZM746.056 609.171L744.516 583.271L732.537 583.983L734.077 609.883L746.056 609.171ZM738.526 589.627L743.286 589.627L743.286 577.627L738.526 577.627L738.526 589.627ZM737.299 583.238L735.619 609.138L747.594 609.915L749.274 584.015L737.299 583.238ZM745.744 613.871C748.049 611.676 752.644 608.878 755.991 607.835L752.422 596.378C747.229 597.996 741.043 601.777 737.468 605.182L745.744 613.871ZM750.606 606.907L751.166 607.327L758.366 597.727L757.806 597.307L750.606 606.907ZM749.64 599.409C746.094 605.24 742.683 614.126 740.09 622.689C737.491 631.271 735.491 640.272 735.061 646.493L747.032 647.321C747.372 642.412 749.081 634.402 751.575 626.167C754.075 617.912 757.138 610.173 759.893 605.644L749.64 599.409ZM741.046 640.907L740.766 640.907L740.766 652.907L741.046 652.907L741.046 640.907ZM746.751 646.485C746.32 640.368 744.336 631.472 741.728 622.915C739.122 614.363 735.678 605.445 732.042 599.425L721.77 605.628C724.645 610.388 727.746 618.2 730.249 626.413C732.751 634.621 734.442 642.525 734.781 647.329L746.751 646.485Z" fill="black" mask="url(#path-10-outside-2_611_356)"/>
<path d="M890.64 933.88C890.64 1018.76 821.98 1087.56 737.293 1087.56C652.606 1087.56 583.946 1018.76 583.946 933.88C583.946 849 652.606 780.198 737.293 780.198C821.98 780.198 890.64 849 890.64 933.88Z" fill="black" stroke="white" stroke-width="4"/>
<path d="M1038.1 933.88C1038.1 769.735 905.322 636.669 741.53 636.669C577.739 636.669 444.959 769.735 444.959 933.88" stroke="white" stroke-width="4"/>
<mask id="path-14-outside-3_611_356" maskUnits="userSpaceOnUse" x="391.118" y="912.437" width="67" height="40" fill="black">
<rect fill="white" x="391.118" y="912.437" width="67" height="40"/>
<path d="M413.378 944.437L413.018 943.957C414.278 940.117 417.038 935.617 419.378 933.157L397.178 934.477V930.397L419.378 931.837C416.978 929.317 414.158 924.697 413.018 921.037L413.378 920.557C422.258 925.957 441.878 931.657 451.418 932.317V932.557C442.058 933.217 422.618 938.857 413.378 944.437Z"/>
</mask>
<path d="M413.378 944.437L413.018 943.957C414.278 940.117 417.038 935.617 419.378 933.157L397.178 934.477V930.397L419.378 931.837C416.978 929.317 414.158 924.697 413.018 921.037L413.378 920.557C422.258 925.957 441.878 931.657 451.418 932.317V932.557C442.058 933.217 422.618 938.857 413.378 944.437Z" fill="white"/>
<path d="M413.378 944.437L408.578 948.037L411.834 952.378L416.48 949.573L413.378 944.437ZM413.018 943.957L407.317 942.086L406.343 945.056L408.218 947.557L413.018 943.957ZM419.378 933.157L423.726 937.292L434.216 926.264L419.022 927.167L419.378 933.157ZM397.178 934.477H391.178V940.844L397.534 940.466L397.178 934.477ZM397.178 930.397L397.567 924.409L391.178 923.995V930.397H397.178ZM419.378 931.837L418.99 937.824L434.313 938.818L423.723 927.699L419.378 931.837ZM413.018 921.037L408.218 917.437L406.377 919.891L407.29 922.821L413.018 921.037ZM413.378 920.557L416.496 915.43L411.844 912.602L408.578 916.957L413.378 920.557ZM451.418 932.317H457.418V926.717L451.832 926.331L451.418 932.317ZM451.418 932.557L451.84 938.542L457.418 938.148V932.557H451.418ZM418.178 940.837L417.818 940.357L408.218 947.557L408.578 948.037L418.178 940.837ZM418.719 945.827C419.705 942.824 422.006 939.1 423.726 937.292L415.031 929.021C412.07 932.133 408.852 937.409 407.317 942.086L418.719 945.827ZM419.022 927.167L396.822 928.487L397.534 940.466L419.734 939.146L419.022 927.167ZM403.178 934.477V930.397H391.178V934.477H403.178ZM396.79 936.384L418.99 937.824L419.767 925.849L397.567 924.409L396.79 936.384ZM423.723 927.699C421.927 925.813 419.599 921.989 418.747 919.252L407.29 922.821C408.717 927.404 412.029 932.82 415.033 935.974L423.723 927.699ZM417.818 924.637L418.178 924.157L408.578 916.957L408.218 917.437L417.818 924.637ZM410.261 925.683C415.351 928.779 423.05 931.727 430.412 933.957C437.792 936.191 445.578 937.927 451.004 938.302L451.832 926.331C447.718 926.046 440.924 924.602 433.89 922.472C426.836 920.336 420.285 917.734 416.496 915.43L410.261 925.683ZM445.418 932.317V932.557H457.418V932.317H445.418ZM450.996 926.571C445.66 926.948 437.964 928.669 430.604 930.912C423.25 933.154 415.527 936.13 410.276 939.3L416.48 949.573C420.47 947.163 427.086 944.529 434.103 942.391C441.112 940.254 447.816 938.825 451.84 938.542L450.996 926.571Z" fill="black" mask="url(#path-14-outside-3_611_356)"/>
<mask id="path-16-outside-4_611_356" maskUnits="userSpaceOnUse" x="718.608" y="577.057" width="40" height="67" fill="black">
<rect fill="white" x="718.608" y="577.057" width="40" height="67"/>
<path d="M726.608 599.317L727.088 598.957C730.928 600.217 735.428 602.977 737.888 605.317L736.568 583.117L740.648 583.117L739.208 605.317C741.728 602.917 746.348 600.097 750.008 598.957L750.488 599.317C745.088 608.197 739.388 627.817 738.728 637.357L738.488 637.357C737.828 627.997 732.188 608.557 726.608 599.317Z"/>
</mask>
<path d="M726.608 599.317L727.088 598.957C730.928 600.217 735.428 602.977 737.888 605.317L736.568 583.117L740.648 583.117L739.208 605.317C741.728 602.917 746.348 600.097 750.008 598.957L750.488 599.317C745.088 608.197 739.388 627.817 738.728 637.357L738.488 637.357C737.828 627.997 732.188 608.557 726.608 599.317Z" fill="white"/>
<path d="M726.608 599.317L723.008 594.517L718.667 597.773L721.472 602.418L726.608 599.317ZM727.088 598.957L728.959 593.256L725.989 592.281L723.488 594.157L727.088 598.957ZM737.888 605.317L733.753 609.664L744.781 620.154L743.878 604.961L737.888 605.317ZM736.568 583.117L736.568 577.117L730.201 577.117L730.579 583.473L736.568 583.117ZM740.648 583.117L746.636 583.505L747.05 577.117L740.648 577.117L740.648 583.117ZM739.208 605.317L733.221 604.928L732.227 620.251L743.346 609.661L739.208 605.317ZM750.008 598.957L753.608 594.157L751.154 592.316L748.224 593.228L750.008 598.957ZM750.488 599.317L755.615 602.434L758.443 597.783L754.088 594.517L750.488 599.317ZM738.728 637.357L738.728 643.357L744.328 643.357L744.714 637.771L738.728 637.357ZM738.488 637.357L732.503 637.779L732.897 643.357L738.488 643.357L738.488 637.357ZM730.208 604.117L730.688 603.757L723.488 594.157L723.008 594.517L730.208 604.117ZM725.218 604.658C728.221 605.643 731.945 607.944 733.753 609.664L742.024 600.969C738.911 598.009 733.636 594.79 728.959 593.256L725.218 604.658ZM743.878 604.961L742.558 582.761L730.579 583.473L731.899 605.673L743.878 604.961ZM736.568 589.117L740.648 589.117L740.648 577.117L736.568 577.117L736.568 589.117ZM734.661 582.728L733.221 604.928L745.196 605.705L746.636 583.505L734.661 582.728ZM743.346 609.661C745.232 607.866 749.056 605.538 751.793 604.685L748.224 593.228C743.641 594.656 738.225 597.967 735.07 600.972L743.346 609.661ZM746.408 603.757L746.888 604.117L754.088 594.517L753.608 594.157L746.408 603.757ZM745.362 596.199C742.266 601.29 739.318 608.989 737.088 616.35C734.853 623.731 733.118 631.517 732.743 636.943L744.714 637.771C744.999 633.657 746.443 626.862 748.573 619.828C750.709 612.775 753.311 606.223 755.615 602.434L745.362 596.199ZM738.728 631.357L738.488 631.357L738.488 643.357L738.728 643.357L738.728 631.357ZM744.474 636.935C744.097 631.598 742.376 623.902 740.133 616.542C737.891 609.188 734.915 601.465 731.745 596.215L721.472 602.418C723.882 606.408 726.516 613.025 728.654 620.041C730.791 627.051 732.22 633.755 732.503 637.779L744.474 636.935Z" fill="black" mask="url(#path-16-outside-4_611_356)"/>
<mask id="path-18-outside-5_611_356" maskUnits="userSpaceOnUse" x="247.069" y="912.437" width="67" height="40" fill="black">
<rect fill="white" x="247.069" y="912.437" width="67" height="40"/>
<path d="M269.329 944.437L268.969 943.957C270.229 940.117 272.989 935.617 275.329 933.157L253.129 934.477V930.397L275.329 931.837C272.929 929.317 270.109 924.697 268.969 921.037L269.329 920.557C278.209 925.957 297.829 931.657 307.369 932.317V932.557C298.009 933.217 278.569 938.857 269.329 944.437Z"/>
</mask>
<path d="M269.329 944.437L268.969 943.957C270.229 940.117 272.989 935.617 275.329 933.157L253.129 934.477V930.397L275.329 931.837C272.929 929.317 270.109 924.697 268.969 921.037L269.329 920.557C278.209 925.957 297.829 931.657 307.369 932.317V932.557C298.009 933.217 278.569 938.857 269.329 944.437Z" fill="white"/>
<path d="M269.329 944.437L264.529 948.037L267.785 952.378L272.431 949.573L269.329 944.437ZM268.969 943.957L263.268 942.086L262.294 945.056L264.169 947.557L268.969 943.957ZM275.329 933.157L279.677 937.292L290.167 926.264L274.973 927.167L275.329 933.157ZM253.129 934.477H247.129V940.844L253.485 940.466L253.129 934.477ZM253.129 930.397L253.518 924.409L247.129 923.995V930.397H253.129ZM275.329 931.837L274.941 937.824L290.264 938.818L279.674 927.699L275.329 931.837ZM268.969 921.037L264.169 917.437L262.328 919.891L263.241 922.821L268.969 921.037ZM269.329 920.557L272.447 915.43L267.796 912.602L264.529 916.957L269.329 920.557ZM307.369 932.317H313.369V926.717L307.783 926.331L307.369 932.317ZM307.369 932.557L307.791 938.542L313.369 938.148V932.557H307.369ZM274.129 940.837L273.769 940.357L264.169 947.557L264.529 948.037L274.129 940.837ZM274.67 945.827C275.656 942.824 277.957 939.1 279.677 937.292L270.982 929.021C268.022 932.133 264.803 937.409 263.268 942.086L274.67 945.827ZM274.973 927.167L252.773 928.487L253.485 940.466L275.685 939.146L274.973 927.167ZM259.129 934.477V930.397H247.129V934.477H259.129ZM252.741 936.384L274.941 937.824L275.718 925.849L253.518 924.409L252.741 936.384ZM279.674 927.699C277.879 925.813 275.55 921.989 274.698 919.252L263.241 922.821C264.668 927.404 267.98 932.82 270.985 935.974L279.674 927.699ZM273.769 924.637L274.129 924.157L264.529 916.957L264.169 917.437L273.769 924.637ZM266.212 925.683C271.303 928.779 279.001 931.727 286.363 933.957C293.744 936.191 301.529 937.927 306.955 938.302L307.783 926.331C303.669 926.046 296.875 924.602 289.841 922.472C282.787 920.336 276.236 917.734 272.447 915.43L266.212 925.683ZM301.369 932.317V932.557H313.369V932.317H301.369ZM306.947 926.571C301.611 926.948 293.915 928.669 286.555 930.912C279.201 933.154 271.478 936.13 266.228 939.3L272.431 949.573C276.421 947.163 283.038 944.529 290.054 942.391C297.064 940.254 303.768 938.825 307.791 938.542L306.947 926.571Z" fill="black" mask="url(#path-18-outside-5_611_356)"/>
<mask id="path-20-outside-6_611_356" maskUnits="userSpaceOnUse" x="118.069" y="912.437" width="67" height="40" fill="black">
<rect fill="white" x="118.069" y="912.437" width="67" height="40"/>
<path d="M140.329 944.437L139.969 943.957C141.229 940.117 143.989 935.617 146.329 933.157L124.129 934.477V930.397L146.329 931.837C143.929 929.317 141.109 924.697 139.969 921.037L140.329 920.557C149.209 925.957 168.829 931.657 178.369 932.317V932.557C169.009 933.217 149.569 938.857 140.329 944.437Z"/>
</mask>
<path d="M140.329 944.437L139.969 943.957C141.229 940.117 143.989 935.617 146.329 933.157L124.129 934.477V930.397L146.329 931.837C143.929 929.317 141.109 924.697 139.969 921.037L140.329 920.557C149.209 925.957 168.829 931.657 178.369 932.317V932.557C169.009 933.217 149.569 938.857 140.329 944.437Z" fill="white"/>
<path d="M140.329 944.437L135.529 948.037L138.785 952.378L143.431 949.573L140.329 944.437ZM139.969 943.957L134.268 942.086L133.294 945.056L135.169 947.557L139.969 943.957ZM146.329 933.157L150.677 937.292L161.167 926.264L145.973 927.167L146.329 933.157ZM124.129 934.477H118.129V940.844L124.485 940.466L124.129 934.477ZM124.129 930.397L124.518 924.409L118.129 923.995V930.397H124.129ZM146.329 931.837L145.941 937.824L161.264 938.818L150.674 927.699L146.329 931.837ZM139.969 921.037L135.169 917.437L133.328 919.891L134.241 922.821L139.969 921.037ZM140.329 920.557L143.447 915.43L138.796 912.602L135.529 916.957L140.329 920.557ZM178.369 932.317H184.369V926.717L178.783 926.331L178.369 932.317ZM178.369 932.557L178.791 938.542L184.369 938.148V932.557H178.369ZM145.129 940.837L144.769 940.357L135.169 947.557L135.529 948.037L145.129 940.837ZM145.67 945.827C146.656 942.824 148.957 939.1 150.677 937.292L141.982 929.021C139.022 932.133 135.803 937.409 134.268 942.086L145.67 945.827ZM145.973 927.167L123.773 928.487L124.485 940.466L146.685 939.146L145.973 927.167ZM130.129 934.477V930.397H118.129V934.477H130.129ZM123.741 936.384L145.941 937.824L146.718 925.849L124.518 924.409L123.741 936.384ZM150.674 927.699C148.879 925.813 146.55 921.989 145.698 919.252L134.241 922.821C135.668 927.404 138.98 932.82 141.985 935.974L150.674 927.699ZM144.769 924.637L145.129 924.157L135.529 916.957L135.169 917.437L144.769 924.637ZM137.212 925.683C142.303 928.779 150.001 931.727 157.363 933.957C164.744 936.191 172.529 937.927 177.955 938.302L178.783 926.331C174.669 926.046 167.875 924.602 160.841 922.472C153.787 920.336 147.236 917.734 143.447 915.43L137.212 925.683ZM172.369 932.317V932.557H184.369V932.317H172.369ZM177.947 926.571C172.611 926.948 164.915 928.669 157.555 930.912C150.201 933.154 142.478 936.13 137.228 939.3L143.431 949.573C147.421 947.163 154.038 944.529 161.054 942.391C168.064 940.254 174.768 938.825 178.791 938.542L177.947 926.571Z" fill="black" mask="url(#path-20-outside-6_611_356)"/>
<mask id="path-22-outside-7_611_356" maskUnits="userSpaceOnUse" x="-13.9307" y="912.437" width="67" height="40" fill="black">
<rect fill="white" x="-13.9307" y="912.437" width="67" height="40"/>
<path d="M8.32934 944.437L7.96934 943.957C9.22934 940.117 11.9893 935.617 14.3293 933.157L-7.87066 934.477V930.397L14.3293 931.837C11.9293 929.317 9.10934 924.697 7.96934 921.037L8.32934 920.557C17.2093 925.957 36.8293 931.657 46.3693 932.317V932.557C37.0093 933.217 17.5693 938.857 8.32934 944.437Z"/>
</mask>
<path d="M8.32934 944.437L7.96934 943.957C9.22934 940.117 11.9893 935.617 14.3293 933.157L-7.87066 934.477V930.397L14.3293 931.837C11.9293 929.317 9.10934 924.697 7.96934 921.037L8.32934 920.557C17.2093 925.957 36.8293 931.657 46.3693 932.317V932.557C37.0093 933.217 17.5693 938.857 8.32934 944.437Z" fill="white"/>
<path d="M8.32934 944.437L3.52933 948.037L6.78547 952.378L11.431 949.573L8.32934 944.437ZM7.96934 943.957L2.26839 942.086L1.29387 945.056L3.16933 947.557L7.96934 943.957ZM14.3293 933.157L18.6767 937.292L29.1668 926.264L13.9732 927.167L14.3293 933.157ZM-7.87066 934.477H-13.8707V940.844L-7.51454 940.466L-7.87066 934.477ZM-7.87066 930.397L-7.48229 924.409L-13.8707 923.995V930.397H-7.87066ZM14.3293 931.837L13.941 937.824L29.2639 938.818L18.6742 927.699L14.3293 931.837ZM7.96934 921.037L3.16933 917.437L1.3283 919.891L2.24079 922.821L7.96934 921.037ZM8.32934 920.557L11.4468 915.43L6.79557 912.602L3.52933 916.957L8.32934 920.557ZM46.3693 932.317H52.3693V926.717L46.7834 926.331L46.3693 932.317ZM46.3693 932.557L46.7914 938.542L52.3693 938.148V932.557H46.3693ZM13.1293 940.837L12.7693 940.357L3.16933 947.557L3.52933 948.037L13.1293 940.837ZM13.6703 945.827C14.6558 942.824 16.9571 939.1 18.6767 937.292L9.98199 929.021C7.0216 932.133 3.8029 937.409 2.26839 942.086L13.6703 945.827ZM13.9732 927.167L-8.22679 928.487L-7.51454 940.466L14.6855 939.146L13.9732 927.167ZM-1.87066 934.477V930.397H-13.8707V934.477H-1.87066ZM-8.25904 936.384L13.941 937.824L14.7177 925.849L-7.48229 924.409L-8.25904 936.384ZM18.6742 927.699C16.8786 925.813 14.5504 921.989 13.6979 919.252L2.24079 922.821C3.6683 927.404 6.98004 932.82 9.98451 935.974L18.6742 927.699ZM12.7693 924.637L13.1293 924.157L3.52933 916.957L3.16933 917.437L12.7693 924.637ZM5.21185 925.683C10.3025 928.779 18.0014 931.727 25.363 933.957C32.7436 936.191 40.5294 937.927 45.9552 938.302L46.7834 926.331C42.6693 926.046 35.8751 924.602 28.8407 922.472C21.7873 920.336 15.2362 917.734 11.4468 915.43L5.21185 925.683ZM40.3693 932.317V932.557H52.3693V932.317H40.3693ZM45.9473 926.571C40.6111 926.948 32.9151 928.669 25.555 930.912C18.2011 933.154 10.4779 936.13 5.22766 939.3L11.431 949.573C15.4208 947.163 22.0376 944.529 29.0537 942.391C36.0635 940.254 42.7676 938.825 46.7914 938.542L45.9473 926.571Z" fill="black" mask="url(#path-22-outside-7_611_356)"/>
<mask id="path-24-outside-8_611_356" maskUnits="userSpaceOnUse" x="718.608" y="305.32" width="40" height="67" fill="black">
<rect fill="white" x="718.608" y="305.32" width="40" height="67"/>
<path d="M726.608 327.58L727.088 327.22C730.928 328.48 735.428 331.24 737.888 333.58L736.568 311.38L740.648 311.38L739.208 333.58C741.728 331.18 746.348 328.36 750.008 327.22L750.488 327.58C745.088 336.46 739.388 356.08 738.728 365.62L738.488 365.62C737.828 356.26 732.188 336.82 726.608 327.58Z"/>
</mask>
<path d="M726.608 327.58L727.088 327.22C730.928 328.48 735.428 331.24 737.888 333.58L736.568 311.38L740.648 311.38L739.208 333.58C741.728 331.18 746.348 328.36 750.008 327.22L750.488 327.58C745.088 336.46 739.388 356.08 738.728 365.62L738.488 365.62C737.828 356.26 732.188 336.82 726.608 327.58Z" fill="white"/>
<path d="M726.608 327.58L723.008 322.78L718.667 326.036L721.472 330.682L726.608 327.58ZM727.088 327.22L728.959 321.519L725.989 320.545L723.488 322.42L727.088 327.22ZM737.888 333.58L733.753 337.928L744.781 348.418L743.878 333.224L737.888 333.58ZM736.568 311.38L736.568 305.38L730.201 305.38L730.579 311.736L736.568 311.38ZM740.648 311.38L746.636 311.769L747.05 305.38L740.648 305.38L740.648 311.38ZM739.208 333.58L733.221 333.192L732.227 348.515L743.346 337.925L739.208 333.58ZM750.008 327.22L753.608 322.42L751.154 320.579L748.224 321.492L750.008 327.22ZM750.488 327.58L755.615 330.698L758.443 326.047L754.088 322.78L750.488 327.58ZM738.728 365.62L738.728 371.62L744.328 371.62L744.714 366.034L738.728 365.62ZM738.488 365.62L732.503 366.042L732.897 371.62L738.488 371.62L738.488 365.62ZM730.208 332.38L730.688 332.02L723.488 322.42L723.008 322.78L730.208 332.38ZM725.218 332.921C728.221 333.907 731.945 336.208 733.753 337.928L742.024 329.233C738.911 326.273 733.636 323.054 728.959 321.519L725.218 332.921ZM743.878 333.224L742.558 311.024L730.579 311.736L731.899 333.936L743.878 333.224ZM736.568 317.38L740.648 317.38L740.648 305.38L736.568 305.38L736.568 317.38ZM734.661 310.992L733.221 333.192L745.196 333.969L746.636 311.769L734.661 310.992ZM743.346 337.925C745.232 336.13 749.056 333.801 751.793 332.949L748.224 321.492C743.641 322.919 738.225 326.231 735.07 329.235L743.346 337.925ZM746.408 332.02L746.888 332.38L754.088 322.78L753.608 322.42L746.408 332.02ZM745.362 324.463C742.266 329.553 739.318 337.252 737.088 344.614C734.853 351.995 733.118 359.78 732.743 365.206L744.714 366.034C744.999 361.92 746.443 355.126 748.573 348.092C750.709 341.038 753.311 334.487 755.615 330.698L745.362 324.463ZM738.728 359.62L738.488 359.62L738.488 371.62L738.728 371.62L738.728 359.62ZM744.474 365.198C744.097 359.862 742.376 352.166 740.133 344.806C737.891 337.452 734.915 329.729 731.745 324.479L721.472 330.682C723.882 334.672 726.516 341.289 728.654 348.305C730.791 355.315 732.22 362.019 732.503 366.042L744.474 365.198Z" fill="black" mask="url(#path-24-outside-8_611_356)"/>
<mask id="path-26-outside-9_611_356" maskUnits="userSpaceOnUse" x="718.608" y="166.021" width="40" height="67" fill="black">
<rect fill="white" x="718.608" y="166.021" width="40" height="67"/>
<path d="M726.608 188.281L727.088 187.921C730.928 189.181 735.428 191.941 737.888 194.281L736.568 172.081L740.648 172.081L739.208 194.281C741.728 191.881 746.348 189.061 750.008 187.921L750.488 188.281C745.088 197.161 739.388 216.781 738.728 226.321L738.488 226.321C737.828 216.961 732.188 197.521 726.608 188.281Z"/>
</mask>
<path d="M726.608 188.281L727.088 187.921C730.928 189.181 735.428 191.941 737.888 194.281L736.568 172.081L740.648 172.081L739.208 194.281C741.728 191.881 746.348 189.061 750.008 187.921L750.488 188.281C745.088 197.161 739.388 216.781 738.728 226.321L738.488 226.321C737.828 216.961 732.188 197.521 726.608 188.281Z" fill="white"/>
<path d="M726.608 188.281L723.008 183.48L718.667 186.737L721.472 191.382L726.608 188.281ZM727.088 187.921L728.959 182.22L725.989 181.245L723.488 183.121L727.088 187.921ZM737.888 194.281L733.753 198.628L744.781 209.118L743.878 193.924L737.888 194.281ZM736.568 172.081L736.568 166.081L730.201 166.081L730.579 172.437L736.568 172.081ZM740.648 172.081L746.636 172.469L747.05 166.081L740.648 166.081L740.648 172.081ZM739.208 194.281L733.221 193.892L732.227 209.215L743.346 198.625L739.208 194.281ZM750.008 187.921L753.608 183.12L751.154 181.279L748.224 182.192L750.008 187.921ZM750.488 188.281L755.615 191.398L758.443 186.747L754.088 183.48L750.488 188.281ZM738.728 226.321L738.728 232.321L744.328 232.321L744.714 226.735L738.728 226.321ZM738.488 226.321L732.503 226.743L732.897 232.321L738.488 232.321L738.488 226.321ZM730.208 193.081L730.688 192.721L723.488 183.121L723.008 183.48L730.208 193.081ZM725.218 193.621C728.221 194.607 731.945 196.908 733.753 198.628L742.024 189.933C738.911 186.973 733.636 183.754 728.959 182.22L725.218 193.621ZM743.878 193.924L742.558 171.724L730.579 172.437L731.899 194.637L743.878 193.924ZM736.568 178.081L740.648 178.081L740.648 166.081L736.568 166.081L736.568 178.081ZM734.661 171.692L733.221 193.892L745.196 194.669L746.636 172.469L734.661 171.692ZM743.346 198.625C745.232 196.83 749.056 194.502 751.793 193.649L748.224 182.192C743.641 183.619 738.225 186.931 735.07 189.936L743.346 198.625ZM746.408 192.721L746.888 193.081L754.088 183.48L753.608 183.12L746.408 192.721ZM745.362 185.163C742.266 190.254 739.318 197.953 737.088 205.314C734.853 212.695 733.118 220.481 732.743 225.906L744.714 226.735C744.999 222.62 746.443 215.826 748.573 208.792C750.709 201.738 753.311 195.187 755.615 191.398L745.362 185.163ZM738.728 220.321L738.488 220.321L738.488 232.321L738.728 232.321L738.728 220.321ZM744.474 225.898C744.097 220.562 742.376 212.866 740.133 205.506C737.891 198.152 734.915 190.429 731.745 185.179L721.472 191.382C723.882 195.372 726.516 201.989 728.654 209.005C730.791 216.015 732.22 222.719 732.503 226.743L744.474 225.898Z" fill="black" mask="url(#path-26-outside-9_611_356)"/>
<mask id="path-28-outside-10_611_356" maskUnits="userSpaceOnUse" x="718.608" y="439.772" width="40" height="67" fill="black">
<rect fill="white" x="718.608" y="439.772" width="40" height="67"/>
<path d="M726.608 462.032L727.088 461.672C730.928 462.932 735.428 465.692 737.888 468.032L736.568 445.832L740.648 445.832L739.208 468.032C741.728 465.632 746.348 462.812 750.008 461.672L750.488 462.032C745.088 470.912 739.388 490.532 738.728 500.072L738.488 500.072C737.828 490.712 732.188 471.272 726.608 462.032Z"/>
</mask>
<path d="M726.608 462.032L727.088 461.672C730.928 462.932 735.428 465.692 737.888 468.032L736.568 445.832L740.648 445.832L739.208 468.032C741.728 465.632 746.348 462.812 750.008 461.672L750.488 462.032C745.088 470.912 739.388 490.532 738.728 500.072L738.488 500.072C737.828 490.712 732.188 471.272 726.608 462.032Z" fill="white"/>
<path d="M726.608 462.032L723.008 457.232L718.667 460.489L721.472 465.134L726.608 462.032ZM727.088 461.672L728.959 455.972L725.989 454.997L723.488 456.872L727.088 461.672ZM737.888 468.032L733.753 472.38L744.781 482.87L743.878 467.676L737.888 468.032ZM736.568 445.832L736.568 439.832L730.201 439.832L730.579 446.189L736.568 445.832ZM740.648 445.832L746.636 446.221L747.05 439.832L740.648 439.832L740.648 445.832ZM739.208 468.032L733.221 467.644L732.227 482.967L743.346 472.377L739.208 468.032ZM750.008 461.672L753.608 456.872L751.154 455.031L748.224 455.944L750.008 461.672ZM750.488 462.032L755.615 465.15L758.443 460.499L754.088 457.232L750.488 462.032ZM738.728 500.072L738.728 506.072L744.328 506.072L744.714 500.487L738.728 500.072ZM738.488 500.072L732.503 500.494L732.897 506.072L738.488 506.072L738.488 500.072ZM730.208 466.832L730.688 466.472L723.488 456.872L723.008 457.232L730.208 466.832ZM725.218 467.373C728.221 468.359 731.945 470.66 733.753 472.38L742.024 463.685C738.911 460.725 733.636 457.506 728.959 455.972L725.218 467.373ZM743.878 467.676L742.558 445.476L730.579 446.189L731.899 468.389L743.878 467.676ZM736.568 451.832L740.648 451.832L740.648 439.832L736.568 439.832L736.568 451.832ZM734.661 445.444L733.221 467.644L745.196 468.421L746.636 446.221L734.661 445.444ZM743.346 472.377C745.232 470.582 749.056 468.253 751.793 467.401L748.224 455.944C743.641 457.371 738.225 460.683 735.07 463.688L743.346 472.377ZM746.408 466.472L746.888 466.832L754.088 457.232L753.608 456.872L746.408 466.472ZM745.362 458.915C742.266 464.006 739.318 471.705 737.088 479.066C734.853 486.447 733.118 494.232 732.743 499.658L744.714 500.487C744.999 496.372 746.443 489.578 748.573 482.544C750.709 475.49 753.311 468.939 755.615 465.15L745.362 458.915ZM738.728 494.072L738.488 494.072L738.488 506.072L738.728 506.072L738.728 494.072ZM744.474 499.65C744.097 494.314 742.376 486.618 740.133 479.258C737.891 471.904 734.915 464.181 731.745 458.931L721.472 465.134C723.882 469.124 726.516 475.741 728.654 482.757C730.791 489.767 732.22 496.471 732.503 500.494L744.474 499.65Z" fill="black" mask="url(#path-28-outside-10_611_356)"/>
<path d="M890.641 933.878C890.641 1018.76 821.981 1087.56 737.294 1087.56C652.607 1087.56 583.947 1018.76 583.947 933.878C583.947 848.998 652.607 780.196 737.294 780.196C821.981 780.196 890.641 848.998 890.641 933.878Z" fill="black" stroke="white" stroke-width="4"/>
</g>
</svg>
