<svg width="320" height="320" viewBox="0 0 320 320" fill="none" xmlns="http://www.w3.org/2000/svg">
<circle cx="160" cy="160" r="157.5" fill="white" stroke="black" stroke-width="5"/>
<path d="M160.5 287C124.832 287 94.6076 274.725 69.8256 250.174C45.2752 225.624 33 195.399 33 159.5C33 123.601 45.2752 93.376 69.8256 68.8256C94.6076 44.2752 124.832 32 160.5 32C182.966 32 203.579 37.2112 222.339 47.6335C241.099 57.8243 256.27 71.8365 267.85 89.6703L245.963 103.567C236.93 89.2071 225.003 77.8583 210.18 69.5205C195.357 61.1826 178.797 57.0137 160.5 57.0137C132.012 57.0137 108.041 66.9728 88.5858 86.891C69.3624 106.578 59.7507 130.781 59.7507 159.5C59.7507 188.451 69.3624 212.77 88.5858 232.456C108.041 252.143 132.012 261.986 160.5 261.986C178.797 261.986 195.357 257.817 210.18 249.48C225.003 241.142 236.93 229.793 245.963 215.433L267.85 229.33C256.27 247.163 241.099 261.291 222.339 271.714C203.579 281.905 182.966 287 160.5 287Z" fill="#BCBCBC"/>
<path fill-rule="evenodd" clip-rule="evenodd" d="M228.909 109.481L92.8273 159.943L228.909 210.404L196.027 170.289L277.211 170.289L277.211 149.692L195.948 149.692L228.909 109.481Z" fill="#BCBCBC"/>
<path d="M74.1018 96.408C70.6338 96.408 67.6871 95.2067 65.2618 92.804C62.8364 90.3787 61.6238 87.4207 61.6238 83.93C61.6238 80.4393 62.8364 77.4927 65.2618 75.09C67.6871 72.6647 70.6338 71.452 74.1018 71.452C76.3911 71.452 78.4651 71.9733 80.3238 73.016C82.1824 74.0587 83.6671 75.4867 84.7778 77.3L82.1258 78.898C81.2644 77.5153 80.1424 76.4273 78.7598 75.634C77.3771 74.8407 75.8244 74.444 74.1018 74.444C71.4724 74.444 69.2624 75.362 67.4718 77.198C65.7038 79.034 64.8198 81.278 64.8198 83.93C64.8198 86.582 65.7038 88.826 67.4718 90.662C69.2624 92.498 71.4724 93.416 74.1018 93.416C75.8244 93.416 77.3771 93.0193 78.7598 92.226C80.1424 91.4327 81.2644 90.3447 82.1258 88.962L84.7778 90.56C83.6671 92.3733 82.1824 93.8013 80.3238 94.844C78.4651 95.8867 76.3911 96.408 74.1018 96.408ZM88.9558 96V71.86H103.032V74.852H92.1178V82.162H100.992V85.154H92.1178V93.008H103.032V96H88.9558ZM107.882 71.86H110.772L119.714 83.896L128.724 71.86H131.58V96H128.452V77.232L119.748 88.928L111.044 77.232V96H107.882V71.86ZM140.751 96H137.997V71.86H141.159V90.628L155.847 71.86H158.567V96H155.439V77.198L140.751 96ZM164.991 96V71.86H168.153V82.162H181.379V71.86H184.541V96H181.379V85.12H168.153V96H164.991ZM187.931 96L198.607 71.86H201.225L211.935 96H208.637L205.509 88.962H194.255L191.195 96H187.931ZM199.865 76.144L195.513 86.106H204.251L199.865 76.144ZM228.689 74.036C230.23 75.4867 231.001 77.3227 231.001 79.544C231.001 81.7653 230.23 83.6013 228.689 85.052C227.17 86.48 225.176 87.194 222.705 87.194H218.489V96H215.327V71.86H222.705C225.176 71.86 227.17 72.5853 228.689 74.036ZM226.479 82.944C227.408 82.06 227.873 80.9267 227.873 79.544C227.873 78.1613 227.408 77.028 226.479 76.144C225.572 75.26 224.314 74.818 222.705 74.818H218.489V84.27H222.705C224.314 84.27 225.572 83.828 226.479 82.944ZM238.411 81.55H242.899C245.392 81.55 247.387 82.2073 248.883 83.522C250.379 84.8367 251.127 86.582 251.127 88.758C251.127 90.934 250.379 92.6907 248.883 94.028C247.387 95.3427 245.392 96 242.899 96H235.249V71.86H238.411V81.55ZM238.411 93.076H242.797C244.474 93.076 245.755 92.7133 246.639 91.988C247.545 91.24 247.999 90.1633 247.999 88.758C247.999 87.398 247.545 86.344 246.639 85.596C245.755 84.848 244.474 84.474 242.797 84.474H238.411V93.076ZM254.561 96V71.86H257.723V96H254.561Z" fill="black"/>
<path d="M245.898 222.592C249.366 222.592 252.313 223.793 254.738 226.196C257.164 228.621 258.376 231.579 258.376 235.07C258.376 238.561 257.164 241.507 254.738 243.91C252.313 246.335 249.366 247.548 245.898 247.548C243.609 247.548 241.535 247.027 239.676 245.984C237.818 244.941 236.333 243.513 235.222 241.7L237.874 240.102C238.736 241.485 239.858 242.573 241.24 243.366C242.623 244.159 244.176 244.556 245.898 244.556C248.528 244.556 250.738 243.638 252.528 241.802C254.296 239.966 255.18 237.722 255.18 235.07C255.18 232.418 254.296 230.174 252.528 228.338C250.738 226.502 248.528 225.584 245.898 225.584C244.176 225.584 242.623 225.981 241.24 226.774C239.858 227.567 238.736 228.655 237.874 230.038L235.222 228.44C236.333 226.627 237.818 225.199 239.676 224.156C241.535 223.113 243.609 222.592 245.898 222.592ZM231.044 223L231.044 247.14L216.968 247.14L216.968 244.148L227.882 244.148L227.882 236.838L219.008 236.838L219.008 233.846L227.882 233.846L227.882 225.992L216.968 225.992L216.968 223L231.044 223ZM212.118 247.14L209.228 247.14L200.286 235.104L191.276 247.14L188.42 247.14L188.42 223L191.548 223L191.548 241.768L200.252 230.072L208.956 241.768L208.956 223L212.118 223L212.118 247.14ZM179.249 223L182.003 223L182.003 247.14L178.841 247.14L178.841 228.372L164.153 247.14L161.433 247.14L161.433 223L164.561 223L164.561 241.802L179.249 223ZM155.009 223L155.009 247.14L151.847 247.14L151.847 236.838L138.621 236.838L138.621 247.14L135.459 247.14L135.459 223L138.621 223L138.621 233.88L151.847 233.88L151.847 223L155.009 223ZM132.069 223L121.393 247.14L118.775 247.14L108.065 223L111.363 223L114.491 230.038L125.745 230.038L128.805 223L132.069 223ZM120.135 242.856L124.487 232.894L115.749 232.894L120.135 242.856ZM91.3111 244.964C89.7698 243.513 88.9991 241.677 88.9991 239.456C88.9991 237.235 89.7698 235.399 91.3111 233.948C92.8298 232.52 94.8245 231.806 97.2951 231.806L101.511 231.806L101.511 223L104.673 223L104.673 247.14L97.2951 247.14C94.8245 247.14 92.8298 246.415 91.3111 244.964ZM93.5211 236.056C92.5918 236.94 92.1271 238.073 92.1271 239.456C92.1271 240.839 92.5918 241.972 93.5211 242.856C94.4278 243.74 95.6858 244.182 97.2951 244.182L101.511 244.182L101.511 234.73L97.2951 234.73C95.6858 234.73 94.4278 235.172 93.5211 236.056ZM81.5893 237.45L77.1013 237.45C74.6079 237.45 72.6133 236.793 71.1173 235.478C69.6213 234.163 68.8733 232.418 68.8733 230.242C68.8733 228.066 69.6213 226.309 71.1173 224.972C72.6133 223.657 74.6079 223 77.1013 223L84.7513 223L84.7513 247.14L81.5893 247.14L81.5893 237.45ZM81.5893 225.924L77.2033 225.924C75.5259 225.924 74.2453 226.287 73.3613 227.012C72.4546 227.76 72.0013 228.837 72.0013 230.242C72.0013 231.602 72.4546 232.656 73.3613 233.404C74.2453 234.152 75.5259 234.526 77.2033 234.526L81.5893 234.526L81.5893 225.924ZM65.4393 223L65.4393 247.14L62.2773 247.14L62.2773 223L65.4393 223Z" fill="black"/>
<circle cx="160" cy="160" r="15" fill="black"/>
</svg>
