<svg width="538" height="922" viewBox="0 0 538 922" fill="none" xmlns="http://www.w3.org/2000/svg">
<mask id="mask0_455_538" style="mask-type:alpha" maskUnits="userSpaceOnUse" x="0" y="0" width="538" height="922">
<rect width="537.6" height="921.16" fill="#CA9595"/>
</mask>
<g mask="url(#mask0_455_538)">
<path d="M425.612 65.6917L401.079 62.8404L493.788 112.135L477.705 93.3905L479.583 89.8587L427.489 62.1599L425.612 65.6917Z" fill="black"/>
<path fill-rule="evenodd" clip-rule="evenodd" d="M426.662 59.4552L482.288 89.0319L480.112 93.1243L495.306 110.833L492.849 113.901L400.14 64.6064L401.309 60.8539L424.486 63.5476L426.662 59.4552ZM428.316 64.8649L426.737 67.8361L411.376 66.0508L485.368 105.393L475.299 93.657L476.878 90.6858L428.316 64.8649Z" fill="white"/>
<path d="M395.561 95.5828L470.612 135.488L456.527 161.976L381.477 122.071L395.561 95.5828Z" fill="black"/>
<path fill-rule="evenodd" clip-rule="evenodd" d="M465.202 137.142L397.215 100.992L386.887 120.417L454.874 156.567L465.202 137.142ZM395.561 95.5828L381.477 122.071L456.527 161.976L470.612 135.488L395.561 95.5828Z" fill="white"/>
<path d="M401.341 61.2812L494.934 111.045L480.85 137.534L387.257 87.7697L401.341 61.2812Z" fill="black"/>
<path fill-rule="evenodd" clip-rule="evenodd" d="M489.524 112.699L402.995 66.6909L392.667 86.1158L479.196 132.124L489.524 112.699ZM401.341 61.2812L387.257 87.7697L480.85 137.534L494.934 111.045L401.341 61.2812Z" fill="white"/>
<path d="M449.983 57.1316L472.057 68.8684L464.076 83.8785L442.002 72.1417L449.983 57.1316Z" fill="black"/>
<path fill-rule="evenodd" clip-rule="evenodd" d="M466.647 70.5223L451.637 62.5413L447.412 70.4878L462.422 78.4688L466.647 70.5223ZM449.983 57.1316L442.002 72.1417L464.076 83.8785L472.057 68.8684L449.983 57.1316Z" fill="white"/>
<path d="M465.542 266.435C439.614 315.199 379.064 333.711 330.3 307.783C281.536 281.855 263.025 221.305 288.953 172.541C314.881 123.777 375.431 105.265 424.195 131.193C472.959 157.122 491.47 217.672 465.542 266.435Z" fill="black"/>
<path fill-rule="evenodd" clip-rule="evenodd" d="M332.178 304.251C378.992 329.142 437.119 311.371 462.01 264.558C486.902 217.744 469.13 159.616 422.317 134.725C375.503 109.834 317.376 127.606 292.485 174.419C267.593 221.232 285.365 279.36 332.178 304.251ZM330.3 307.783C379.064 333.711 439.614 315.199 465.542 266.435C491.47 217.672 472.959 157.122 424.195 131.193C375.431 105.265 314.881 123.777 288.953 172.541C263.025 221.305 281.536 281.855 330.3 307.783Z" fill="white"/>
<path fill-rule="evenodd" clip-rule="evenodd" d="M341.568 286.592C378.628 306.298 424.646 292.229 444.352 255.168C464.057 218.108 449.988 172.09 412.927 152.384C375.867 132.679 329.849 146.748 310.143 183.809C290.438 220.869 304.507 266.887 341.568 286.592ZM339.69 290.124C378.701 310.867 427.141 296.057 447.883 257.046C468.626 218.035 453.816 169.595 414.805 148.853C375.794 128.11 327.354 142.92 306.612 181.931C285.869 220.942 300.679 269.382 339.69 290.124Z" fill="white"/>
<path fill-rule="evenodd" clip-rule="evenodd" d="M341.568 286.592C378.628 306.298 424.646 292.229 444.352 255.168C464.057 218.108 449.988 172.09 412.927 152.384C375.867 132.679 329.849 146.748 310.143 183.809C290.438 220.869 304.507 266.887 341.568 286.592ZM339.69 290.124C378.701 310.867 427.141 296.057 447.883 257.046C468.626 218.035 453.816 169.595 414.805 148.853C375.794 128.11 327.354 142.92 306.612 181.931C285.869 220.942 300.679 269.382 339.69 290.124Z" fill="white"/>
<path fill-rule="evenodd" clip-rule="evenodd" d="M341.568 286.592C378.628 306.298 424.646 292.229 444.352 255.168C464.057 218.108 449.988 172.09 412.927 152.384C375.867 132.679 329.849 146.748 310.143 183.809C290.438 220.869 304.507 266.887 341.568 286.592ZM339.69 290.124C378.701 310.867 427.141 296.057 447.883 257.046C468.626 218.035 453.816 169.595 414.805 148.853C375.794 128.11 327.354 142.92 306.612 181.931C285.869 220.942 300.679 269.382 339.69 290.124Z" fill="white"/>
<path fill-rule="evenodd" clip-rule="evenodd" d="M148.916 669.653L127.698 632.902L51.487 676.903L51.4863 676.902L47.5198 677.14C41.3211 677.512 35.2943 679.322 29.9164 682.427L12.22 692.644C9.91749 693.973 8.17363 696.091 7.31034 698.605C6.27626 701.617 6.59671 704.93 8.18903 707.688L24.6763 736.244C26.2686 739.002 28.9769 740.936 32.1024 741.546C34.7118 742.056 37.4175 741.605 39.72 740.275L56.8147 730.406C62.5765 727.079 67.4176 722.368 70.8995 716.699L72.7363 713.708L72.705 713.653L148.916 669.653Z" fill="black"/>
<path fill-rule="evenodd" clip-rule="evenodd" d="M51.4863 676.902L47.5198 677.14C41.3211 677.512 35.2943 679.322 29.9164 682.427L12.22 692.644C9.91749 693.973 8.17363 696.091 7.31034 698.605C6.27626 701.617 6.59671 704.93 8.18903 707.688L24.6763 736.244C26.2686 739.002 28.9769 740.936 32.1024 741.546C34.7118 742.056 37.4175 741.605 39.72 740.275L56.8147 730.406C62.5765 727.079 67.4176 722.368 70.8995 716.699L72.7363 713.708L72.705 713.653L148.916 669.653L127.698 632.902L51.487 676.903L51.4863 676.902ZM126.234 638.366L50.0229 682.367L49.2583 681.043L47.7595 681.133C42.1807 681.467 36.7565 683.097 31.9164 685.891L14.22 696.108C12.7538 696.954 11.6433 698.303 11.0936 699.904C10.4351 701.822 10.6392 703.931 11.6531 705.688L28.1404 734.244C29.1543 736.001 30.8789 737.232 32.8693 737.621C34.5309 737.945 36.2538 737.658 37.72 736.811L54.8147 726.942C60.0003 723.948 64.3573 719.707 67.491 714.605L68.081 713.644L67.2409 712.189L143.452 668.189L126.234 638.366Z" fill="white"/>
<path fill-rule="evenodd" clip-rule="evenodd" d="M337.298 260.538C326.184 278.601 301.68 325.183 298.213 356.411L276.905 483.821C274.219 507.687 255.405 563.448 201.634 595.563L163.956 617.435L164.107 617.724L127.778 638.898L143.118 665.217L178.207 644.766L178.255 644.858L215.464 623.869C241.084 610.121 295.336 564.18 307.384 490.4L329.839 361.901C334.568 333.836 346.305 311.762 365.553 275.562L337.298 260.538Z" fill="black"/>
<path fill-rule="evenodd" clip-rule="evenodd" d="M302.177 356.962L280.867 484.376C278.041 509.163 258.739 566.117 203.685 598.997L203.664 599.01L169.27 618.975L169.418 619.259L133.248 640.34L144.56 659.747L179.815 639.199L179.891 639.343L213.536 620.365L213.573 620.345C238.451 606.995 291.645 561.959 303.436 489.755L303.439 489.733L325.894 361.236C325.895 361.232 325.896 361.228 325.896 361.224C330.594 333.36 342.054 311.254 360.144 277.216L338.766 265.849C333.29 275.094 325.541 289.485 318.54 305.168C310.63 322.891 303.851 341.878 302.189 356.852L302.177 356.962ZM337.298 260.538C326.184 278.601 301.68 325.183 298.213 356.411L276.905 483.821C274.219 507.687 255.405 563.448 201.634 595.563L163.956 617.435L164.107 617.724L127.778 638.898L143.118 665.217L178.204 644.767L178.207 644.766L178.255 644.858L178.26 644.855L215.464 623.869C241.084 610.121 295.336 564.18 307.384 490.4L329.839 361.901C334.568 333.836 346.305 311.762 365.553 275.562L337.298 260.538Z" fill="white"/>
<path d="M170.876 610.622L189.376 642.665L154.735 662.665L136.235 630.622L170.876 610.622Z" fill="black"/>
<path fill-rule="evenodd" clip-rule="evenodd" d="M137.159 632.223L136.234 630.621L170.875 610.621L171.8 612.223L137.159 632.223ZM140.859 638.632L139.009 635.428L173.65 615.428L175.5 618.632L140.859 638.632ZM144.559 645.04L142.709 641.836L177.35 621.836L179.2 625.04L144.559 645.04ZM148.259 651.449L146.409 648.245L181.05 628.245L182.9 631.449L148.259 651.449ZM151.959 657.858L150.109 654.653L184.75 634.653L186.6 637.858L151.959 657.858ZM154.734 662.664L153.809 661.062L188.45 641.062L189.375 642.664L154.734 662.664Z" fill="white"/>
<path fill-rule="evenodd" clip-rule="evenodd" d="M359.877 252.157C377.92 261.751 400.323 254.901 409.917 236.859C419.51 218.816 412.661 196.413 394.618 186.819C376.575 177.226 354.172 184.075 344.578 202.118C334.985 220.161 341.834 242.564 359.877 252.157ZM349.079 272.465C378.338 288.022 414.667 276.915 430.224 247.657C445.781 218.398 434.674 182.068 405.416 166.512C376.158 150.955 339.828 162.062 324.271 191.32C308.714 220.578 319.821 256.908 349.079 272.465Z" fill="black"/>
<path fill-rule="evenodd" clip-rule="evenodd" d="M428.945 249.943L409.119 238.284C409.393 237.818 409.659 237.343 409.917 236.859C410.174 236.375 410.419 235.889 410.652 235.401L431.405 245.317C431.03 246.102 430.636 246.882 430.224 247.657C429.812 248.432 429.386 249.194 428.945 249.943ZM433.456 240.499L411.922 232.419C412.303 231.404 412.635 230.383 412.921 229.357L435.078 235.523C434.614 237.193 434.073 238.854 433.456 240.499ZM436.259 230.425L413.645 226.227C413.841 225.17 413.99 224.108 414.092 223.045L436.987 225.24C436.821 226.971 436.579 228.701 436.259 230.425ZM437.258 220.012L414.258 219.831C414.267 218.754 414.228 217.678 414.143 216.607L437.07 214.781C437.208 216.517 437.271 218.262 437.258 220.012ZM436.428 209.586L413.746 213.398C413.567 212.333 413.342 211.276 413.071 210.23L435.337 204.466C435.774 206.155 436.138 207.863 436.428 209.586ZM433.806 199.46L412.123 207.131C411.763 206.113 411.359 205.111 410.912 204.128L431.848 194.605C432.571 196.195 433.224 197.815 433.806 199.46ZM429.475 189.939L409.446 201.246C408.918 200.31 408.349 199.397 407.739 198.509L426.705 185.497C427.695 186.94 428.619 188.422 429.475 189.939ZM423.557 181.314L405.804 195.937C405.125 195.113 404.408 194.316 403.654 193.548L420.054 177.423C421.284 178.674 422.452 179.972 423.557 181.314ZM416.225 173.856L401.303 191.359C400.493 190.668 399.646 190.007 398.763 189.379L412.097 170.638C413.529 171.657 414.906 172.732 416.225 173.856ZM407.703 167.791L396.043 187.617C395.577 187.343 395.102 187.077 394.618 186.819C394.134 186.562 393.648 186.317 393.16 186.084L403.076 165.331C403.861 165.706 404.641 166.099 405.416 166.512C406.191 166.924 406.953 167.35 407.703 167.791ZM398.258 163.28L390.178 184.814C389.163 184.433 388.142 184.101 387.116 183.815L393.282 161.657C394.952 162.122 396.613 162.663 398.258 163.28ZM388.184 160.477L383.986 183.091C382.929 182.895 381.867 182.746 380.804 182.644L382.999 159.749C384.73 159.915 386.46 160.157 388.184 160.477ZM377.771 159.478L377.59 182.478C376.513 182.469 375.437 182.508 374.366 182.593L372.54 159.666C374.276 159.528 376.022 159.465 377.771 159.478ZM367.345 160.308L371.157 182.99C370.092 183.169 369.035 183.394 367.99 183.665L362.225 161.399C363.914 160.962 365.622 160.598 367.345 160.308ZM357.219 162.93L364.891 184.612C363.873 184.973 362.87 185.377 361.887 185.824L352.364 164.888C353.954 164.165 355.574 163.512 357.219 162.93ZM347.698 167.261L359.005 187.29C358.069 187.818 357.156 188.387 356.268 188.996L343.256 170.031C344.699 169.041 346.181 168.117 347.698 167.261ZM339.073 173.179L353.696 190.932C352.872 191.611 352.075 192.328 351.307 193.082L335.182 176.681C336.433 175.452 337.731 174.284 339.073 173.179ZM331.615 180.511L349.118 195.433C348.427 196.243 347.766 197.09 347.138 197.973L328.397 184.639C329.417 183.207 330.491 181.83 331.615 180.511ZM325.55 189.033C325.109 189.783 324.683 190.545 324.271 191.32C323.859 192.095 323.465 192.875 323.09 193.66L343.843 203.576C344.076 203.088 344.321 202.602 344.578 202.118C344.836 201.634 345.102 201.159 345.376 200.693L325.55 189.033ZM321.039 198.477L342.573 206.558C342.192 207.573 341.86 208.594 341.575 209.62L319.417 203.454C319.881 201.783 320.422 200.123 321.039 198.477ZM318.236 208.552L340.85 212.749C340.654 213.807 340.505 214.869 340.403 215.932L317.508 213.736C317.674 212.006 317.916 210.276 318.236 208.552ZM317.237 218.965L340.237 219.146C340.228 220.223 340.267 221.299 340.352 222.37L317.425 224.196C317.287 222.46 317.224 220.714 317.237 218.965ZM318.067 229.391L340.749 225.579C340.928 226.644 341.153 227.701 341.424 228.746L319.158 234.511C318.721 232.822 318.357 231.114 318.067 229.391ZM320.689 239.517L342.372 231.845C342.732 232.863 343.136 233.866 343.583 234.849L322.647 244.372C321.924 242.782 321.271 241.162 320.689 239.517ZM325.02 249.038L345.049 237.731C345.577 238.667 346.146 239.58 346.756 240.468L327.79 253.48C326.8 252.037 325.876 250.555 325.02 249.038ZM330.938 257.663L348.691 243.04C349.37 243.864 350.087 244.661 350.841 245.428L334.441 261.554C333.211 260.303 332.043 259.005 330.938 257.663ZM338.27 265.121L353.192 247.618C354.002 248.309 354.849 248.969 355.732 249.598L342.398 268.338C340.966 267.319 339.589 266.245 338.27 265.121ZM346.792 271.186L358.452 251.36C358.918 251.634 359.393 251.9 359.877 252.157C360.361 252.415 360.847 252.66 361.335 252.893L351.419 273.646C350.634 273.271 349.854 272.877 349.079 272.465C348.304 272.053 347.542 271.626 346.792 271.186ZM356.237 275.697L364.317 254.163C365.332 254.543 366.353 254.876 367.379 255.161L361.213 277.319C359.543 276.855 357.882 276.314 356.237 275.697ZM366.311 278.5L370.509 255.886C371.566 256.082 372.628 256.231 373.691 256.333L371.496 279.228C369.765 279.062 368.035 278.82 366.311 278.5ZM376.724 279.498L376.905 256.499C377.982 256.508 379.058 256.469 380.129 256.384L381.955 279.311C380.219 279.449 378.474 279.512 376.724 279.498ZM387.15 278.669L383.338 255.987C384.403 255.808 385.46 255.582 386.506 255.312L392.27 277.578C390.581 278.015 388.873 278.379 387.15 278.669ZM397.276 276.047L389.605 254.364C390.622 254.004 391.625 253.6 392.608 253.153L402.131 274.089C400.541 274.812 398.921 275.465 397.276 276.047ZM406.797 271.716L395.49 251.687C396.426 251.159 397.339 250.59 398.227 249.98L411.239 268.946C409.796 269.936 408.314 270.86 406.797 271.716ZM415.422 265.798L400.799 248.045C401.623 247.366 402.42 246.649 403.188 245.895L419.313 262.295C418.062 263.525 416.764 264.693 415.422 265.798ZM422.88 258.466L405.377 243.544C406.068 242.734 406.729 241.887 407.357 241.004L426.098 254.338C425.078 255.77 424.004 257.147 422.88 258.466Z" fill="white"/>
<path fill-rule="evenodd" clip-rule="evenodd" d="M366.008 239.561C377.467 245.655 391.697 241.304 397.79 229.845C403.883 218.385 399.533 204.156 388.073 198.063C376.614 191.97 362.384 196.32 356.291 207.78C350.198 219.239 354.548 233.468 366.008 239.561ZM364.13 243.093C377.54 250.223 394.191 245.133 401.322 231.723C408.452 218.313 403.361 201.661 389.951 194.531C376.541 187.401 359.89 192.492 352.759 205.902C345.629 219.312 350.72 235.963 364.13 243.093Z" fill="white"/>
<path fill-rule="evenodd" clip-rule="evenodd" d="M366.008 239.561C377.467 245.655 391.697 241.304 397.79 229.845C403.883 218.385 399.533 204.156 388.073 198.063C376.614 191.97 362.384 196.32 356.291 207.78C350.198 219.239 354.548 233.468 366.008 239.561ZM364.13 243.093C377.54 250.223 394.191 245.133 401.322 231.723C408.452 218.313 403.361 201.661 389.951 194.531C376.541 187.401 359.89 192.492 352.759 205.902C345.629 219.312 350.72 235.963 364.13 243.093Z" fill="white"/>
<path d="M81.2222 704.541L87.2843 701.041L111.418 744.842L107.088 747.342L81.2222 704.541Z" fill="white"/>
</g>
</svg>
