<svg width="79" height="350" viewBox="0 0 79 350" fill="none" xmlns="http://www.w3.org/2000/svg">
<path fill-rule="evenodd" clip-rule="evenodd" d="M0 349.053V0H36.84C43.488 0 49.0778 3.19865 53.4971 8.40906C57.7928 13.4737 61.1791 20.6246 63.9081 29.3738C69.373 46.8946 72.0279 67.9479 72.0279 92.3995C72.0279 123.205 68.8271 147.06 61.865 163.265C67.3525 170.866 71.289 180.976 73.955 193.185C77.0153 207.2 78.4988 224.436 78.4988 244.786C78.4988 273.942 75.3946 298.222 68.968 317.412C65.8171 326.956 61.9678 334.69 57.1772 340.134C52.2614 345.72 46.1755 349.053 39.0429 349.053H0ZM63.2743 315.519C69.424 297.163 72.4988 273.585 72.4988 244.786C72.4988 204.592 66.6245 177.691 54.8759 164.083C62.3106 149.208 66.0279 125.314 66.0279 92.3995C66.0279 68.3469 63.412 47.9339 58.1802 31.1603C52.9484 14.3868 45.835 6 36.84 6H6V343.053H39.0429C49.1393 343.053 57.2165 333.875 63.2743 315.519ZM50.7456 55.8459C54.0499 66.9227 55.702 80.3732 55.702 96.1973C55.702 112.971 54.0958 126.738 50.8833 137.498C47.6707 147.942 43.2191 153.164 37.5284 153.164H16.4636V38.7558H37.5284C43.1274 38.7558 47.5331 44.4525 50.7456 55.8459ZM22.4636 44.7558V147.164H37.5284C38.2552 147.164 39.2259 146.931 40.5691 145.355C42.0405 143.629 43.6512 140.595 45.1411 135.758C48.1225 125.759 49.702 112.633 49.702 96.1973C49.702 80.7559 48.0858 67.9189 44.9959 57.561L44.983 57.5177L44.9707 57.4741C43.4561 52.1025 41.8112 48.6714 40.2857 46.699C38.8638 44.8605 37.9582 44.7558 37.5284 44.7558H22.4636ZM50.8165 203.899L50.8029 203.856C47.2791 192.617 43.1812 190.496 40.282 190.496H22.4636V304.297H40.1443C43.164 304.297 47.2537 302.155 50.8308 291.326C54.3117 280.787 56.1729 266.31 56.1729 247.634C56.1729 228.957 54.3117 214.481 50.8308 203.942L50.8165 203.899ZM16.4636 310.297V184.496H40.282C47.4413 184.496 52.8567 190.351 56.5281 202.061C60.2913 213.454 62.1729 228.645 62.1729 247.634C62.1729 266.623 60.2913 281.814 56.5281 293.207C52.7649 304.601 47.3036 310.297 40.1443 310.297H16.4636Z" fill="black"/>
</svg>
