<svg width="1200" height="154" viewBox="0 0 1200 154" fill="none" xmlns="http://www.w3.org/2000/svg">
<path d="M86.747 153.6L-6.71407e-06 9.15527e-05L1200 3.90991e-05L1113.25 153.6L86.747 153.6Z" fill="white"/>
<path fill-rule="evenodd" clip-rule="evenodd" d="M90.4275 148.6L1109.57 148.6L1190.67 5.00004L9.3281 5.00009L90.4275 148.6ZM86.747 153.6L1113.25 153.6L1200 3.90991e-05L-6.71407e-06 9.15527e-05L86.747 153.6Z" fill="black"/>
<mask id="mask0_475_680" style="mask-type:alpha" maskUnits="userSpaceOnUse" x="0" y="0" width="1200" height="154">
<path d="M1111.79 151.1L88.2062 151.1L4.28303 2.50009L1195.72 2.50004L1111.79 151.1Z" fill="white" stroke="black" stroke-width="5"/>
</mask>
<g mask="url(#mask0_475_680)">
<path d="M600.26 95.1478C641.474 95.1478 678.705 99.1344 705.562 105.54C719.01 108.748 729.719 112.53 737.004 116.638C744.493 120.861 747.5 124.919 747.5 128.362C747.5 131.806 744.493 135.864 737.004 140.086C729.719 144.194 719.01 147.977 705.562 151.184C678.705 157.59 641.474 161.576 600.26 161.576C559.047 161.576 521.816 157.59 494.958 151.184C481.51 147.977 470.801 144.194 463.516 140.086C456.028 135.864 453.021 131.806 453.021 128.362C453.021 124.919 456.028 120.861 463.516 116.638C470.801 112.53 481.51 108.748 494.958 105.54C521.816 99.1344 559.047 95.1478 600.26 95.1478Z" fill="black" stroke="black" stroke-width="5"/>
</g>
</svg>
