<svg width="179" height="922" viewBox="0 0 179 922" fill="none" xmlns="http://www.w3.org/2000/svg">
<path d="M2.5 853.243V68.3573L176.06 3.6011V917.999L2.5 853.243Z" fill="white" stroke="black" stroke-width="5"/>
<mask id="mask0_448_478" style="mask-type:alpha" maskUnits="userSpaceOnUse" x="0" y="0" width="179" height="922">
<path d="M2.5 853.243V68.3573L176.06 3.6011V917.999L2.5 853.243Z" fill="white" stroke="black" stroke-width="5"/>
</mask>
<g mask="url(#mask0_448_478)">
<path d="M68.3571 461C68.3571 492.545 63.737 520.994 56.3454 541.468C52.6458 551.716 48.2993 559.832 43.5984 565.34C38.8894 570.857 34.0616 573.5 29.3393 573.5C24.617 573.5 19.7891 570.857 15.0801 565.34C10.3792 559.832 6.03275 551.716 2.33316 541.468C-5.05842 520.994 -9.67859 492.545 -9.67859 461C-9.67859 429.455 -5.05842 401.006 2.33316 380.532C6.03275 370.284 10.3792 362.168 15.0801 356.66C19.7891 351.143 24.617 348.5 29.3393 348.5C34.0616 348.5 38.8894 351.143 43.5984 356.66C48.2993 362.168 52.6458 370.284 56.3454 380.532C63.737 401.006 68.3571 429.455 68.3571 461Z" fill="black" stroke="black" stroke-width="5"/>
</g>
</svg>
