<svg width="1165" height="154" viewBox="0 0 1165 154" fill="none" xmlns="http://www.w3.org/2000/svg">
<path d="M84.2169 153.6L-6.71407e-06 9.15527e-05L1165 4.0629e-05L1080.78 153.6L84.2169 153.6Z" fill="white"/>
<path fill-rule="evenodd" clip-rule="evenodd" d="M87.79 148.6L1077.21 148.6L1155.94 5.00004L9.05603 5.00009L87.79 148.6ZM84.2169 153.6L1080.78 153.6L1165 4.0629e-05L-6.71407e-06 9.15527e-05L84.2169 153.6Z" fill="black"/>
<mask id="mask0_475_680" style="mask-type:alpha" maskUnits="userSpaceOnUse" x="0" y="0" width="1165" height="154">
<path d="M1079.3 151.1L85.6973 151.1L4.22182 2.50009L1160.78 2.50004L1079.3 151.1Z" fill="white" stroke="black" stroke-width="5"/>
</mask>
<g mask="url(#mask0_475_680)">
<path d="M582.753 95.1478C622.756 95.1478 658.889 99.1336 684.95 105.536C698 108.742 708.384 112.521 715.445 116.622C722.686 120.828 725.625 124.882 725.625 128.362C725.625 131.842 722.686 135.896 715.445 140.102C708.384 144.203 698 147.982 684.95 151.188C658.889 157.591 622.756 161.576 582.753 161.576C542.749 161.576 506.616 157.591 480.555 151.188C467.506 147.982 457.121 144.203 450.06 140.102C442.819 135.896 439.88 131.842 439.88 128.362C439.88 124.882 442.819 120.828 450.06 116.622C457.121 112.521 467.506 108.742 480.555 105.536C506.616 99.1337 542.749 95.1478 582.753 95.1478Z" fill="black" stroke="black" stroke-width="5"/>
</g>
</svg>
