<svg width="320" height="320" viewBox="0 0 320 320" fill="none" xmlns="http://www.w3.org/2000/svg">
<circle cx="160" cy="160" r="157.5" fill="#BCBCBC" stroke="black" stroke-width="5"/>
<circle cx="160" cy="160" r="15" fill="black"/>
<path d="M89.948 75V50.86H97.87C100.046 50.86 101.791 51.4833 103.106 52.73C104.421 53.9767 105.078 55.484 105.078 57.252C105.078 59.4733 104.217 61.1167 102.494 62.182C105.282 63.202 106.676 65.1287 106.676 67.962C106.676 70.002 105.928 71.6907 104.432 73.028C102.959 74.3427 101.009 75 98.584 75H89.948ZM93.11 72.144H98.72C100.307 72.144 101.508 71.7813 102.324 71.056C103.163 70.308 103.582 69.3107 103.582 68.064C103.582 66.84 103.163 65.854 102.324 65.106C101.508 64.3353 100.318 63.95 98.754 63.95H93.11V72.144ZM93.11 61.23H97.87C99.1393 61.23 100.137 60.89 100.862 60.21C101.61 59.5073 101.984 58.6007 101.984 57.49C101.984 56.4247 101.61 55.5293 100.862 54.804C100.114 54.0787 99.1166 53.716 97.87 53.716H93.11V61.23ZM114.493 60.55H118.981C121.474 60.55 123.469 61.2073 124.965 62.522C126.461 63.8367 127.209 65.582 127.209 67.758C127.209 69.934 126.461 71.6907 124.965 73.028C123.469 74.3427 121.474 75 118.981 75H111.331V50.86H114.493V60.55ZM114.493 72.076H118.879C120.556 72.076 121.837 71.7133 122.721 70.988C123.627 70.24 124.081 69.1633 124.081 67.758C124.081 66.398 123.627 65.344 122.721 64.596C121.837 63.848 120.556 63.474 118.879 63.474H114.493V72.076ZM130.643 75V50.86H133.805V75H130.643ZM143.346 60.856H148.922C151.348 60.856 153.308 61.4793 154.804 62.726C156.323 63.9727 157.082 65.7067 157.082 67.928C157.082 70.1267 156.323 71.8607 154.804 73.13C153.308 74.3767 151.348 75 148.922 75H140.184V50.86H154.838V53.852H143.346V60.856ZM153.92 67.928C153.92 66.5907 153.49 65.5707 152.628 64.868C151.767 64.1427 150.532 63.78 148.922 63.78H143.346V72.076H148.922C150.532 72.076 151.767 71.7133 152.628 70.988C153.49 70.2627 153.92 69.2427 153.92 67.928ZM161.401 75V50.86H175.477V53.852H164.563V61.162H173.437V64.154H164.563V72.008H175.477V75H161.401ZM193.689 53.036C195.23 54.4867 196.001 56.3227 196.001 58.544C196.001 60.7653 195.23 62.6013 193.689 64.052C192.17 65.48 190.176 66.194 187.705 66.194H183.489V75H180.327V50.86H187.705C190.176 50.86 192.17 51.5853 193.689 53.036ZM191.479 61.944C192.408 61.06 192.873 59.9267 192.873 58.544C192.873 57.1613 192.408 56.028 191.479 55.144C190.572 54.26 189.314 53.818 187.705 53.818H183.489V63.27H187.705C189.314 63.27 190.572 62.828 191.479 61.944ZM203.003 75H200.249V50.86H203.411V69.628L218.099 50.86H220.819V75H217.691V56.198L203.003 75ZM73.3217 115L60.5037 103.508V115H57.3757V90.86H60.5037V101.332L71.0437 90.86H75.1577L63.6657 102.352L77.7757 115H73.3217ZM77.1942 115L87.8702 90.86H90.4882L101.198 115H97.9002L94.7722 107.962H83.5182L80.4582 115H77.1942ZM89.1282 95.144L84.7762 105.106H93.5142L89.1282 95.144ZM107.295 115V93.852H99.7811V90.86H117.903V93.852H110.389V115H107.295ZM121.69 115V90.86H135.766V93.852H124.852V101.162H133.726V104.154H124.852V112.008H135.766V115H121.69ZM154.25 90.86V93.852H143.778V115H140.616V90.86H154.25ZM167.531 112.416C170.183 112.416 172.393 111.498 174.161 109.662C175.952 107.826 176.847 105.582 176.847 102.93C176.847 100.278 175.952 98.034 174.161 96.198C172.393 94.362 170.183 93.444 167.531 93.444C164.902 93.444 162.692 94.362 160.901 96.198C159.133 98.034 158.249 100.278 158.249 102.93C158.249 105.582 159.133 107.826 160.901 109.662C162.692 111.498 164.902 112.416 167.531 112.416ZM167.531 115.408C164.063 115.408 161.117 114.207 158.691 111.804C156.266 109.379 155.053 106.421 155.053 102.93C155.053 99.4393 156.266 96.4927 158.691 94.09C161.117 91.6647 164.063 90.452 167.531 90.452C171.022 90.452 173.969 91.6647 176.371 94.09C178.797 96.4927 180.009 99.4393 180.009 102.93C180.009 106.421 178.797 109.379 176.371 111.804C173.969 114.207 171.022 115.408 167.531 115.408ZM198.138 93.036C199.679 94.4867 200.45 96.3227 200.45 98.544C200.45 100.765 199.679 102.601 198.138 104.052C196.619 105.48 194.625 106.194 192.154 106.194H187.938V115H184.776V90.86H192.154C194.625 90.86 196.619 91.5853 198.138 93.036ZM195.928 101.944C196.857 101.06 197.322 99.9267 197.322 98.544C197.322 97.1613 196.857 96.028 195.928 95.144C195.021 94.26 193.763 93.818 192.154 93.818H187.938V103.27H192.154C193.763 103.27 195.021 102.828 195.928 101.944ZM207.452 115H204.698V90.86H207.86V109.628L222.548 90.86H225.268V115H222.14V96.198L207.452 115ZM231.692 115V90.86H234.854V101.196H239.138C239.546 98.0907 240.872 95.5293 243.116 93.512C245.36 91.472 248.035 90.452 251.14 90.452C254.54 90.452 257.407 91.6533 259.742 94.056C262.077 96.436 263.244 99.394 263.244 102.93C263.244 106.466 262.077 109.435 259.742 111.838C257.407 114.218 254.54 115.408 251.14 115.408C247.967 115.408 245.224 114.343 242.912 112.212C240.623 110.059 239.342 107.373 239.07 104.154H234.854V115H231.692ZM257.498 109.696C259.221 107.86 260.082 105.605 260.082 102.93C260.082 100.255 259.221 98.0113 257.498 96.198C255.798 94.362 253.679 93.444 251.14 93.444C248.624 93.444 246.505 94.362 244.782 96.198C243.082 98.0113 242.232 100.255 242.232 102.93C242.232 105.605 243.082 107.86 244.782 109.696C246.505 111.509 248.624 112.416 251.14 112.416C253.679 112.416 255.798 111.509 257.498 109.696Z" fill="black"/>
<path d="M229.052 245L229.052 269.14L221.13 269.14C218.954 269.14 217.209 268.517 215.894 267.27C214.579 266.023 213.922 264.516 213.922 262.748C213.922 260.527 214.783 258.883 216.506 257.818C213.718 256.798 212.324 254.871 212.324 252.038C212.324 249.998 213.072 248.309 214.568 246.972C216.041 245.657 217.991 245 220.416 245L229.052 245ZM225.89 247.856L220.28 247.856C218.693 247.856 217.492 248.219 216.676 248.944C215.837 249.692 215.418 250.689 215.418 251.936C215.418 253.16 215.837 254.146 216.676 254.894C217.492 255.665 218.682 256.05 220.246 256.05L225.89 256.05L225.89 247.856ZM225.89 258.77L221.13 258.77C219.861 258.77 218.863 259.11 218.138 259.79C217.39 260.493 217.016 261.399 217.016 262.51C217.016 263.575 217.39 264.471 218.138 265.196C218.886 265.921 219.883 266.284 221.13 266.284L225.89 266.284L225.89 258.77ZM204.507 259.45L200.019 259.45C197.526 259.45 195.531 258.793 194.035 257.478C192.539 256.163 191.791 254.418 191.791 252.242C191.791 250.066 192.539 248.309 194.035 246.972C195.531 245.657 197.526 245 200.019 245L207.669 245L207.669 269.14L204.507 269.14L204.507 259.45ZM204.507 247.924L200.121 247.924C198.444 247.924 197.163 248.287 196.279 249.012C195.373 249.76 194.919 250.837 194.919 252.242C194.919 253.602 195.373 254.656 196.279 255.404C197.163 256.152 198.444 256.526 200.121 256.526L204.507 256.526L204.507 247.924ZM188.357 245L188.357 269.14L185.195 269.14L185.195 245L188.357 245ZM175.654 259.144L170.078 259.144C167.652 259.144 165.692 258.521 164.196 257.274C162.677 256.027 161.918 254.293 161.918 252.072C161.918 249.873 162.677 248.139 164.196 246.87C165.692 245.623 167.652 245 170.078 245L178.816 245L178.816 269.14L164.162 269.14L164.162 266.148L175.654 266.148L175.654 259.144ZM165.08 252.072C165.08 253.409 165.51 254.429 166.372 255.132C167.233 255.857 168.468 256.22 170.078 256.22L175.654 256.22L175.654 247.924L170.078 247.924C168.468 247.924 167.233 248.287 166.372 249.012C165.51 249.737 165.08 250.757 165.08 252.072ZM157.599 245L157.599 269.14L143.523 269.14L143.523 266.148L154.437 266.148L154.437 258.838L145.563 258.838L145.563 255.846L154.437 255.846L154.437 247.992L143.523 247.992L143.523 245L157.599 245ZM125.311 266.964C123.77 265.513 122.999 263.677 122.999 261.456C122.999 259.235 123.77 257.399 125.311 255.948C126.83 254.52 128.824 253.806 131.295 253.806L135.511 253.806L135.511 245L138.673 245L138.673 269.14L131.295 269.14C128.824 269.14 126.83 268.415 125.311 266.964ZM127.521 258.056C126.592 258.94 126.127 260.073 126.127 261.456C126.127 262.839 126.592 263.972 127.521 264.856C128.428 265.74 129.686 266.182 131.295 266.182L135.511 266.182L135.511 256.73L131.295 256.73C129.686 256.73 128.428 257.172 127.521 258.056ZM115.997 245L118.751 245L118.751 269.14L115.589 269.14L115.589 250.372L100.901 269.14L98.1813 269.14L98.1813 245L101.309 245L101.309 263.802L115.997 245ZM245.678 205L258.496 216.492L258.496 205L261.624 205L261.624 229.14L258.496 229.14L258.496 218.668L247.956 229.14L243.842 229.14L255.334 217.648L241.224 205L245.678 205ZM241.806 205L231.13 229.14L228.512 229.14L217.802 205L221.1 205L224.228 212.038L235.482 212.038L238.542 205L241.806 205ZM229.872 224.856L234.224 214.894L225.486 214.894L229.872 224.856ZM211.705 205L211.705 226.148L219.219 226.148L219.219 229.14L201.097 229.14L201.097 226.148L208.611 226.148L208.611 205L211.705 205ZM197.31 205L197.31 229.14L183.234 229.14L183.234 226.148L194.148 226.148L194.148 218.838L185.274 218.838L185.274 215.846L194.148 215.846L194.148 207.992L183.234 207.992L183.234 205L197.31 205ZM164.75 229.14L164.75 226.148L175.222 226.148L175.222 205L178.384 205L178.384 229.14L164.75 229.14ZM151.469 207.584C148.817 207.584 146.607 208.502 144.839 210.338C143.048 212.174 142.153 214.418 142.153 217.07C142.153 219.722 143.048 221.966 144.839 223.802C146.607 225.638 148.817 226.556 151.469 226.556C154.098 226.556 156.308 225.638 158.099 223.802C159.867 221.966 160.751 219.722 160.751 217.07C160.751 214.418 159.867 212.174 158.099 210.338C156.308 208.502 154.098 207.584 151.469 207.584ZM151.469 204.592C154.937 204.592 157.883 205.793 160.309 208.196C162.734 210.621 163.947 213.579 163.947 217.07C163.947 220.561 162.734 223.507 160.309 225.91C157.883 228.335 154.937 229.548 151.469 229.548C147.978 229.548 145.031 228.335 142.629 225.91C140.203 223.507 138.991 220.561 138.991 217.07C138.991 213.579 140.203 210.621 142.629 208.196C145.031 205.793 147.978 204.592 151.469 204.592ZM120.862 226.964C119.321 225.513 118.55 223.677 118.55 221.456C118.55 219.235 119.321 217.399 120.862 215.948C122.381 214.52 124.375 213.806 126.846 213.806L131.062 213.806L131.062 205L134.224 205L134.224 229.14L126.846 229.14C124.375 229.14 122.381 228.415 120.862 226.964ZM123.072 218.056C122.143 218.94 121.678 220.073 121.678 221.456C121.678 222.839 122.143 223.972 123.072 224.856C123.979 225.74 125.237 226.182 126.846 226.182L131.062 226.182L131.062 216.73L126.846 216.73C125.237 216.73 123.979 217.172 123.072 218.056ZM111.548 205L114.302 205L114.302 229.14L111.14 229.14L111.14 210.372L96.4521 229.14L93.732 229.14L93.7321 205L96.8601 205L96.86 223.802L111.548 205ZM87.3079 205L87.3079 229.14L84.1459 229.14L84.1459 218.804L79.8619 218.804C79.4539 221.909 78.1279 224.471 75.8839 226.488C73.6399 228.528 70.9652 229.548 67.8599 229.548C64.4599 229.548 61.5926 228.347 59.2579 225.944C56.9232 223.564 55.7559 220.606 55.7559 217.07C55.7559 213.534 56.9232 210.565 59.2579 208.162C61.5926 205.782 64.4599 204.592 67.8599 204.592C71.0332 204.592 73.7759 205.657 76.0879 207.788C78.3772 209.941 79.6579 212.627 79.9299 215.846L84.1459 215.846L84.1459 205L87.3079 205ZM61.5019 210.304C59.7792 212.14 58.9179 214.395 58.9179 217.07C58.9179 219.745 59.7792 221.989 61.5019 223.802C63.2019 225.638 65.3212 226.556 67.8599 226.556C70.3759 226.556 72.4952 225.638 74.2179 223.802C75.9179 221.989 76.7679 219.745 76.7679 217.07C76.7679 214.395 75.9179 212.14 74.2179 210.304C72.4952 208.491 70.3759 207.584 67.8599 207.584C65.3212 207.584 63.2019 208.491 61.5019 210.304Z" fill="black"/>
<path d="M296.648 159.732L174.779 159.732" stroke="black" stroke-width="5"/>
<path d="M21.3525 159.732L149 160.004" stroke="black" stroke-width="5"/>
<path d="M278.756 172.6L278.372 172.088C279.716 167.992 282.66 163.192 285.156 160.568L261.476 161.976L261.476 157.624L285.156 159.16C282.596 156.472 279.588 151.544 278.372 147.64L278.756 147.128C288.228 152.888 309.156 158.968 319.332 159.672L319.332 159.928C309.348 160.632 288.612 166.648 278.756 172.6Z" fill="black"/>
<path d="M41.2441 146.863L41.6281 147.375C40.2841 151.471 37.3401 156.271 34.8441 158.895L58.5241 157.487L58.5241 161.839L34.8441 160.303C37.4041 162.991 40.4121 167.919 41.6281 171.823L41.2441 172.335C31.7721 166.575 10.8441 160.495 0.668085 159.791L0.668085 159.535C10.6521 158.831 31.3881 152.815 41.2441 146.863Z" fill="black"/>
</svg>
