<svg width="1191" height="922" viewBox="0 0 1191 922" fill="none" xmlns="http://www.w3.org/2000/svg">
<path d="M0 0H1190.4V921.16H0V0Z" fill="black"/>
<path fill-rule="evenodd" clip-rule="evenodd" d="M115 190C152.003 190 182 160.003 182 123C182 85.9969 152.003 56 115 56C77.9969 56 48 85.9969 48 123C48 160.003 77.9969 190 115 190ZM115 193C153.66 193 185 161.66 185 123C185 84.3401 153.66 53 115 53C76.3401 53 45 84.3401 45 123C45 161.66 76.3401 193 115 193Z" fill="white"/>
<path fill-rule="evenodd" clip-rule="evenodd" d="M115 190C152.003 190 182 160.003 182 123C182 85.9969 152.003 56 115 56C77.9969 56 48 85.9969 48 123C48 160.003 77.9969 190 115 190ZM115 193C153.66 193 185 161.66 185 123C185 84.3401 153.66 53 115 53C76.3401 53 45 84.3401 45 123C45 161.66 76.3401 193 115 193Z" fill="white"/>
<path fill-rule="evenodd" clip-rule="evenodd" d="M115 190C152.003 190 182 160.003 182 123C182 85.9969 152.003 56 115 56C77.9969 56 48 85.9969 48 123C48 160.003 77.9969 190 115 190ZM115 193C153.66 193 185 161.66 185 123C185 84.3401 153.66 53 115 53C76.3401 53 45 84.3401 45 123C45 161.66 76.3401 193 115 193Z" fill="white"/>
<path fill-rule="evenodd" clip-rule="evenodd" d="M115.5 155C133.449 155 148 140.449 148 122.5C148 104.551 133.449 90 115.5 90C97.5507 90 83 104.551 83 122.5C83 140.449 97.5507 155 115.5 155ZM115.5 158C135.106 158 151 142.106 151 122.5C151 102.894 135.106 87 115.5 87C95.8939 87 80 102.894 80 122.5C80 142.106 95.8939 158 115.5 158Z" fill="white"/>
<path fill-rule="evenodd" clip-rule="evenodd" d="M115.5 155C133.449 155 148 140.449 148 122.5C148 104.551 133.449 90 115.5 90C97.5507 90 83 104.551 83 122.5C83 140.449 97.5507 155 115.5 155ZM115.5 158C135.106 158 151 142.106 151 122.5C151 102.894 135.106 87 115.5 87C95.8939 87 80 102.894 80 122.5C80 142.106 95.8939 158 115.5 158Z" fill="white"/>
<path fill-rule="evenodd" clip-rule="evenodd" d="M115.5 155C133.449 155 148 140.449 148 122.5C148 104.551 133.449 90 115.5 90C97.5507 90 83 104.551 83 122.5C83 140.449 97.5507 155 115.5 155ZM115.5 158C135.106 158 151 142.106 151 122.5C151 102.894 135.106 87 115.5 87C95.8939 87 80 102.894 80 122.5C80 142.106 95.8939 158 115.5 158Z" fill="white"/>
<path fill-rule="evenodd" clip-rule="evenodd" d="M126.819 53.9565C126.821 53.9567 126.822 53.9569 126.823 53.9571C127.806 54.1255 128.787 54.3152 129.765 54.5267C134.679 55.5879 139.54 57.1944 144.266 59.3666C148.992 61.5389 153.376 64.182 157.381 67.2198C158.18 67.8258 158.964 68.4475 159.732 69.0843L136.383 97.2587C134.197 95.4473 131.728 93.8765 128.984 92.6152C126.24 91.3539 123.44 90.5029 120.642 90.0237L126.819 53.9565ZM129.258 57.4865L124.084 87.6964C126.152 88.2308 128.21 88.9578 130.237 89.8893C132.263 90.8208 134.155 91.9091 135.907 93.1308L155.465 69.5319C151.661 66.6578 147.498 64.1542 143.013 62.0925C138.527 60.0308 133.917 58.5022 129.258 57.4865ZM184.045 134.757C183.877 135.741 183.687 136.723 183.475 137.703C182.414 142.617 180.807 147.478 178.635 152.204C176.463 156.93 173.82 161.315 170.782 165.319C170.176 166.118 169.554 166.902 168.917 167.67L140.743 144.321C140.746 144.317 140.749 144.314 140.751 144.31C142.559 142.127 144.127 139.662 145.386 136.922C146.646 134.182 147.496 131.387 147.975 128.594C147.976 128.589 147.977 128.585 147.978 128.58L184.045 134.757ZM180.515 137.197L150.305 132.022C149.771 134.09 149.044 136.148 148.112 138.175C147.181 140.201 146.093 142.093 144.871 143.845L168.47 163.403C171.344 159.599 173.847 155.437 175.909 150.951C177.971 146.465 179.499 141.855 180.515 137.197ZM61.5938 82.5365C58.7197 86.3409 56.2161 90.5031 54.1544 94.9887C52.0927 99.4742 50.5641 104.085 49.5484 108.743L79.7583 113.918C80.2927 111.849 81.0197 109.792 81.9512 107.765C82.8827 105.738 83.971 103.847 85.1927 102.094L61.5938 82.5365ZM59.2817 80.6203C56.2439 84.6251 53.6008 89.0097 51.4285 93.7358C49.2563 98.4619 47.6498 103.323 46.5886 108.236C46.3769 109.216 46.1868 110.199 46.0184 111.182L82.0856 117.36C82.5648 114.562 83.4158 111.762 84.6771 109.018C85.9383 106.274 87.5092 103.805 89.3206 101.619L61.1462 78.2692C60.5094 79.0376 59.8877 79.8214 59.2817 80.6203ZM74.5984 176.408C78.4028 179.282 82.565 181.786 87.0506 183.847C91.5361 185.909 96.1465 187.437 100.805 188.453L105.979 158.243C103.911 157.709 101.854 156.982 99.8269 156.05C97.8002 155.119 95.9086 154.031 94.1562 152.809L74.5984 176.408ZM72.6822 178.72C71.8833 178.114 71.0995 177.492 70.3311 176.855L93.6809 148.681C93.6849 148.684 93.6889 148.688 93.6929 148.691C95.8756 150.498 98.3407 152.066 101.08 153.325C103.82 154.584 106.615 155.434 109.409 155.914C109.413 155.915 109.417 155.915 109.422 155.916L103.244 191.983C102.26 191.815 101.278 191.625 100.298 191.413C95.3848 190.352 90.5238 188.745 85.7977 186.573C81.0716 184.401 76.687 181.758 72.6822 178.72Z" fill="white"/>
<path fill-rule="evenodd" clip-rule="evenodd" d="M140.465 58.8311C141.645 59.2955 142.818 59.7945 143.981 60.3284C145.145 60.8622 146.287 61.4255 147.409 62.0172L131.079 92.9739C130.527 92.6828 129.962 92.4044 129.385 92.1395C128.807 91.8746 128.228 91.6282 127.648 91.3997L140.465 58.8311ZM178.137 95.137C179.157 97.4781 180.046 99.8745 180.799 102.315L147.357 112.64C146.988 111.443 146.552 110.268 146.051 109.12L178.137 95.137ZM88.1405 59.7989C90.4816 58.7787 92.8781 57.8897 95.3181 57.1363L105.643 90.5788C104.447 90.9482 103.271 91.3842 102.123 91.8844L88.1405 59.7989ZM179.105 147.462C178.64 148.642 178.141 149.814 177.607 150.978C177.074 152.141 176.51 153.284 175.919 154.405L144.962 138.075C145.253 137.523 145.531 136.959 145.796 136.381C146.061 135.804 146.308 135.225 146.536 134.644L179.105 147.462ZM53.3319 93.9548C53.8658 92.7913 54.4291 91.6485 55.0208 90.5268L85.9774 106.857C85.6863 107.409 85.4079 107.974 85.1431 108.551C84.8782 109.128 84.6317 109.708 84.4032 110.288L51.8346 97.4707C52.299 96.2906 52.7981 95.1183 53.3319 93.9548ZM52.8024 149.795C51.7822 147.454 50.8932 145.058 50.1399 142.618L83.5823 132.293C83.9517 133.489 84.3877 134.665 84.888 135.813L52.8024 149.795ZM142.799 185.133C140.458 186.154 138.061 187.043 135.621 187.796L125.296 154.354C126.493 153.984 127.668 153.548 128.816 153.048L142.799 185.133ZM86.9583 184.604C85.7949 184.07 84.652 183.507 83.5304 182.915L99.8608 151.958C100.413 152.25 100.977 152.528 101.555 152.793C102.132 153.058 102.711 153.304 103.292 153.533L90.4742 186.101C89.2942 185.637 88.1218 185.138 86.9583 184.604Z" fill="white"/>
<path d="M45 773H200V873H45V773Z" fill="black"/>
<path fill-rule="evenodd" clip-rule="evenodd" d="M196 777H49V869H196V777ZM45 773V873H200V773H45Z" fill="white"/>
<path fill-rule="evenodd" clip-rule="evenodd" d="M143.924 839.625V812.296H148.924V839.625H143.924Z" fill="white"/>
<path fill-rule="evenodd" clip-rule="evenodd" d="M155.296 839.625V812.296H160.296V839.625H155.296Z" fill="white"/>
<path d="M101.946 825.34L83.9397 839.325L83.9397 811.354L101.946 825.34Z" fill="white"/>
<path d="M112.684 837.919L124.264 813.319H126.694L115.114 837.919H112.684Z" fill="white"/>
<path fill-rule="evenodd" clip-rule="evenodd" d="M111.108 838.919L123.63 812.319H128.27L115.749 838.919H111.108ZM112.684 837.919H115.114L126.694 813.319H124.264L112.684 837.919Z" fill="white"/>
</svg>
