<svg width="768" height="116" viewBox="0 0 768 116" fill="none" xmlns="http://www.w3.org/2000/svg">
<path d="M55.5181 115.6L-5.03555e-06 0.400102L768 0.400069L712.482 115.6L55.5181 115.6Z" fill="white"/>
<path fill-rule="evenodd" clip-rule="evenodd" d="M57.8736 111.85L710.126 111.85L762.03 4.15007L5.96998 4.1501L57.8736 111.85ZM55.5181 115.6L712.482 115.6L768 0.400069L-5.03555e-06 0.400102L55.5181 115.6Z" fill="black"/>
<mask id="mask0_475_694" style="mask-type:alpha" maskUnits="userSpaceOnUse" x="0" y="0" width="768" height="116">
<path d="M710.912 113.1L57.0884 113.1L3.97999 2.9001L764.02 2.90007L710.912 113.1Z" fill="white" stroke="black" stroke-width="5"/>
</mask>
<g mask="url(#mask0_475_694)">
<path d="M384.167 72.3858C410.47 72.3858 434.191 75.3686 451.258 80.1389C459.809 82.529 466.548 85.3291 471.091 88.3311C475.732 91.3982 477.5 94.2679 477.5 96.6716C477.5 99.0752 475.732 101.945 471.091 105.012C466.548 108.014 459.809 110.814 451.258 113.204C434.191 117.975 410.47 120.957 384.167 120.957C357.864 120.957 334.143 117.975 317.075 113.204C308.524 110.814 301.786 108.014 297.243 105.012C292.602 101.945 290.833 99.0752 290.833 96.6716C290.833 94.2679 292.602 91.3982 297.243 88.3311C301.786 85.3291 308.524 82.529 317.075 80.1389C334.143 75.3686 357.864 72.3858 384.167 72.3858Z" fill="black" stroke="black" stroke-width="5"/>
</g>
</svg>
