<svg width="768" height="137" viewBox="0 0 768 137" fill="none" xmlns="http://www.w3.org/2000/svg">
<path d="M55.5181 137L-5.97097e-06 0.400083L768 0.40005L712.482 137L55.5181 137Z" fill="white"/>
<path fill-rule="evenodd" clip-rule="evenodd" d="M57.8736 132.553L710.126 132.553L762.03 4.84666L5.96998 4.84669L57.8736 132.553ZM55.5181 137L712.482 137L768 0.40005L-5.97097e-06 0.400083L55.5181 137Z" fill="black"/>
<mask id="mask0_475_694" style="mask-type:alpha" maskUnits="userSpaceOnUse" x="0" y="0" width="768" height="137">
<path d="M710.799 134.5L57.2006 134.5L3.71466 2.90009L764.285 2.90005L710.799 134.5Z" fill="white" stroke="black" stroke-width="5"/>
</mask>
<g mask="url(#mask0_475_694)">
<path d="M384.167 85.2939C410.438 85.2939 434.118 88.8266 451.145 94.4697C459.671 97.2955 466.391 100.606 470.927 104.16C475.493 107.738 477.5 111.271 477.5 114.555C477.5 117.84 475.493 121.373 470.927 124.951C466.391 128.505 459.671 131.815 451.145 134.641C434.118 140.284 410.438 143.817 384.167 143.817C357.896 143.817 334.215 140.284 317.189 134.641C308.662 131.815 301.943 128.505 297.407 124.951C292.84 121.373 290.833 117.84 290.833 114.555C290.833 111.271 292.84 107.738 297.407 104.16C301.943 100.606 308.662 97.2956 317.189 94.4697C334.215 88.8267 357.896 85.2939 384.167 85.2939Z" fill="black" stroke="black" stroke-width="5"/>
</g>
</svg>
