<svg width="1280" height="921" viewBox="0 0 1280 921" fill="none" xmlns="http://www.w3.org/2000/svg">
<path d="M0 0H1280V921H0V0Z" fill="black"/>
<path fill-rule="evenodd" clip-rule="evenodd" d="M118.519 190C156.654 190 187.569 160.003 187.569 123C187.569 85.9969 156.654 56 118.519 56C80.3834 56 49.4687 85.9969 49.4687 123C49.4687 160.003 80.3834 190 118.519 190ZM118.519 193C158.361 193 190.66 161.66 190.66 123C190.66 84.3401 158.361 53 118.519 53C78.6759 53 46.377 84.3401 46.377 123C46.377 161.66 78.6759 193 118.519 193Z" fill="white"/>
<path fill-rule="evenodd" clip-rule="evenodd" d="M118.519 190C156.654 190 187.569 160.003 187.569 123C187.569 85.9969 156.654 56 118.519 56C80.3834 56 49.4687 85.9969 49.4687 123C49.4687 160.003 80.3834 190 118.519 190ZM118.519 193C158.361 193 190.66 161.66 190.66 123C190.66 84.3401 158.361 53 118.519 53C78.6759 53 46.377 84.3401 46.377 123C46.377 161.66 78.6759 193 118.519 193Z" fill="white"/>
<path fill-rule="evenodd" clip-rule="evenodd" d="M118.519 190C156.654 190 187.569 160.003 187.569 123C187.569 85.9969 156.654 56 118.519 56C80.3834 56 49.4687 85.9969 49.4687 123C49.4687 160.003 80.3834 190 118.519 190ZM118.519 193C158.361 193 190.66 161.66 190.66 123C190.66 84.3401 158.361 53 118.519 53C78.6759 53 46.377 84.3401 46.377 123C46.377 161.66 78.6759 193 118.519 193Z" fill="white"/>
<path fill-rule="evenodd" clip-rule="evenodd" d="M119.033 155C137.532 155 152.528 140.449 152.528 122.5C152.528 104.551 137.532 90 119.033 90C100.535 90 85.5391 104.551 85.5391 122.5C85.5391 140.449 100.535 155 119.033 155ZM119.033 158C139.239 158 155.62 142.106 155.62 122.5C155.62 102.894 139.239 87 119.033 87C98.8274 87 82.4473 102.894 82.4473 122.5C82.4473 142.106 98.8274 158 119.033 158Z" fill="white"/>
<path fill-rule="evenodd" clip-rule="evenodd" d="M119.033 155C137.532 155 152.528 140.449 152.528 122.5C152.528 104.551 137.532 90 119.033 90C100.535 90 85.5391 104.551 85.5391 122.5C85.5391 140.449 100.535 155 119.033 155ZM119.033 158C139.239 158 155.62 142.106 155.62 122.5C155.62 102.894 139.239 87 119.033 87C98.8274 87 82.4473 102.894 82.4473 122.5C82.4473 142.106 98.8274 158 119.033 158Z" fill="white"/>
<path fill-rule="evenodd" clip-rule="evenodd" d="M119.033 155C137.532 155 152.528 140.449 152.528 122.5C152.528 104.551 137.532 90 119.033 90C100.535 90 85.5391 104.551 85.5391 122.5C85.5391 140.449 100.535 155 119.033 155ZM119.033 158C139.239 158 155.62 142.106 155.62 122.5C155.62 102.894 139.239 87 119.033 87C98.8274 87 82.4473 102.894 82.4473 122.5C82.4473 142.106 98.8274 158 119.033 158Z" fill="white"/>
<path fill-rule="evenodd" clip-rule="evenodd" d="M130.699 53.9565C130.7 53.9567 130.702 53.9569 130.703 53.9571C131.715 54.1255 132.726 54.3152 133.735 54.5267C138.799 55.5879 143.808 57.1944 148.679 59.3666C153.55 61.5389 158.068 64.182 162.196 67.2198C163.019 67.8258 163.827 68.4475 164.619 69.0843L140.555 97.2587C138.302 95.4473 135.758 93.8765 132.929 92.6152C130.101 91.3539 127.216 90.5029 124.332 90.0237L130.699 53.9565ZM133.213 57.4865L127.88 87.6964C130.011 88.2308 132.132 88.9578 134.221 89.8893C136.309 90.8208 138.259 91.9091 140.065 93.1308L160.221 69.5319C156.3 66.6578 152.011 64.1542 147.388 62.0925C142.765 60.0308 138.014 58.5022 133.213 57.4865ZM189.675 134.757C189.502 135.741 189.306 136.723 189.088 137.703C187.994 142.617 186.339 147.478 184.1 152.204C181.861 156.93 179.137 161.315 176.006 165.319C175.382 166.118 174.741 166.902 174.085 167.67L145.048 144.321C145.051 144.317 145.054 144.314 145.057 144.31C146.92 142.127 148.536 139.662 149.834 136.922C151.132 134.182 152.008 131.387 152.502 128.594C152.503 128.589 152.504 128.585 152.505 128.58L189.675 134.757ZM186.037 137.197L154.903 132.022C154.352 134.09 153.603 136.148 152.643 138.175C151.683 140.201 150.562 142.093 149.303 143.845L173.624 163.403C176.586 159.599 179.166 155.437 181.291 150.951C183.415 146.465 184.991 141.855 186.037 137.197ZM63.4777 82.5365C60.5156 86.3409 57.9354 90.5031 55.8106 94.9887C53.6858 99.4742 52.1105 104.085 51.0637 108.743L82.1979 113.918C82.7487 111.849 83.4979 109.792 84.4579 107.765C85.4179 105.738 86.5395 103.847 87.7986 102.094L63.4777 82.5365ZM61.0948 80.6203C57.9641 84.6251 55.2401 89.0097 53.0014 93.7358C50.7626 98.4619 49.1071 103.323 48.0133 108.236C47.7951 109.216 47.5993 110.199 47.4257 111.182L84.5964 117.36C85.0903 114.562 85.9673 111.762 87.2672 109.018C88.567 106.274 90.186 103.805 92.0528 101.619L63.0164 78.2692C62.3601 79.0376 61.7194 79.8214 61.0948 80.6203ZM76.8801 176.408C80.8009 179.282 85.0905 181.786 89.7133 183.847C94.3361 185.909 99.0875 187.437 103.889 188.453L109.221 158.243C107.09 157.709 104.969 156.982 102.881 156.05C100.792 155.119 98.8424 154.031 97.0364 152.809L76.8801 176.408ZM74.9054 178.72C74.082 178.114 73.2742 177.492 72.4823 176.855L96.5465 148.681C96.5506 148.684 96.5547 148.688 96.5589 148.691C98.8083 150.498 101.349 152.066 104.172 153.325C106.995 154.584 109.876 155.434 112.755 155.914C112.76 155.915 112.764 155.915 112.769 155.916L106.402 191.983C105.389 191.815 104.376 191.625 103.366 191.413C98.3025 190.352 93.2928 188.745 88.4221 186.573C83.5514 184.401 79.0327 181.758 74.9054 178.72Z" fill="white"/>
<path fill-rule="evenodd" clip-rule="evenodd" d="M144.763 58.8312C145.979 59.2956 147.188 59.7946 148.387 60.3285C149.586 60.8623 150.763 61.4257 151.919 62.0173L135.089 92.974C134.521 92.6829 133.939 92.4045 133.344 92.1396C132.749 91.8747 132.152 91.6283 131.553 91.3998L144.763 58.8312ZM183.588 95.1371C184.639 97.4782 185.555 99.8747 186.332 102.315L151.866 112.64C151.485 111.443 151.036 110.268 150.52 109.12L183.588 95.1371ZM90.8376 59.799C93.2503 58.7788 95.7201 57.8898 98.2348 57.1365L108.876 90.5789C107.643 90.9483 106.431 91.3843 105.248 91.8846L90.8376 59.799ZM184.585 147.462C184.106 148.642 183.592 149.814 183.042 150.978C182.492 152.141 181.911 153.284 181.301 154.406L149.397 138.075C149.698 137.523 149.984 136.959 150.257 136.381C150.53 135.804 150.784 135.225 151.02 134.644L184.585 147.462ZM54.964 93.9549C55.5142 92.7914 56.0947 91.6486 56.7045 90.527L88.6083 106.857C88.3083 107.409 88.0214 107.974 87.7484 108.551C87.4754 109.128 87.2214 109.708 86.9859 110.288L53.4209 97.4708C53.8995 96.2908 54.4138 95.1184 54.964 93.9549ZM54.4183 149.795C53.3669 147.454 52.4507 145.058 51.6743 142.618L86.1399 132.293C86.5206 133.489 86.9699 134.665 87.4855 135.813L54.4183 149.795ZM147.168 185.134C144.756 186.154 142.286 187.043 139.771 187.796L129.13 154.354C130.363 153.984 131.575 153.548 132.758 153.048L147.168 185.134ZM89.6192 184.604C88.4202 184.07 87.2423 183.507 86.0864 182.915L102.916 151.959C103.485 152.25 104.067 152.528 104.662 152.793C105.257 153.058 105.854 153.304 106.452 153.533L93.2427 186.101C92.0265 185.637 90.8183 185.138 89.6192 184.604Z" fill="white"/>
<path d="M46.377 773H206.119V873H46.377V773Z" fill="black"/>
<path fill-rule="evenodd" clip-rule="evenodd" d="M201.997 777H50.4993V869H201.997V777ZM46.377 773V873H206.119V773H46.377Z" fill="white"/>
<path fill-rule="evenodd" clip-rule="evenodd" d="M148.327 839.625V812.296H153.48V839.625H148.327Z" fill="white"/>
<path fill-rule="evenodd" clip-rule="evenodd" d="M160.047 839.625V812.296H165.2V839.625H160.047Z" fill="white"/>
<path d="M105.063 825.34L86.5065 839.325L86.5065 811.354L105.063 825.34Z" fill="white"/>
<path d="M116.132 837.919L128.066 813.319H130.57L118.636 837.919H116.132Z" fill="white"/>
<path fill-rule="evenodd" clip-rule="evenodd" d="M114.507 838.919L127.411 812.319H132.194L119.289 838.919H114.507ZM116.131 837.919H118.635L130.57 813.319H128.065L116.131 837.919Z" fill="white"/>
</svg>
