<svg width="1220" height="187" viewBox="0 0 1220 187" fill="none" xmlns="http://www.w3.org/2000/svg">
<g clip-path="url(#clip0_583_297)">
<path d="M88.1928 186.514L0 6.36937e-05L1220 0L1131.8 186.514H88.1928Z" fill="white"/>
<path fill-rule="evenodd" clip-rule="evenodd" d="M91.9346 180.443H1128.06L1210.51 6.07143L9.48358 6.07149L91.9346 180.443ZM88.1928 186.514H1131.8L1220 0L0 6.36937e-05L88.1928 186.514Z" fill="black"/>
<mask id="mask0_583_297" style="mask-type:alpha" maskUnits="userSpaceOnUse" x="0" y="0" width="1220" height="186">
<path d="M1130.32 183.478H89.6764L4.35449 3.03571L1215.65 3.03564L1130.32 183.478Z" fill="white" stroke="black" stroke-width="5"/>
</mask>
<g mask="url(#mask0_583_297)">
<path d="M610.264 124.037C652.165 124.037 690.017 128.877 717.321 136.655C730.993 140.551 741.881 145.143 749.287 150.132C756.901 155.26 759.958 160.187 759.958 164.368C759.958 168.55 756.901 173.477 749.287 178.604C741.881 183.592 730.993 188.186 717.321 192.08C690.017 199.859 652.165 204.699 610.264 204.699C568.364 204.699 530.513 199.859 503.207 192.08C489.535 188.186 478.648 183.592 471.241 178.604C463.628 173.477 460.571 168.55 460.571 164.368C460.571 160.187 463.628 155.26 471.241 150.132C478.648 145.143 489.535 140.551 503.207 136.655C530.513 128.877 568.364 124.037 610.264 124.037Z" fill="black" stroke="black" stroke-width="5"/>
</g>
</g>
<defs>
<clipPath id="clip0_583_297">
<rect width="1220" height="187" fill="white"/>
</clipPath>
</defs>
</svg>
