<svg width="320" height="320" viewBox="0 0 320 320" fill="none" xmlns="http://www.w3.org/2000/svg">
<circle cx="160" cy="160" r="157.5" fill="#BCBCBC" stroke="black" stroke-width="5"/>
<path d="M245.794 137.47H250.49C253.098 137.47 255.185 143.555 256.751 155.724C258.316 167.893 259.098 184.048 259.098 204.19C259.098 224.331 258.316 240.592 256.751 252.97C255.185 265.139 253.098 271.224 250.49 271.224H242.486V47.7769H245.794V137.47ZM245.794 244.158H250.383C252.138 244.158 253.478 240.801 254.403 234.087C255.351 227.164 255.826 217.198 255.826 204.19C255.826 191.601 255.351 181.845 254.403 174.921C253.478 167.998 252.138 164.536 250.383 164.536H245.794V244.158ZM262.691 271.224V47.7769H265.999V271.224H262.691Z" fill="white"/>
<path d="M232.523 271.224V75.4717H219.112V271.224H215.911V47.7769H235.76V271.224H232.523Z" fill="white"/>
<path d="M197.868 247.305C200.643 247.305 202.955 238.808 204.805 221.813C206.678 204.819 207.615 184.048 207.615 159.5C207.615 134.952 206.678 114.181 204.805 97.1867C202.955 80.1921 200.643 71.6948 197.868 71.6948C195.117 71.6948 192.805 80.1921 190.932 97.1867C189.082 114.181 188.157 134.952 188.157 159.5C188.157 184.048 189.082 204.819 190.932 221.813C192.805 238.808 195.117 247.305 197.868 247.305ZM197.868 275C194.24 275 191.157 263.88 188.619 241.64C186.082 219.191 184.813 191.811 184.813 159.5C184.813 127.189 186.082 99.9142 188.619 77.6744C191.157 55.2248 194.24 44 197.868 44C201.52 44 204.603 55.2248 207.117 77.6744C209.655 99.9142 210.923 127.189 210.923 159.5C210.923 191.811 209.655 219.191 207.117 241.64C204.603 263.88 201.52 275 197.868 275Z" fill="white"/>
<path d="M151.435 271.224V47.7769H154.743V243.529H163.992V47.7769H167.301V243.529H176.549V47.7769H179.858V271.224H151.435Z" fill="white"/>
<path d="M144.253 271.224L130.842 164.85V271.224H127.569V47.7769H130.842V144.709L141.87 47.7769H146.174L134.15 154.15L148.913 271.224H144.253Z" fill="white"/>
<path d="M120.706 67.9185C122.318 81.3463 123.125 98.3409 123.125 118.902C123.125 139.464 122.318 156.458 120.706 169.886C119.117 183.104 117.03 189.713 114.445 189.713H110.034V271.224H106.726V47.7769H114.445C117.03 47.7769 119.117 54.4908 120.706 67.9185ZM118.393 150.374C119.366 142.191 119.852 131.701 119.852 118.902C119.852 106.104 119.366 95.6134 118.393 87.4308C117.445 79.2482 116.129 75.157 114.445 75.157H110.034V162.647H114.445C116.129 162.647 117.445 158.556 118.393 150.374Z" fill="white"/>
<path d="M88.6836 247.305C91.4583 247.305 93.7705 238.808 95.6203 221.813C97.4938 204.819 98.4306 184.048 98.4306 159.5C98.4306 134.952 97.4938 114.181 95.6203 97.1867C93.7705 80.1921 91.4583 71.6948 88.6836 71.6948C85.9327 71.6948 83.6204 80.1921 81.7469 97.1867C79.8971 114.181 78.9723 134.952 78.9723 159.5C78.9723 184.048 79.8971 204.819 81.7469 221.813C83.6204 238.808 85.9327 247.305 88.6836 247.305ZM88.6836 275C85.0552 275 81.9722 263.88 79.4347 241.64C76.8972 219.191 75.6284 191.811 75.6284 159.5C75.6284 127.189 76.8972 99.9142 79.4347 77.6744C81.9722 55.2248 85.0552 44 88.6836 44C92.3358 44 95.4187 55.2248 97.9325 77.6744C100.47 99.9142 101.739 127.189 101.739 159.5C101.739 191.811 100.47 219.191 97.9325 241.64C95.4187 263.88 92.3358 275 88.6836 275Z" fill="white"/>
<path d="M54.9995 271.224V47.7769H63.288C65.5646 47.7769 67.3907 53.5466 68.7662 65.0861C70.1417 76.6256 70.8294 90.578 70.8294 106.943C70.8294 127.504 69.9282 142.716 68.1259 152.577C71.0428 162.018 72.5013 179.852 72.5013 206.078C72.5013 224.961 71.7187 240.592 70.1535 252.97C68.612 265.139 66.5725 271.224 64.035 271.224H54.9995ZM58.3078 244.788H64.1773C65.8374 244.788 67.0943 241.431 67.948 234.717C68.8255 227.793 69.2642 218.562 69.2642 207.022C69.2642 195.692 68.8255 186.566 67.948 179.642C67.0943 172.508 65.8492 168.942 64.2129 168.942H58.3078V244.788ZM58.3078 143.765H63.288C64.616 143.765 65.6595 140.617 66.4184 134.323C67.201 127.819 67.5923 119.427 67.5923 109.146C67.5923 99.285 67.201 90.9976 66.4184 84.2837C65.6358 77.5698 64.5923 74.2128 63.288 74.2128H58.3078V143.765Z" fill="white"/>
<path d="M59.6701 96V71.86H67.5921C69.7681 71.86 71.5135 72.4833 72.8281 73.73C74.1428 74.9767 74.8001 76.484 74.8001 78.252C74.8001 80.4733 73.9388 82.1167 72.2161 83.182C75.0041 84.202 76.3981 86.1287 76.3981 88.962C76.3981 91.002 75.6501 92.6907 74.1541 94.028C72.6808 95.3427 70.7315 96 68.3061 96H59.6701ZM62.8321 93.144H68.4421C70.0288 93.144 71.2301 92.7813 72.0461 92.056C72.8848 91.308 73.3041 90.3107 73.3041 89.064C73.3041 87.84 72.8848 86.854 72.0461 86.106C71.2301 85.3353 70.0401 84.95 68.4761 84.95H62.8321V93.144ZM62.8321 82.23H67.5921C68.8615 82.23 69.8588 81.89 70.5841 81.21C71.3321 80.5073 71.7061 79.6007 71.7061 78.49C71.7061 77.4247 71.3321 76.5293 70.5841 75.804C69.8361 75.0787 68.8388 74.716 67.5921 74.716H62.8321V82.23ZM91.8649 93.416C94.5169 93.416 96.7269 92.498 98.4949 90.662C100.286 88.826 101.181 86.582 101.181 83.93C101.181 81.278 100.286 79.034 98.4949 77.198C96.7269 75.362 94.5169 74.444 91.8649 74.444C89.2356 74.444 87.0256 75.362 85.2349 77.198C83.4669 79.034 82.5829 81.278 82.5829 83.93C82.5829 86.582 83.4669 88.826 85.2349 90.662C87.0256 92.498 89.2356 93.416 91.8649 93.416ZM91.8649 96.408C88.3969 96.408 85.4503 95.2067 83.0249 92.804C80.5996 90.3787 79.3869 87.4207 79.3869 83.93C79.3869 80.4393 80.5996 77.4927 83.0249 75.09C85.4503 72.6647 88.3969 71.452 91.8649 71.452C95.3556 71.452 98.3023 72.6647 100.705 75.09C103.13 77.4927 104.343 80.4393 104.343 83.93C104.343 87.4207 103.13 90.3787 100.705 92.804C98.3023 95.2067 95.3556 96.408 91.8649 96.408ZM122.472 74.036C124.013 75.4867 124.784 77.3227 124.784 79.544C124.784 81.7653 124.013 83.6013 122.472 85.052C120.953 86.48 118.958 87.194 116.488 87.194H112.272V96H109.11V71.86H116.488C118.958 71.86 120.953 72.5853 122.472 74.036ZM120.262 82.944C121.191 82.06 121.656 80.9267 121.656 79.544C121.656 78.1613 121.191 77.028 120.262 76.144C119.355 75.26 118.097 74.818 116.488 74.818H112.272V84.27H116.488C118.097 84.27 119.355 83.828 120.262 82.944ZM144.977 96L132.159 84.508V96H129.031V71.86H132.159V82.332L142.699 71.86H146.813L135.321 83.352L149.431 96H144.977ZM151.842 96V71.86H155.004V93.008H163.844V71.86H167.006V93.008H175.846V71.86H179.008V96H151.842ZM196.222 93.416C198.874 93.416 201.084 92.498 202.852 90.662C204.643 88.826 205.538 86.582 205.538 83.93C205.538 81.278 204.643 79.034 202.852 77.198C201.084 75.362 198.874 74.444 196.222 74.444C193.593 74.444 191.383 75.362 189.592 77.198C187.824 79.034 186.94 81.278 186.94 83.93C186.94 86.582 187.824 88.826 189.592 90.662C191.383 92.498 193.593 93.416 196.222 93.416ZM196.222 96.408C192.754 96.408 189.808 95.2067 187.382 92.804C184.957 90.3787 183.744 87.4207 183.744 83.93C183.744 80.4393 184.957 77.4927 187.382 75.09C189.808 72.6647 192.754 71.452 196.222 71.452C199.713 71.452 202.66 72.6647 205.062 75.09C207.488 77.4927 208.7 80.4393 208.7 83.93C208.7 87.4207 207.488 90.3787 205.062 92.804C202.66 95.2067 199.713 96.408 196.222 96.408ZM229.345 96V74.852H216.527V96H213.467V71.86H232.439V96H229.345ZM242.029 81.55H246.517C249.011 81.55 251.005 82.2073 252.501 83.522C253.997 84.8367 254.745 86.582 254.745 88.758C254.745 90.934 253.997 92.6907 252.501 94.028C251.005 95.3427 249.011 96 246.517 96H238.867V71.86H242.029V81.55ZM242.029 93.076H246.415C248.093 93.076 249.373 92.7133 250.257 91.988C251.164 91.24 251.617 90.1633 251.617 88.758C251.617 87.398 251.164 86.344 250.257 85.596C249.373 84.848 248.093 84.474 246.415 84.474H242.029V93.076ZM258.179 96V71.86H261.341V96H258.179Z" fill="black"/>
<path d="M260.329 223L260.329 247.14L252.407 247.14C250.231 247.14 248.486 246.517 247.171 245.27C245.857 244.023 245.199 242.516 245.199 240.748C245.199 238.527 246.061 236.883 247.783 235.818C244.995 234.798 243.601 232.871 243.601 230.038C243.601 227.998 244.349 226.309 245.845 224.972C247.319 223.657 249.268 223 251.693 223L260.329 223ZM257.167 225.856L251.557 225.856C249.971 225.856 248.769 226.219 247.953 226.944C247.115 227.692 246.695 228.689 246.695 229.936C246.695 231.16 247.115 232.146 247.953 232.894C248.769 233.665 249.959 234.05 251.523 234.05L257.167 234.05L257.167 225.856ZM257.167 236.77L252.407 236.77C251.138 236.77 250.141 237.11 249.415 237.79C248.667 238.493 248.293 239.399 248.293 240.51C248.293 241.575 248.667 242.471 249.415 243.196C250.163 243.921 251.161 244.284 252.407 244.284L257.167 244.284L257.167 236.77ZM228.135 225.584C225.483 225.584 223.273 226.502 221.505 228.338C219.714 230.174 218.819 232.418 218.819 235.07C218.819 237.722 219.714 239.966 221.505 241.802C223.273 243.638 225.483 244.556 228.135 244.556C230.764 244.556 232.974 243.638 234.765 241.802C236.533 239.966 237.417 237.722 237.417 235.07C237.417 232.418 236.533 230.174 234.765 228.338C232.974 226.502 230.764 225.584 228.135 225.584ZM228.135 222.592C231.603 222.592 234.549 223.793 236.975 226.196C239.4 228.621 240.613 231.579 240.613 235.07C240.613 238.561 239.4 241.507 236.975 243.91C234.549 246.335 231.603 247.548 228.135 247.548C224.644 247.548 221.697 246.335 219.295 243.91C216.869 241.507 215.657 238.561 215.657 235.07C215.657 231.579 216.869 228.621 219.295 226.196C221.697 223.793 224.644 222.592 228.135 222.592ZM197.528 244.964C195.987 243.513 195.216 241.677 195.216 239.456C195.216 237.235 195.987 235.399 197.528 233.948C199.047 232.52 201.041 231.806 203.512 231.806L207.728 231.806L207.728 223L210.89 223L210.89 247.14L203.512 247.14C201.041 247.14 199.047 246.415 197.528 244.964ZM199.738 236.056C198.809 236.94 198.344 238.073 198.344 239.456C198.344 240.839 198.809 241.972 199.738 242.856C200.645 243.74 201.903 244.182 203.512 244.182L207.728 244.182L207.728 234.73L203.512 234.73C201.903 234.73 200.645 235.172 199.738 236.056ZM175.022 223L187.84 234.492L187.84 223L190.968 223L190.968 247.14L187.84 247.14L187.84 236.668L177.3 247.14L173.186 247.14L184.678 235.648L170.568 223L175.022 223ZM168.158 223L168.158 247.14L164.996 247.14L164.996 225.992L156.156 225.992L156.156 247.14L152.994 247.14L152.994 225.992L144.154 225.992L144.154 247.14L140.992 247.14L140.992 223L168.158 223ZM123.777 225.584C121.125 225.584 118.915 226.502 117.147 228.338C115.356 230.174 114.461 232.418 114.461 235.07C114.461 237.722 115.356 239.966 117.147 241.802C118.915 243.638 121.125 244.556 123.777 244.556C126.406 244.556 128.616 243.638 130.407 241.802C132.175 239.966 133.059 237.722 133.059 235.07C133.059 232.418 132.175 230.174 130.407 228.338C128.616 226.502 126.406 225.584 123.777 225.584ZM123.777 222.592C127.245 222.592 130.192 223.793 132.617 226.196C135.042 228.621 136.255 231.579 136.255 235.07C136.255 238.561 135.042 241.507 132.617 243.91C130.192 246.335 127.245 247.548 123.777 247.548C120.286 247.548 117.34 246.335 114.937 243.91C112.512 241.507 111.299 238.561 111.299 235.07C111.299 231.579 112.512 228.621 114.937 226.196C117.34 223.793 120.286 222.592 123.777 222.592ZM90.6545 223L90.6545 244.148L103.473 244.148L103.473 223L106.533 223L106.533 247.14L87.5605 247.14L87.5605 223L90.6545 223ZM77.9701 237.45L73.4821 237.45C70.9888 237.45 68.9941 236.793 67.4981 235.478C66.0021 234.163 65.2541 232.418 65.2541 230.242C65.2541 228.066 66.0021 226.309 67.4981 224.972C68.9941 223.657 70.9888 223 73.4821 223L81.1321 223L81.1321 247.14L77.9701 247.14L77.9701 237.45ZM77.9701 225.924L73.5841 225.924C71.9068 225.924 70.6261 226.287 69.7421 227.012C68.8355 227.76 68.3821 228.837 68.3821 230.242C68.3821 231.602 68.8355 232.656 69.7421 233.404C70.6261 234.152 71.9068 234.526 73.5841 234.526L77.9701 234.526L77.9701 225.924ZM61.8201 223L61.8201 247.14L58.6581 247.14L58.6581 223L61.8201 223Z" fill="black"/>
<circle cx="160" cy="160" r="15" fill="black"/>
</svg>
